M48
; DRILL file {KiCad 7.0.8} date Mon Nov  6 22:20:28 2023
; FORMAT={-:-/ absolute / inch / decimal}
; #@! TF.CreationDate,2023-11-06T22:20:28+09:00
; #@! TF.GenerationSoftware,Kicad,Pcbnew,7.0.8
; #@! TF.FileFunction,Plated,1,2,PTH
FMAT,2
INCH
; #@! TA.AperFunction,Plated,PTH,ViaDrill
T1C0.0157
; #@! TA.AperFunction,Plated,PTH,ComponentDrill
T2C0.0315
; #@! TA.AperFunction,Plated,PTH,ComponentDrill
T3C0.0354
; #@! TA.AperFunction,Plated,PTH,ComponentDrill
T4C0.0394
; #@! TA.AperFunction,Plated,PTH,ComponentDrill
T5C0.0433
%
G90
G05
T1
X4.4488Y-3.8681
X4.8327Y-2.6673
X5.0098Y-3.7992
X5.0492Y-3.1102
X5.1181Y-2.2441
X5.374Y-3.7598
X5.3839Y-2.5
X5.3937Y-3.061
X5.3937Y-3.2677
X5.3937Y-3.376
X5.3937Y-3.5039
X5.7087Y-2.2835
X5.7087Y-2.4311
X5.7087Y-2.5295
X5.7087Y-2.7461
X5.7087Y-2.8839
T2
X4.3972Y-2.0472
X4.3972Y-2.185
X4.3972Y-2.3327
X4.5597Y-3.4252
X4.6161Y-2.8248
X4.6582Y-3.4252
X4.687Y-3.0709
X4.6972Y-2.0472
X4.6972Y-2.185
X4.6972Y-2.3327
X4.7146Y-2.8248
X4.8327Y-2.126
X4.8327Y-2.3228
X4.8524Y-2.8248
X4.8791Y-3.0709
X4.8819Y-3.4252
X4.9508Y-2.8248
X4.9803Y-3.4252
X5.0098Y-2.126
X5.0098Y-2.3228
X5.2441Y-2.2496
X5.2441Y-2.3496
X5.2441Y-2.4496
X5.2441Y-2.5496
X5.2441Y-2.6496
X5.2441Y-2.7496
X5.2441Y-2.8496
X5.2441Y-2.9496
X5.2441Y-3.0496
X5.2441Y-3.1496
X5.2441Y-3.2496
X5.2441Y-3.3496
X5.2441Y-3.4496
X5.2441Y-3.5496
X5.5441Y-2.2496
X5.5441Y-2.3496
X5.5441Y-2.4496
X5.5441Y-2.5496
X5.5441Y-2.6496
X5.5441Y-2.7496
X5.5441Y-2.8496
X5.5441Y-2.9496
X5.5441Y-3.0496
X5.5441Y-3.1496
X5.5441Y-3.2496
X5.5441Y-3.3496
X5.5441Y-3.4496
X5.5441Y-3.5496
T3
X4.6457Y-2.5689
X4.7457Y-2.5689
X4.94Y-2.5689
X5.04Y-2.5689
T4
X4.4498Y-2.5177
X4.4498Y-2.6177
X4.4498Y-2.7177
X4.4498Y-2.8177
X5.1575Y-3.8583
X5.187Y-2.0472
X5.2575Y-3.8583
X5.287Y-2.0472
X5.3575Y-3.8583
X5.387Y-2.0472
X5.4575Y-3.8583
X5.487Y-2.0472
X5.5575Y-3.8583
X5.587Y-2.0472
X5.6575Y-3.8583
X5.687Y-2.0472
X5.8258Y-2.6919
X5.8258Y-2.7919
X5.8258Y-2.8919
X5.8258Y-2.9919
X5.8258Y-3.0919
X5.8258Y-3.1919
X5.8268Y-2.0441
X5.8268Y-2.1441
X5.8268Y-2.2441
X5.8268Y-2.3441
X5.8268Y-2.4441
X5.8268Y-2.5441
X5.8268Y-3.35
X5.8268Y-3.45
X5.8268Y-3.55
X5.8268Y-3.65
X5.8268Y-3.75
X5.8268Y-3.85
T5
X3.9862Y-2.7559
X3.9862Y-2.9331
X4.0059Y-2.0374
X4.0059Y-2.2146
X4.0059Y-2.3917
X4.0059Y-2.5689
X4.2421Y-2.7559
X4.2421Y-2.9331
X4.2618Y-2.0374
X4.2618Y-2.2146
X4.2618Y-2.3917
X4.2618Y-2.5689
X4.6031Y-3.7697
X4.7031Y-3.7697
X4.8031Y-3.7697
T4
G00X4.1043Y-3.6336
M15
G01X4.1043Y-3.7123
M16
G05
G00X4.1831Y-3.858
M15
G01X4.2618Y-3.858
M16
G05
G00X4.3406Y-3.6336
M15
G01X4.3406Y-3.7123
M16
G05
T0
M30
