%TF.GenerationSoftware,KiCad,Pcbnew,7.0.8*%
%TF.CreationDate,2023-11-06T22:20:17+09:00*%
%TF.ProjectId,My_Arduino,4d795f41-7264-4756-996e-6f2e6b696361,rev?*%
%TF.SameCoordinates,Original*%
%TF.FileFunction,Copper,L1,Top*%
%TF.FilePolarity,Positive*%
%FSLAX46Y46*%
G04 Gerber Fmt 4.6, Leading zero omitted, Abs format (unit mm)*
G04 Created by KiCad (PCBNEW 7.0.8) date 2023-11-06 22:20:17*
%MOMM*%
%LPD*%
G01*
G04 APERTURE LIST*
G04 Aperture macros list*
%AMRoundRect*
0 Rectangle with rounded corners*
0 $1 Rounding radius*
0 $2 $3 $4 $5 $6 $7 $8 $9 X,Y pos of 4 corners*
0 Add a 4 corners polygon primitive as box body*
4,1,4,$2,$3,$4,$5,$6,$7,$8,$9,$2,$3,0*
0 Add four circle primitives for the rounded corners*
1,1,$1+$1,$2,$3*
1,1,$1+$1,$4,$5*
1,1,$1+$1,$6,$7*
1,1,$1+$1,$8,$9*
0 Add four rect primitives between the rounded corners*
20,1,$1+$1,$2,$3,$4,$5,0*
20,1,$1+$1,$4,$5,$6,$7,0*
20,1,$1+$1,$6,$7,$8,$9,0*
20,1,$1+$1,$8,$9,$2,$3,0*%
G04 Aperture macros list end*
%TA.AperFunction,ComponentPad*%
%ADD10O,1.600000X1.600000*%
%TD*%
%TA.AperFunction,ComponentPad*%
%ADD11C,1.600000*%
%TD*%
%TA.AperFunction,ComponentPad*%
%ADD12C,2.000000*%
%TD*%
%TA.AperFunction,ComponentPad*%
%ADD13R,1.800000X1.800000*%
%TD*%
%TA.AperFunction,ComponentPad*%
%ADD14C,1.800000*%
%TD*%
%TA.AperFunction,ComponentPad*%
%ADD15R,1.700000X1.700000*%
%TD*%
%TA.AperFunction,ComponentPad*%
%ADD16O,1.700000X1.700000*%
%TD*%
%TA.AperFunction,ComponentPad*%
%ADD17R,3.500000X3.500000*%
%TD*%
%TA.AperFunction,ComponentPad*%
%ADD18RoundRect,0.750000X-0.750000X-1.000000X0.750000X-1.000000X0.750000X1.000000X-0.750000X1.000000X0*%
%TD*%
%TA.AperFunction,ComponentPad*%
%ADD19RoundRect,0.875000X-0.875000X-0.875000X0.875000X-0.875000X0.875000X0.875000X-0.875000X0.875000X0*%
%TD*%
%TA.AperFunction,ComponentPad*%
%ADD20R,1.600000X1.600000*%
%TD*%
%TA.AperFunction,ComponentPad*%
%ADD21C,1.500000*%
%TD*%
%TA.AperFunction,ComponentPad*%
%ADD22R,1.905000X2.000000*%
%TD*%
%TA.AperFunction,ComponentPad*%
%ADD23O,1.905000X2.000000*%
%TD*%
%TA.AperFunction,ViaPad*%
%ADD24C,0.800000*%
%TD*%
%TA.AperFunction,Conductor*%
%ADD25C,0.250000*%
%TD*%
G04 APERTURE END LIST*
D10*
%TO.P,R1,2*%
%TO.N,/RESET*%
X119310000Y-52000000D03*
D11*
%TO.P,R1,1*%
%TO.N,+5V*%
X111690000Y-52000000D03*
%TD*%
D12*
%TO.P,SW1,2,2*%
%TO.N,/RESET*%
X108250000Y-56250000D03*
X101750000Y-56250000D03*
%TO.P,SW1,1,1*%
%TO.N,GND*%
X108250000Y-51750000D03*
X101750000Y-51750000D03*
%TD*%
%TO.P,SW3,1,1*%
%TO.N,GND*%
X101250000Y-70000000D03*
X107750000Y-70000000D03*
%TO.P,SW3,2,2*%
%TO.N,Net-(Je1-Pin_2)*%
X101250000Y-74500000D03*
X107750000Y-74500000D03*
%TD*%
%TO.P,SW2,2,2*%
%TO.N,Net-(Je1-Pin_1)*%
X108250000Y-65250000D03*
X101750000Y-65250000D03*
%TO.P,SW2,1,1*%
%TO.N,GND*%
X108250000Y-60750000D03*
X101750000Y-60750000D03*
%TD*%
D13*
%TO.P,D2,1,K*%
%TO.N,Net-(D2-K)*%
X125475000Y-65250000D03*
D14*
%TO.P,D2,2,A*%
%TO.N,Net-(D2-A)*%
X128015000Y-65250000D03*
%TD*%
D11*
%TO.P,C4,1*%
%TO.N,/XTAL2*%
X117250000Y-71750000D03*
%TO.P,C4,2*%
%TO.N,Net-(C4-Pad2)*%
X119750000Y-71750000D03*
%TD*%
%TO.P,C6,1*%
%TO.N,Net-(U1-AREF)*%
X122750000Y-54000000D03*
%TO.P,C6,2*%
%TO.N,GND*%
X122750000Y-59000000D03*
%TD*%
D15*
%TO.P,J6,1,Pin_1*%
%TO.N,VCC*%
X131000000Y-98000000D03*
D16*
%TO.P,J6,2,Pin_2*%
X133540000Y-98000000D03*
%TO.P,J6,3,Pin_3*%
%TO.N,+5V*%
X136080000Y-98000000D03*
%TO.P,J6,4,Pin_4*%
X138620000Y-98000000D03*
%TO.P,J6,5,Pin_5*%
%TO.N,GND*%
X141160000Y-98000000D03*
%TO.P,J6,6,Pin_6*%
X143700000Y-98000000D03*
%TD*%
D10*
%TO.P,R2,2*%
%TO.N,Net-(D1-K)*%
X119310000Y-55500000D03*
D11*
%TO.P,R2,1*%
%TO.N,GND*%
X111690000Y-55500000D03*
%TD*%
D15*
%TO.P,J3,1,Pin_1*%
%TO.N,Net-(J3-Pin_1)*%
X148000000Y-97790000D03*
D16*
%TO.P,J3,2,Pin_2*%
%TO.N,Net-(J3-Pin_2)*%
X148000000Y-95250000D03*
%TO.P,J3,3,Pin_3*%
%TO.N,Net-(J3-Pin_3)*%
X148000000Y-92710000D03*
%TO.P,J3,4,Pin_4*%
%TO.N,Net-(J3-Pin_4)*%
X148000000Y-90170000D03*
%TO.P,J3,5,Pin_5*%
%TO.N,Net-(J3-Pin_5)*%
X148000000Y-87630000D03*
%TO.P,J3,6,Pin_6*%
%TO.N,Net-(J3-Pin_6)*%
X148000000Y-85090000D03*
%TD*%
D17*
%TO.P,J4,1*%
%TO.N,VCC*%
X110250000Y-93292500D03*
D18*
%TO.P,J4,2*%
%TO.N,GND*%
X104250000Y-93292500D03*
D19*
%TO.P,J4,3*%
%TO.N,unconnected-(J4-Pad3)*%
X107250000Y-97992500D03*
%TD*%
D15*
%TO.P,J5,1,Pin_1*%
%TO.N,/DTR*%
X131750000Y-52000000D03*
D16*
%TO.P,J5,2,Pin_2*%
%TO.N,/TXD*%
X134290000Y-52000000D03*
%TO.P,J5,3,Pin_3*%
%TO.N,/RXD*%
X136830000Y-52000000D03*
%TO.P,J5,4,Pin_4*%
%TO.N,+5V*%
X139370000Y-52000000D03*
%TO.P,J5,5,Pin_5*%
%TO.N,GND*%
X141910000Y-52000000D03*
%TO.P,J5,6,Pin_6*%
X144450000Y-52000000D03*
%TD*%
D15*
%TO.P,J2,1,Pin_1*%
%TO.N,Net-(J2-Pin_1)*%
X148000000Y-64620000D03*
D16*
%TO.P,J2,2,Pin_2*%
%TO.N,Net-(J2-Pin_2)*%
X148000000Y-62080000D03*
%TO.P,J2,3,Pin_3*%
%TO.N,Net-(J2-Pin_3)*%
X148000000Y-59540000D03*
%TO.P,J2,4,Pin_4*%
%TO.N,Net-(J2-Pin_4)*%
X148000000Y-57000000D03*
%TO.P,J2,5,Pin_5*%
%TO.N,Net-(J2-Pin_5)*%
X148000000Y-54460000D03*
%TO.P,J2,6,Pin_6*%
%TO.N,Net-(J2-Pin_6)*%
X148000000Y-51920000D03*
%TD*%
D20*
%TO.P,C1,1*%
%TO.N,VCC*%
X115817621Y-87000000D03*
D11*
%TO.P,C1,2*%
%TO.N,GND*%
X118317621Y-87000000D03*
%TD*%
D16*
%TO.P,Je1,4,Pin_4*%
%TO.N,Net-(D2-A)*%
X113025000Y-71570000D03*
%TO.P,Je1,3,Pin_3*%
%TO.N,Net-(D1-A)*%
X113025000Y-69030000D03*
%TO.P,Je1,2,Pin_2*%
%TO.N,Net-(Je1-Pin_2)*%
X113025000Y-66490000D03*
D15*
%TO.P,Je1,1,Pin_1*%
%TO.N,Net-(Je1-Pin_1)*%
X113025000Y-63950000D03*
%TD*%
D20*
%TO.P,C2,1*%
%TO.N,+5V*%
X124000000Y-87000000D03*
D11*
%TO.P,C2,2*%
%TO.N,GND*%
X126500000Y-87000000D03*
%TD*%
%TO.P,C5,1*%
%TO.N,/XTAL1*%
X123250000Y-71750000D03*
%TO.P,C5,2*%
%TO.N,Net-(C4-Pad2)*%
X125750000Y-71750000D03*
%TD*%
D20*
%TO.P,U1,1,~{RESET}/PC6*%
%TO.N,/RESET*%
X133200000Y-57140000D03*
D10*
%TO.P,U1,2,PD0*%
%TO.N,/RXD*%
X133200000Y-59680000D03*
%TO.P,U1,3,PD1*%
%TO.N,/TXD*%
X133200000Y-62220000D03*
%TO.P,U1,4,PD2*%
%TO.N,Net-(J3-Pin_1)*%
X133200000Y-64760000D03*
%TO.P,U1,5,PD3*%
%TO.N,Net-(J3-Pin_2)*%
X133200000Y-67300000D03*
%TO.P,U1,6,PD4*%
%TO.N,Net-(J3-Pin_3)*%
X133200000Y-69840000D03*
%TO.P,U1,7,VCC*%
%TO.N,+5V*%
X133200000Y-72380000D03*
%TO.P,U1,8,GND*%
%TO.N,GND*%
X133200000Y-74920000D03*
%TO.P,U1,9,XTAL1/PB6*%
%TO.N,/XTAL1*%
X133200000Y-77460000D03*
%TO.P,U1,10,XTAL2/PB7*%
%TO.N,/XTAL2*%
X133200000Y-80000000D03*
%TO.P,U1,11,PD5*%
%TO.N,Net-(J3-Pin_4)*%
X133200000Y-82540000D03*
%TO.P,U1,12,PD6*%
%TO.N,Net-(J3-Pin_5)*%
X133200000Y-85080000D03*
%TO.P,U1,13,PD7*%
%TO.N,Net-(J3-Pin_6)*%
X133200000Y-87620000D03*
%TO.P,U1,14,PB0*%
%TO.N,Net-(J1-Pin_1)*%
X133200000Y-90160000D03*
%TO.P,U1,15,PB1*%
%TO.N,Net-(J1-Pin_2)*%
X140820000Y-90160000D03*
%TO.P,U1,16,PB2*%
%TO.N,Net-(J1-Pin_3)*%
X140820000Y-87620000D03*
%TO.P,U1,17,PB3*%
%TO.N,Net-(J1-Pin_4)*%
X140820000Y-85080000D03*
%TO.P,U1,18,PB4*%
%TO.N,Net-(J1-Pin_5)*%
X140820000Y-82540000D03*
%TO.P,U1,19,PB5*%
%TO.N,Net-(J1-Pin_6)*%
X140820000Y-80000000D03*
%TO.P,U1,20,AVCC*%
%TO.N,+5V*%
X140820000Y-77460000D03*
%TO.P,U1,21,AREF*%
%TO.N,Net-(U1-AREF)*%
X140820000Y-74920000D03*
%TO.P,U1,22,GND*%
%TO.N,GND*%
X140820000Y-72380000D03*
%TO.P,U1,23,PC0*%
%TO.N,Net-(J2-Pin_1)*%
X140820000Y-69840000D03*
%TO.P,U1,24,PC1*%
%TO.N,Net-(J2-Pin_2)*%
X140820000Y-67300000D03*
%TO.P,U1,25,PC2*%
%TO.N,Net-(J2-Pin_3)*%
X140820000Y-64760000D03*
%TO.P,U1,26,PC3*%
%TO.N,Net-(J2-Pin_4)*%
X140820000Y-62220000D03*
%TO.P,U1,27,PC4*%
%TO.N,Net-(J2-Pin_5)*%
X140820000Y-59680000D03*
%TO.P,U1,28,PC5*%
%TO.N,Net-(J2-Pin_6)*%
X140820000Y-57140000D03*
%TD*%
%TO.P,R3,2*%
%TO.N,Net-(D2-K)*%
X119310000Y-59250000D03*
D11*
%TO.P,R3,1*%
%TO.N,GND*%
X111690000Y-59250000D03*
%TD*%
D21*
%TO.P,Y1,2,2*%
%TO.N,/XTAL1*%
X123930000Y-78000000D03*
%TO.P,Y1,1,1*%
%TO.N,/XTAL2*%
X119050000Y-78000000D03*
%TD*%
D15*
%TO.P,J1,1,Pin_1*%
%TO.N,Net-(J1-Pin_1)*%
X147975000Y-81075000D03*
D16*
%TO.P,J1,2,Pin_2*%
%TO.N,Net-(J1-Pin_2)*%
X147975000Y-78535000D03*
%TO.P,J1,3,Pin_3*%
%TO.N,Net-(J1-Pin_3)*%
X147975000Y-75995000D03*
%TO.P,J1,4,Pin_4*%
%TO.N,Net-(J1-Pin_4)*%
X147975000Y-73455000D03*
%TO.P,J1,5,Pin_5*%
%TO.N,Net-(J1-Pin_5)*%
X147975000Y-70915000D03*
%TO.P,J1,6,Pin_6*%
%TO.N,Net-(J1-Pin_6)*%
X147975000Y-68375000D03*
%TD*%
D13*
%TO.P,D1,1,K*%
%TO.N,Net-(D1-K)*%
X118000000Y-65250000D03*
D14*
%TO.P,D1,2,A*%
%TO.N,Net-(D1-A)*%
X120540000Y-65250000D03*
%TD*%
D11*
%TO.P,C3,1*%
%TO.N,/RESET*%
X127250000Y-59000000D03*
%TO.P,C3,2*%
%TO.N,/DTR*%
X127250000Y-54000000D03*
%TD*%
D22*
%TO.P,U2,1,VI*%
%TO.N,VCC*%
X122000000Y-95750000D03*
D23*
%TO.P,U2,2,GND*%
%TO.N,GND*%
X119460000Y-95750000D03*
%TO.P,U2,3,VO*%
%TO.N,+5V*%
X116920000Y-95750000D03*
%TD*%
D24*
%TO.N,GND*%
X128250000Y-79000000D03*
X136750000Y-63500000D03*
X130000000Y-57000000D03*
X113000000Y-98250000D03*
X136500000Y-95500000D03*
X127250000Y-96500000D03*
X122750000Y-67750000D03*
X137000000Y-77750000D03*
X137000000Y-89000000D03*
X137000000Y-85750000D03*
X137000000Y-83000000D03*
X145000000Y-73250000D03*
X145000000Y-69750000D03*
X145000000Y-61750000D03*
X145000000Y-64250000D03*
X145000000Y-58000000D03*
%TD*%
D25*
%TO.N,GND*%
X117192621Y-85875000D02*
X118317621Y-87000000D01*
X111667500Y-85875000D02*
X117192621Y-85875000D01*
X104250000Y-93292500D02*
X111667500Y-85875000D01*
X119442621Y-85875000D02*
X125375000Y-85875000D01*
X118317621Y-87000000D02*
X119442621Y-85875000D01*
X125375000Y-85875000D02*
X126500000Y-87000000D01*
X119768878Y-54375000D02*
X116565000Y-54375000D01*
X122750000Y-57356122D02*
X119768878Y-54375000D01*
X116565000Y-54375000D02*
X111690000Y-59250000D01*
X122750000Y-59000000D02*
X122750000Y-57356122D01*
X101750000Y-60750000D02*
X108250000Y-60750000D01*
X109750000Y-59250000D02*
X108250000Y-60750000D01*
X111690000Y-59250000D02*
X109750000Y-59250000D01*
X111690000Y-55500000D02*
X111690000Y-59250000D01*
X101750000Y-51750000D02*
X108250000Y-51750000D01*
%TO.N,+5V*%
X134325000Y-64301122D02*
X134325000Y-71255000D01*
X133658878Y-63635000D02*
X134325000Y-64301122D01*
X132741122Y-63635000D02*
X133658878Y-63635000D01*
X129375000Y-92145000D02*
X129375000Y-67001122D01*
X129375000Y-67001122D02*
X132741122Y-63635000D01*
X135230000Y-98000000D02*
X129375000Y-92145000D01*
X134325000Y-71255000D02*
X133200000Y-72380000D01*
X136080000Y-98000000D02*
X135230000Y-98000000D01*
X131984620Y-96825000D02*
X129409620Y-94250000D01*
%TO.N,VCC*%
X120676223Y-97073777D02*
X114031277Y-97073777D01*
X114031277Y-97073777D02*
X110250000Y-93292500D01*
X122000000Y-95750000D02*
X120676223Y-97073777D01*
%TO.N,Net-(C4-Pad2)*%
X124625000Y-70625000D02*
X125750000Y-71750000D01*
X120875000Y-70625000D02*
X124625000Y-70625000D01*
X119750000Y-71750000D02*
X120875000Y-70625000D01*
%TO.N,/XTAL1*%
X123930000Y-72430000D02*
X123250000Y-71750000D01*
X123930000Y-78000000D02*
X123930000Y-72430000D01*
%TO.N,VCC*%
X115817621Y-87000000D02*
X115817621Y-87724879D01*
X115817621Y-87724879D02*
X110250000Y-93292500D01*
%TO.N,+5V*%
X122500000Y-87000000D02*
X116920000Y-92580000D01*
X116920000Y-92580000D02*
X116920000Y-95750000D01*
X124000000Y-87000000D02*
X122500000Y-87000000D01*
%TO.N,/XTAL2*%
X117250000Y-74750000D02*
X117250000Y-71750000D01*
X119050000Y-76550000D02*
X117250000Y-74750000D01*
X119050000Y-78000000D02*
X119050000Y-76550000D01*
%TO.N,Net-(D2-K)*%
X119310000Y-59250000D02*
X125310000Y-65250000D01*
X125310000Y-65250000D02*
X125475000Y-65250000D01*
%TO.N,Net-(D1-K)*%
X118000000Y-56810000D02*
X118000000Y-65250000D01*
X119310000Y-55500000D02*
X118000000Y-56810000D01*
%TO.N,/RESET*%
X119310000Y-53440000D02*
X119310000Y-52000000D01*
X119000000Y-53750000D02*
X119310000Y-53440000D01*
X109250000Y-56250000D02*
X111750000Y-53750000D01*
X111750000Y-53750000D02*
X119000000Y-53750000D01*
X108250000Y-56250000D02*
X109250000Y-56250000D01*
X101750000Y-56250000D02*
X108250000Y-56250000D01*
%TO.N,Net-(Je1-Pin_2)*%
X111250000Y-67000000D02*
X111760000Y-66490000D01*
X111250000Y-70750000D02*
X111250000Y-67000000D01*
X108000000Y-74000000D02*
X111250000Y-70750000D01*
X111760000Y-66490000D02*
X113025000Y-66490000D01*
X101500000Y-74000000D02*
X108000000Y-74000000D01*
%TO.N,Net-(Je1-Pin_1)*%
X109000000Y-66000000D02*
X108250000Y-65250000D01*
X110250000Y-66000000D02*
X109000000Y-66000000D01*
X112300000Y-63950000D02*
X110250000Y-66000000D01*
X113025000Y-63950000D02*
X112300000Y-63950000D01*
X101750000Y-65250000D02*
X108250000Y-65250000D01*
%TO.N,Net-(D2-A)*%
X115115000Y-69480000D02*
X113025000Y-71570000D01*
X123785000Y-69480000D02*
X115115000Y-69480000D01*
X128015000Y-65250000D02*
X123785000Y-69480000D01*
%TO.N,Net-(D1-A)*%
X116760000Y-69030000D02*
X120540000Y-65250000D01*
X113025000Y-69030000D02*
X116760000Y-69030000D01*
%TO.N,+5V*%
X138195000Y-50825000D02*
X112865000Y-50825000D01*
X112865000Y-50825000D02*
X111690000Y-52000000D01*
X139370000Y-52000000D02*
X138195000Y-50825000D01*
%TO.N,/DTR*%
X129750000Y-54000000D02*
X131750000Y-52000000D01*
X127250000Y-54000000D02*
X129750000Y-54000000D01*
%TO.N,/TXD*%
X132075000Y-54215000D02*
X134290000Y-52000000D01*
X133200000Y-62220000D02*
X132075000Y-61095000D01*
X132075000Y-61095000D02*
X132075000Y-54215000D01*
%TO.N,/RXD*%
X136830000Y-56050000D02*
X136830000Y-52000000D01*
X133200000Y-59680000D02*
X136830000Y-56050000D01*
%TO.N,+5V*%
X132741122Y-81415000D02*
X136865000Y-81415000D01*
X132075000Y-80748878D02*
X132741122Y-81415000D01*
X132075000Y-72548878D02*
X132075000Y-80748878D01*
X134325000Y-70298878D02*
X132075000Y-72548878D01*
X134325000Y-64301122D02*
X134325000Y-70298878D01*
X136865000Y-81415000D02*
X140820000Y-77460000D01*
X129375000Y-91897792D02*
X129375000Y-67001122D01*
X141970000Y-94650000D02*
X132127208Y-94650000D01*
X138620000Y-98000000D02*
X141970000Y-94650000D01*
X132127208Y-94650000D02*
X129375000Y-91897792D01*
X118420000Y-94250000D02*
X116920000Y-95750000D01*
X134905000Y-96825000D02*
X131984620Y-96825000D01*
X136080000Y-98000000D02*
X134905000Y-96825000D01*
X129409620Y-94250000D02*
X118420000Y-94250000D01*
%TO.N,VCC*%
X131000000Y-98000000D02*
X133540000Y-98000000D01*
X130250000Y-98750000D02*
X131000000Y-98000000D01*
X130250000Y-99250000D02*
X130250000Y-98750000D01*
X125500000Y-99250000D02*
X130250000Y-99250000D01*
X122000000Y-95750000D02*
X125500000Y-99250000D01*
%TO.N,Net-(J3-Pin_1)*%
X129825000Y-91711396D02*
X129825000Y-68135000D01*
X145500000Y-92750000D02*
X144050000Y-94200000D01*
X145500000Y-96140000D02*
X145500000Y-92750000D01*
X129825000Y-68135000D02*
X133200000Y-64760000D01*
X147150000Y-97790000D02*
X145500000Y-96140000D01*
X132313604Y-94200000D02*
X129825000Y-91711396D01*
X148000000Y-97790000D02*
X147150000Y-97790000D01*
X144050000Y-94200000D02*
X132313604Y-94200000D01*
%TO.N,Net-(J3-Pin_2)*%
X132500000Y-93750000D02*
X130275000Y-91525000D01*
X146050000Y-91023604D02*
X143323604Y-93750000D01*
X130275000Y-91525000D02*
X130275000Y-70225000D01*
X146050000Y-93300000D02*
X146050000Y-91023604D01*
X130275000Y-70225000D02*
X133200000Y-67300000D01*
X148000000Y-95250000D02*
X146050000Y-93300000D01*
X143323604Y-93750000D02*
X132500000Y-93750000D01*
%TO.N,Net-(J3-Pin_3)*%
X130725000Y-91225000D02*
X130725000Y-72315000D01*
X132800000Y-93300000D02*
X130725000Y-91225000D01*
X142950000Y-93300000D02*
X132800000Y-93300000D01*
X146500000Y-91210000D02*
X146500000Y-89750000D01*
X130725000Y-72315000D02*
X133200000Y-69840000D01*
X148000000Y-92710000D02*
X146500000Y-91210000D01*
X146500000Y-89750000D02*
X142950000Y-93300000D01*
%TO.N,Net-(J3-Pin_4)*%
X131175000Y-84565000D02*
X133200000Y-82540000D01*
X133033330Y-92850000D02*
X131175000Y-90991670D01*
X142150000Y-92850000D02*
X133033330Y-92850000D01*
X146250000Y-88750000D02*
X142150000Y-92850000D01*
X146580000Y-88750000D02*
X146250000Y-88750000D01*
X148000000Y-90170000D02*
X146580000Y-88750000D01*
X131175000Y-90991670D02*
X131175000Y-84565000D01*
%TO.N,Net-(J3-Pin_5)*%
X146620000Y-87630000D02*
X148000000Y-87630000D01*
X133219726Y-92400000D02*
X141850000Y-92400000D01*
X141850000Y-92400000D02*
X146620000Y-87630000D01*
X131625000Y-90805274D02*
X133219726Y-92400000D01*
X133200000Y-85080000D02*
X131625000Y-86655000D01*
X131625000Y-86655000D02*
X131625000Y-90805274D01*
%TO.N,Net-(J3-Pin_6)*%
X133406122Y-91950000D02*
X132075000Y-90618878D01*
X132075000Y-88745000D02*
X133200000Y-87620000D01*
X141300000Y-91950000D02*
X133406122Y-91950000D01*
X148000000Y-85250000D02*
X141300000Y-91950000D01*
X148000000Y-85090000D02*
X148000000Y-85250000D01*
X132075000Y-90618878D02*
X132075000Y-88745000D01*
%TO.N,Net-(J1-Pin_1)*%
X141063878Y-91500000D02*
X134540000Y-91500000D01*
X134540000Y-91500000D02*
X133200000Y-90160000D01*
X145950000Y-86613878D02*
X141063878Y-91500000D01*
X145950000Y-83100000D02*
X145950000Y-86613878D01*
X147975000Y-81075000D02*
X145950000Y-83100000D01*
%TO.N,Net-(J1-Pin_2)*%
X145500000Y-81010000D02*
X147975000Y-78535000D01*
X145500000Y-85480000D02*
X145500000Y-81010000D01*
X140820000Y-90160000D02*
X145500000Y-85480000D01*
%TO.N,Net-(J1-Pin_3)*%
X144750000Y-77250000D02*
X146005000Y-75995000D01*
X144750000Y-83690000D02*
X144750000Y-77250000D01*
X140820000Y-87620000D02*
X144750000Y-83690000D01*
X146005000Y-75995000D02*
X147975000Y-75995000D01*
%TO.N,Net-(J1-Pin_4)*%
X147045000Y-73455000D02*
X147975000Y-73455000D01*
X146750000Y-74000000D02*
X146750000Y-73750000D01*
X144000000Y-76750000D02*
X146750000Y-74000000D01*
X144000000Y-81900000D02*
X144000000Y-76750000D01*
X140820000Y-85080000D02*
X144000000Y-81900000D01*
X146750000Y-73750000D02*
X147045000Y-73455000D01*
%TO.N,Net-(J1-Pin_5)*%
X145085000Y-70915000D02*
X147975000Y-70915000D01*
X142750000Y-73250000D02*
X145085000Y-70915000D01*
X142750000Y-80610000D02*
X142750000Y-73250000D01*
X140820000Y-82540000D02*
X142750000Y-80610000D01*
%TO.N,Net-(J1-Pin_6)*%
X143625000Y-68375000D02*
X147975000Y-68375000D01*
X141945000Y-70055000D02*
X143625000Y-68375000D01*
X140820000Y-80000000D02*
X141945000Y-78875000D01*
X141945000Y-78875000D02*
X141945000Y-70055000D01*
%TO.N,+5V*%
X132075000Y-73505000D02*
X133200000Y-72380000D01*
X132075000Y-75378878D02*
X132075000Y-73505000D01*
X132741122Y-76045000D02*
X132075000Y-75378878D01*
X139405000Y-76045000D02*
X132741122Y-76045000D01*
X140820000Y-77460000D02*
X139405000Y-76045000D01*
%TO.N,GND*%
X140820000Y-72380000D02*
X135740000Y-72380000D01*
X135740000Y-72380000D02*
X133200000Y-74920000D01*
%TO.N,Net-(J2-Pin_1)*%
X146630000Y-64620000D02*
X148000000Y-64620000D01*
X145660000Y-65000000D02*
X146250000Y-65000000D01*
X146250000Y-65000000D02*
X146630000Y-64620000D01*
X140820000Y-69840000D02*
X145660000Y-65000000D01*
%TO.N,Net-(J2-Pin_2)*%
X146420000Y-62080000D02*
X148000000Y-62080000D01*
X146250000Y-62250000D02*
X146420000Y-62080000D01*
X145870000Y-62250000D02*
X146250000Y-62250000D01*
X140820000Y-67300000D02*
X145870000Y-62250000D01*
%TO.N,Net-(J2-Pin_3)*%
X145960000Y-59540000D02*
X148000000Y-59540000D01*
X144500000Y-61000000D02*
X145960000Y-59540000D01*
X144500000Y-61080000D02*
X144500000Y-61000000D01*
X140820000Y-64760000D02*
X144500000Y-61080000D01*
%TO.N,Net-(J2-Pin_4)*%
X147000000Y-56250000D02*
X147250000Y-56250000D01*
X146750000Y-56000000D02*
X147000000Y-56250000D01*
X143500000Y-56750000D02*
X144250000Y-56000000D01*
X147250000Y-56250000D02*
X148000000Y-57000000D01*
X143500000Y-59540000D02*
X143500000Y-56750000D01*
X140820000Y-62220000D02*
X143500000Y-59540000D01*
X144250000Y-56000000D02*
X146750000Y-56000000D01*
%TO.N,Net-(J2-Pin_5)*%
X142750000Y-55750000D02*
X144040000Y-54460000D01*
X142750000Y-57750000D02*
X142750000Y-55750000D01*
X140820000Y-59680000D02*
X142750000Y-57750000D01*
X144040000Y-54460000D02*
X148000000Y-54460000D01*
%TO.N,Net-(J2-Pin_6)*%
X146830000Y-51920000D02*
X148000000Y-51920000D01*
X144750000Y-54000000D02*
X146830000Y-51920000D01*
X143750000Y-54000000D02*
X144750000Y-54000000D01*
X140750000Y-57000000D02*
X143750000Y-54000000D01*
X140820000Y-57070000D02*
X140750000Y-57000000D01*
X140820000Y-57140000D02*
X140820000Y-57070000D01*
%TD*%
%TA.AperFunction,Conductor*%
%TO.N,GND*%
G36*
X128821987Y-66488131D02*
G01*
X128863649Y-66544222D01*
X128868371Y-66613932D01*
X128855948Y-66646890D01*
X128855268Y-66648126D01*
X128844610Y-66664348D01*
X128832329Y-66680183D01*
X128832324Y-66680190D01*
X128813815Y-66722960D01*
X128811245Y-66728206D01*
X128788803Y-66769028D01*
X128783822Y-66788429D01*
X128777521Y-66806832D01*
X128769562Y-66825224D01*
X128769561Y-66825227D01*
X128762271Y-66871249D01*
X128761087Y-66876968D01*
X128749501Y-66922094D01*
X128749500Y-66922104D01*
X128749500Y-66942138D01*
X128747973Y-66961537D01*
X128744840Y-66981316D01*
X128744840Y-66981317D01*
X128749225Y-67027705D01*
X128749500Y-67033543D01*
X128749500Y-91815047D01*
X128747775Y-91830664D01*
X128748061Y-91830691D01*
X128747326Y-91838457D01*
X128749500Y-91907606D01*
X128749500Y-92062255D01*
X128747775Y-92077872D01*
X128748061Y-92077899D01*
X128747326Y-92085665D01*
X128749500Y-92154814D01*
X128749500Y-92184343D01*
X128749501Y-92184360D01*
X128750368Y-92191231D01*
X128750826Y-92197050D01*
X128752290Y-92243624D01*
X128752291Y-92243627D01*
X128757880Y-92262867D01*
X128761824Y-92281911D01*
X128764336Y-92301792D01*
X128781490Y-92345119D01*
X128783382Y-92350647D01*
X128796381Y-92395388D01*
X128806580Y-92412634D01*
X128815138Y-92430103D01*
X128822514Y-92448732D01*
X128849898Y-92486423D01*
X128853106Y-92491307D01*
X128876827Y-92531416D01*
X128876833Y-92531424D01*
X128890990Y-92545580D01*
X128903628Y-92560376D01*
X128915405Y-92576586D01*
X128915406Y-92576587D01*
X128951309Y-92606288D01*
X128955620Y-92610210D01*
X129406844Y-93061434D01*
X129838872Y-93493462D01*
X129872357Y-93554785D01*
X129867373Y-93624477D01*
X129825501Y-93680410D01*
X129760037Y-93704827D01*
X129701943Y-93694944D01*
X129687789Y-93688819D01*
X129682543Y-93686248D01*
X129641714Y-93663803D01*
X129641712Y-93663802D01*
X129622313Y-93658822D01*
X129603901Y-93652518D01*
X129585518Y-93644562D01*
X129585512Y-93644560D01*
X129539494Y-93637272D01*
X129533772Y-93636087D01*
X129488641Y-93624500D01*
X129488639Y-93624500D01*
X129468604Y-93624500D01*
X129449206Y-93622973D01*
X129441782Y-93621797D01*
X129429425Y-93619840D01*
X129429424Y-93619840D01*
X129383036Y-93624225D01*
X129377198Y-93624500D01*
X118502737Y-93624500D01*
X118487120Y-93622776D01*
X118487093Y-93623062D01*
X118479331Y-93622327D01*
X118410203Y-93624500D01*
X118380650Y-93624500D01*
X118379929Y-93624590D01*
X118373757Y-93625369D01*
X118367945Y-93625826D01*
X118321378Y-93627290D01*
X118321367Y-93627292D01*
X118302134Y-93632879D01*
X118283094Y-93636822D01*
X118263217Y-93639334D01*
X118263210Y-93639335D01*
X118263208Y-93639336D01*
X118263206Y-93639336D01*
X118263205Y-93639337D01*
X118219868Y-93656494D01*
X118214342Y-93658386D01*
X118169611Y-93671382D01*
X118169608Y-93671383D01*
X118152363Y-93681581D01*
X118134901Y-93690135D01*
X118116272Y-93697511D01*
X118116267Y-93697513D01*
X118078564Y-93724906D01*
X118073682Y-93728112D01*
X118033580Y-93751828D01*
X118019408Y-93766000D01*
X118004623Y-93778628D01*
X117988412Y-93790407D01*
X117958709Y-93826310D01*
X117954777Y-93830631D01*
X117757181Y-94028227D01*
X117695858Y-94061712D01*
X117626167Y-94056728D01*
X117570233Y-94014857D01*
X117545816Y-93949392D01*
X117545500Y-93940546D01*
X117545500Y-92890451D01*
X117565185Y-92823412D01*
X117581814Y-92802775D01*
X122507320Y-87877268D01*
X122568641Y-87843785D01*
X122638333Y-87848769D01*
X122694266Y-87890641D01*
X122711181Y-87921618D01*
X122756202Y-88042328D01*
X122756206Y-88042335D01*
X122842452Y-88157544D01*
X122842455Y-88157547D01*
X122957664Y-88243793D01*
X122957671Y-88243797D01*
X123092517Y-88294091D01*
X123092516Y-88294091D01*
X123099444Y-88294835D01*
X123152127Y-88300500D01*
X124847872Y-88300499D01*
X124907483Y-88294091D01*
X125042331Y-88243796D01*
X125157546Y-88157546D01*
X125243796Y-88042331D01*
X125294091Y-87907483D01*
X125300500Y-87847873D01*
X125300499Y-87847845D01*
X125300678Y-87844547D01*
X125302183Y-87844627D01*
X125320112Y-87783326D01*
X125372868Y-87737514D01*
X125416464Y-87729981D01*
X126102046Y-87044399D01*
X126114835Y-87125148D01*
X126172359Y-87238045D01*
X126261955Y-87327641D01*
X126374852Y-87385165D01*
X126455599Y-87397953D01*
X125774526Y-88079025D01*
X125774526Y-88079026D01*
X125847512Y-88130131D01*
X125847516Y-88130133D01*
X126053673Y-88226265D01*
X126053682Y-88226269D01*
X126273389Y-88285139D01*
X126273400Y-88285141D01*
X126499998Y-88304966D01*
X126500002Y-88304966D01*
X126726599Y-88285141D01*
X126726610Y-88285139D01*
X126946317Y-88226269D01*
X126946331Y-88226264D01*
X127152478Y-88130136D01*
X127225472Y-88079025D01*
X126544401Y-87397953D01*
X126625148Y-87385165D01*
X126738045Y-87327641D01*
X126827641Y-87238045D01*
X126885165Y-87125148D01*
X126897953Y-87044400D01*
X127579025Y-87725472D01*
X127630136Y-87652478D01*
X127726264Y-87446331D01*
X127726269Y-87446317D01*
X127785139Y-87226610D01*
X127785141Y-87226599D01*
X127804966Y-87000002D01*
X127804966Y-86999997D01*
X127785141Y-86773400D01*
X127785139Y-86773389D01*
X127726269Y-86553682D01*
X127726265Y-86553673D01*
X127630133Y-86347516D01*
X127630131Y-86347512D01*
X127579026Y-86274526D01*
X127579025Y-86274526D01*
X126897953Y-86955598D01*
X126885165Y-86874852D01*
X126827641Y-86761955D01*
X126738045Y-86672359D01*
X126625148Y-86614835D01*
X126544400Y-86602046D01*
X127225472Y-85920974D01*
X127225471Y-85920973D01*
X127152483Y-85869866D01*
X127152481Y-85869865D01*
X126946326Y-85773734D01*
X126946317Y-85773730D01*
X126726610Y-85714860D01*
X126726599Y-85714858D01*
X126500002Y-85695034D01*
X126499998Y-85695034D01*
X126273400Y-85714858D01*
X126273389Y-85714860D01*
X126053682Y-85773730D01*
X126053673Y-85773734D01*
X125847513Y-85869868D01*
X125774527Y-85920972D01*
X125774526Y-85920973D01*
X126455600Y-86602046D01*
X126374852Y-86614835D01*
X126261955Y-86672359D01*
X126172359Y-86761955D01*
X126114835Y-86874852D01*
X126102046Y-86955599D01*
X125415798Y-86269351D01*
X125366805Y-86259505D01*
X125316623Y-86210889D01*
X125301981Y-86155366D01*
X125300900Y-86155423D01*
X125300854Y-86155429D01*
X125300853Y-86155426D01*
X125300676Y-86155436D01*
X125300499Y-86152135D01*
X125300499Y-86152128D01*
X125294091Y-86092517D01*
X125289439Y-86080045D01*
X125243797Y-85957671D01*
X125243793Y-85957664D01*
X125157547Y-85842455D01*
X125157544Y-85842452D01*
X125042335Y-85756206D01*
X125042328Y-85756202D01*
X124907482Y-85705908D01*
X124907483Y-85705908D01*
X124847883Y-85699501D01*
X124847881Y-85699500D01*
X124847873Y-85699500D01*
X124847864Y-85699500D01*
X123152129Y-85699500D01*
X123152123Y-85699501D01*
X123092516Y-85705908D01*
X122957671Y-85756202D01*
X122957664Y-85756206D01*
X122842455Y-85842452D01*
X122842452Y-85842455D01*
X122756206Y-85957664D01*
X122756202Y-85957671D01*
X122705908Y-86092517D01*
X122702040Y-86128498D01*
X122699501Y-86152123D01*
X122699500Y-86152135D01*
X122699500Y-86249302D01*
X122679815Y-86316341D01*
X122627011Y-86362096D01*
X122563833Y-86372752D01*
X122559335Y-86372326D01*
X122490172Y-86374500D01*
X122460649Y-86374500D01*
X122453778Y-86375367D01*
X122447959Y-86375825D01*
X122401374Y-86377289D01*
X122401368Y-86377290D01*
X122382126Y-86382880D01*
X122363087Y-86386823D01*
X122343217Y-86389334D01*
X122343203Y-86389337D01*
X122299883Y-86406488D01*
X122294358Y-86408380D01*
X122249613Y-86421380D01*
X122249610Y-86421381D01*
X122232366Y-86431579D01*
X122214905Y-86440133D01*
X122196274Y-86447510D01*
X122196262Y-86447517D01*
X122158570Y-86474902D01*
X122153687Y-86478109D01*
X122113580Y-86501829D01*
X122099414Y-86515995D01*
X122084624Y-86528627D01*
X122068414Y-86540404D01*
X122068411Y-86540407D01*
X122038710Y-86576309D01*
X122034777Y-86580631D01*
X116536208Y-92079199D01*
X116523951Y-92089020D01*
X116524134Y-92089241D01*
X116518123Y-92094213D01*
X116470772Y-92144636D01*
X116449889Y-92165519D01*
X116449877Y-92165532D01*
X116445621Y-92171017D01*
X116441837Y-92175447D01*
X116409937Y-92209418D01*
X116409936Y-92209420D01*
X116400284Y-92226976D01*
X116389610Y-92243226D01*
X116377329Y-92259061D01*
X116377324Y-92259068D01*
X116358815Y-92301838D01*
X116356245Y-92307084D01*
X116333803Y-92347906D01*
X116328822Y-92367307D01*
X116322521Y-92385710D01*
X116314562Y-92404102D01*
X116314561Y-92404105D01*
X116307271Y-92450127D01*
X116306087Y-92455846D01*
X116294501Y-92500972D01*
X116294500Y-92500982D01*
X116294500Y-92521016D01*
X116292973Y-92540413D01*
X116289840Y-92560196D01*
X116293831Y-92602415D01*
X116294225Y-92606583D01*
X116294500Y-92612421D01*
X116294500Y-94314990D01*
X116274815Y-94382029D01*
X116229518Y-94424044D01*
X116122567Y-94481923D01*
X116122558Y-94481929D01*
X116006619Y-94572169D01*
X115932537Y-94629829D01*
X115932534Y-94629831D01*
X115932534Y-94629832D01*
X115769449Y-94806990D01*
X115637743Y-95008581D01*
X115541017Y-95229094D01*
X115481904Y-95462527D01*
X115475005Y-95545796D01*
X115467000Y-95642400D01*
X115467000Y-95857600D01*
X115469960Y-95893329D01*
X115481904Y-96037472D01*
X115541017Y-96270907D01*
X115542580Y-96274470D01*
X115551481Y-96343771D01*
X115521502Y-96406882D01*
X115462162Y-96443767D01*
X115429023Y-96448277D01*
X114341730Y-96448277D01*
X114274691Y-96428592D01*
X114254049Y-96411958D01*
X112536818Y-94694727D01*
X112503333Y-94633404D01*
X112500499Y-94607046D01*
X112500499Y-91977953D01*
X112520184Y-91910914D01*
X112536818Y-91890272D01*
X116090272Y-88336818D01*
X116151595Y-88303333D01*
X116177953Y-88300499D01*
X116665492Y-88300499D01*
X116665493Y-88300499D01*
X116725104Y-88294091D01*
X116859952Y-88243796D01*
X116975167Y-88157546D01*
X117061417Y-88042331D01*
X117111712Y-87907483D01*
X117118121Y-87847873D01*
X117118120Y-87847845D01*
X117118299Y-87844547D01*
X117119804Y-87844627D01*
X117137733Y-87783326D01*
X117190489Y-87737514D01*
X117234085Y-87729981D01*
X117919667Y-87044399D01*
X117932456Y-87125148D01*
X117989980Y-87238045D01*
X118079576Y-87327641D01*
X118192473Y-87385165D01*
X118273220Y-87397953D01*
X117592147Y-88079025D01*
X117592147Y-88079026D01*
X117665133Y-88130131D01*
X117665137Y-88130133D01*
X117871294Y-88226265D01*
X117871303Y-88226269D01*
X118091010Y-88285139D01*
X118091021Y-88285141D01*
X118317619Y-88304966D01*
X118317623Y-88304966D01*
X118544220Y-88285141D01*
X118544231Y-88285139D01*
X118763938Y-88226269D01*
X118763952Y-88226264D01*
X118970099Y-88130136D01*
X119043093Y-88079025D01*
X118362022Y-87397953D01*
X118442769Y-87385165D01*
X118555666Y-87327641D01*
X118645262Y-87238045D01*
X118702786Y-87125148D01*
X118715574Y-87044400D01*
X119396646Y-87725472D01*
X119447757Y-87652478D01*
X119543885Y-87446331D01*
X119543890Y-87446317D01*
X119602760Y-87226610D01*
X119602762Y-87226599D01*
X119622587Y-87000002D01*
X119622587Y-86999997D01*
X119602762Y-86773400D01*
X119602760Y-86773389D01*
X119543890Y-86553682D01*
X119543886Y-86553673D01*
X119447754Y-86347516D01*
X119447752Y-86347512D01*
X119396647Y-86274526D01*
X119396646Y-86274526D01*
X118715574Y-86955598D01*
X118702786Y-86874852D01*
X118645262Y-86761955D01*
X118555666Y-86672359D01*
X118442769Y-86614835D01*
X118362021Y-86602046D01*
X119043093Y-85920974D01*
X119043092Y-85920973D01*
X118970104Y-85869866D01*
X118970102Y-85869865D01*
X118763947Y-85773734D01*
X118763938Y-85773730D01*
X118544231Y-85714860D01*
X118544220Y-85714858D01*
X118317623Y-85695034D01*
X118317619Y-85695034D01*
X118091021Y-85714858D01*
X118091010Y-85714860D01*
X117871303Y-85773730D01*
X117871294Y-85773734D01*
X117665134Y-85869868D01*
X117592148Y-85920972D01*
X117592147Y-85920973D01*
X118273221Y-86602046D01*
X118192473Y-86614835D01*
X118079576Y-86672359D01*
X117989980Y-86761955D01*
X117932456Y-86874852D01*
X117919667Y-86955599D01*
X117233419Y-86269351D01*
X117184426Y-86259505D01*
X117134244Y-86210889D01*
X117119602Y-86155366D01*
X117118521Y-86155423D01*
X117118475Y-86155429D01*
X117118474Y-86155426D01*
X117118297Y-86155436D01*
X117118120Y-86152135D01*
X117118120Y-86152128D01*
X117111712Y-86092517D01*
X117107060Y-86080045D01*
X117061418Y-85957671D01*
X117061414Y-85957664D01*
X116975168Y-85842455D01*
X116975165Y-85842452D01*
X116859956Y-85756206D01*
X116859949Y-85756202D01*
X116725103Y-85705908D01*
X116725104Y-85705908D01*
X116665504Y-85699501D01*
X116665502Y-85699500D01*
X116665494Y-85699500D01*
X116665485Y-85699500D01*
X114969750Y-85699500D01*
X114969744Y-85699501D01*
X114910137Y-85705908D01*
X114775292Y-85756202D01*
X114775285Y-85756206D01*
X114660076Y-85842452D01*
X114660073Y-85842455D01*
X114573827Y-85957664D01*
X114573823Y-85957671D01*
X114523529Y-86092517D01*
X114519661Y-86128498D01*
X114517122Y-86152123D01*
X114517121Y-86152135D01*
X114517121Y-87847870D01*
X114517122Y-87847876D01*
X114523529Y-87907481D01*
X114523530Y-87907483D01*
X114557319Y-87998076D01*
X114562303Y-88067766D01*
X114528818Y-88129089D01*
X111652226Y-91005681D01*
X111590903Y-91039166D01*
X111564545Y-91042000D01*
X108452129Y-91042000D01*
X108452123Y-91042001D01*
X108392516Y-91048408D01*
X108257671Y-91098702D01*
X108257664Y-91098706D01*
X108142455Y-91184952D01*
X108142452Y-91184955D01*
X108056206Y-91300164D01*
X108056202Y-91300171D01*
X108005908Y-91435017D01*
X107999501Y-91494616D01*
X107999500Y-91494635D01*
X107999500Y-95090370D01*
X107999501Y-95090376D01*
X108005908Y-95149983D01*
X108056202Y-95284828D01*
X108056206Y-95284835D01*
X108142452Y-95400044D01*
X108142455Y-95400047D01*
X108257664Y-95486293D01*
X108257673Y-95486298D01*
X108304937Y-95503926D01*
X108360871Y-95545796D01*
X108385289Y-95611260D01*
X108370438Y-95679533D01*
X108321033Y-95728939D01*
X108255028Y-95743933D01*
X108218627Y-95742000D01*
X108218622Y-95742000D01*
X106281378Y-95742000D01*
X106281374Y-95742000D01*
X106228756Y-95744795D01*
X106228755Y-95744795D01*
X105998878Y-95789254D01*
X105998876Y-95789254D01*
X105998874Y-95789255D01*
X105924933Y-95817159D01*
X105779810Y-95871925D01*
X105577868Y-95990429D01*
X105577861Y-95990434D01*
X105398858Y-96141356D01*
X105398856Y-96141358D01*
X105247934Y-96320361D01*
X105247929Y-96320368D01*
X105129425Y-96522310D01*
X105082766Y-96645950D01*
X105046755Y-96741374D01*
X105046754Y-96741376D01*
X105046754Y-96741378D01*
X105002295Y-96971255D01*
X105002295Y-96971256D01*
X104999500Y-97023874D01*
X104999500Y-98961126D01*
X105002295Y-99013743D01*
X105002295Y-99013744D01*
X105017494Y-99092331D01*
X105046755Y-99243626D01*
X105081261Y-99335061D01*
X105129425Y-99462689D01*
X105247929Y-99664631D01*
X105247934Y-99664638D01*
X105358327Y-99795571D01*
X105386491Y-99859513D01*
X105375614Y-99928531D01*
X105329150Y-99980712D01*
X105263526Y-99999500D01*
X100124500Y-99999500D01*
X100057461Y-99979815D01*
X100011706Y-99927011D01*
X100000500Y-99875500D01*
X100000500Y-93042500D01*
X102250000Y-93042500D01*
X103750000Y-93042500D01*
X103750000Y-93542500D01*
X102250001Y-93542500D01*
X102250001Y-94356692D01*
X102260400Y-94488832D01*
X102315377Y-94707019D01*
X102408428Y-94911874D01*
X102408431Y-94911880D01*
X102536559Y-95096823D01*
X102536569Y-95096835D01*
X102695664Y-95255930D01*
X102695676Y-95255940D01*
X102880619Y-95384068D01*
X102880625Y-95384071D01*
X103085480Y-95477122D01*
X103303667Y-95532099D01*
X103435807Y-95542500D01*
X103999999Y-95542499D01*
X104000000Y-95542498D01*
X104000000Y-94726186D01*
X104040156Y-94751993D01*
X104178111Y-94792500D01*
X104321889Y-94792500D01*
X104459844Y-94751993D01*
X104500000Y-94726186D01*
X104500000Y-95542499D01*
X105064192Y-95542499D01*
X105196332Y-95532099D01*
X105414519Y-95477122D01*
X105619374Y-95384071D01*
X105619380Y-95384068D01*
X105804323Y-95255940D01*
X105804335Y-95255930D01*
X105963430Y-95096835D01*
X105963440Y-95096823D01*
X106091568Y-94911880D01*
X106091571Y-94911874D01*
X106184622Y-94707019D01*
X106239599Y-94488832D01*
X106250000Y-94356694D01*
X106250000Y-93542500D01*
X104750000Y-93542500D01*
X104750000Y-93042500D01*
X106249999Y-93042500D01*
X106249999Y-92228308D01*
X106239599Y-92096167D01*
X106184622Y-91877980D01*
X106091571Y-91673125D01*
X106091568Y-91673119D01*
X105963440Y-91488176D01*
X105963430Y-91488164D01*
X105804335Y-91329069D01*
X105804323Y-91329059D01*
X105619380Y-91200931D01*
X105619374Y-91200928D01*
X105414519Y-91107877D01*
X105196332Y-91052900D01*
X105064194Y-91042500D01*
X104500000Y-91042500D01*
X104500000Y-91858813D01*
X104459844Y-91833007D01*
X104321889Y-91792500D01*
X104178111Y-91792500D01*
X104040156Y-91833007D01*
X104000000Y-91858813D01*
X104000000Y-91042500D01*
X103999999Y-91042500D01*
X103435808Y-91042501D01*
X103303667Y-91052900D01*
X103085480Y-91107877D01*
X102880625Y-91200928D01*
X102880619Y-91200931D01*
X102695676Y-91329059D01*
X102695664Y-91329069D01*
X102536569Y-91488164D01*
X102536559Y-91488176D01*
X102408431Y-91673119D01*
X102408428Y-91673125D01*
X102315377Y-91877980D01*
X102260400Y-92096167D01*
X102250000Y-92228306D01*
X102250000Y-93042500D01*
X100000500Y-93042500D01*
X100000500Y-75675940D01*
X100020185Y-75608901D01*
X100072989Y-75563146D01*
X100142147Y-75553202D01*
X100205703Y-75582227D01*
X100215725Y-75591953D01*
X100230256Y-75607738D01*
X100426491Y-75760474D01*
X100645190Y-75878828D01*
X100880386Y-75959571D01*
X101125665Y-76000500D01*
X101374335Y-76000500D01*
X101619614Y-75959571D01*
X101854810Y-75878828D01*
X102073509Y-75760474D01*
X102269744Y-75607738D01*
X102438164Y-75424785D01*
X102574173Y-75216607D01*
X102674063Y-74988881D01*
X102735108Y-74747821D01*
X102735135Y-74747501D01*
X102735818Y-74739259D01*
X102760972Y-74674074D01*
X102817374Y-74632837D01*
X102859394Y-74625500D01*
X106140606Y-74625500D01*
X106207645Y-74645185D01*
X106253400Y-74697989D01*
X106264182Y-74739259D01*
X106264890Y-74747813D01*
X106264892Y-74747824D01*
X106325936Y-74988881D01*
X106425826Y-75216606D01*
X106561833Y-75424782D01*
X106575439Y-75439562D01*
X106730256Y-75607738D01*
X106926491Y-75760474D01*
X107145190Y-75878828D01*
X107380386Y-75959571D01*
X107625665Y-76000500D01*
X107874335Y-76000500D01*
X108119614Y-75959571D01*
X108354810Y-75878828D01*
X108573509Y-75760474D01*
X108769744Y-75607738D01*
X108938164Y-75424785D01*
X109074173Y-75216607D01*
X109174063Y-74988881D01*
X109235108Y-74747821D01*
X109235135Y-74747501D01*
X109255643Y-74500005D01*
X109255643Y-74499994D01*
X109235109Y-74252187D01*
X109235107Y-74252175D01*
X109233585Y-74246168D01*
X109174063Y-74011119D01*
X109116442Y-73879758D01*
X109107540Y-73810462D01*
X109137517Y-73747350D01*
X109142300Y-73742288D01*
X111462453Y-71422136D01*
X111523774Y-71388653D01*
X111593466Y-71393637D01*
X111649399Y-71435509D01*
X111673816Y-71500973D01*
X111673660Y-71520625D01*
X111669341Y-71569996D01*
X111669341Y-71570000D01*
X111689936Y-71805403D01*
X111689938Y-71805413D01*
X111751094Y-72033655D01*
X111751096Y-72033659D01*
X111751097Y-72033663D01*
X111827028Y-72196497D01*
X111850965Y-72247830D01*
X111850967Y-72247834D01*
X111943512Y-72380001D01*
X111986505Y-72441401D01*
X112153599Y-72608495D01*
X112250384Y-72676265D01*
X112347165Y-72744032D01*
X112347167Y-72744033D01*
X112347170Y-72744035D01*
X112561337Y-72843903D01*
X112789592Y-72905063D01*
X112960216Y-72919991D01*
X113024999Y-72925659D01*
X113025000Y-72925659D01*
X113025001Y-72925659D01*
X113064234Y-72922226D01*
X113260408Y-72905063D01*
X113488663Y-72843903D01*
X113702830Y-72744035D01*
X113896401Y-72608495D01*
X114063495Y-72441401D01*
X114199035Y-72247830D01*
X114298903Y-72033663D01*
X114360063Y-71805408D01*
X114380659Y-71570000D01*
X114360063Y-71334592D01*
X114338290Y-71253334D01*
X114333143Y-71234125D01*
X114334806Y-71164276D01*
X114365235Y-71114353D01*
X115337772Y-70141819D01*
X115399095Y-70108334D01*
X115425453Y-70105500D01*
X120210546Y-70105500D01*
X120277585Y-70125185D01*
X120323340Y-70177989D01*
X120333284Y-70247147D01*
X120304259Y-70310703D01*
X120298240Y-70317167D01*
X120230553Y-70384855D01*
X120164821Y-70450587D01*
X120103498Y-70484071D01*
X120045048Y-70482680D01*
X119976697Y-70464366D01*
X119976693Y-70464365D01*
X119976692Y-70464365D01*
X119863346Y-70454448D01*
X119750001Y-70444532D01*
X119749998Y-70444532D01*
X119523313Y-70464364D01*
X119523302Y-70464366D01*
X119303511Y-70523258D01*
X119303502Y-70523261D01*
X119097267Y-70619431D01*
X119097265Y-70619432D01*
X118910858Y-70749954D01*
X118749954Y-70910858D01*
X118619433Y-71097264D01*
X118619432Y-71097266D01*
X118612380Y-71112387D01*
X118566209Y-71164825D01*
X118499015Y-71183976D01*
X118432134Y-71163760D01*
X118387619Y-71112387D01*
X118380568Y-71097266D01*
X118252945Y-70915000D01*
X118250045Y-70910858D01*
X118089141Y-70749954D01*
X117902734Y-70619432D01*
X117902732Y-70619431D01*
X117696497Y-70523261D01*
X117696488Y-70523258D01*
X117476697Y-70464366D01*
X117476693Y-70464365D01*
X117476692Y-70464365D01*
X117476691Y-70464364D01*
X117476686Y-70464364D01*
X117250002Y-70444532D01*
X117249998Y-70444532D01*
X117023313Y-70464364D01*
X117023302Y-70464366D01*
X116803511Y-70523258D01*
X116803502Y-70523261D01*
X116597267Y-70619431D01*
X116597265Y-70619432D01*
X116410858Y-70749954D01*
X116249954Y-70910858D01*
X116119432Y-71097265D01*
X116119431Y-71097267D01*
X116023261Y-71303502D01*
X116023258Y-71303511D01*
X115964366Y-71523302D01*
X115964364Y-71523313D01*
X115944532Y-71749998D01*
X115944532Y-71750001D01*
X115964364Y-71976686D01*
X115964366Y-71976697D01*
X116023258Y-72196488D01*
X116023261Y-72196497D01*
X116119431Y-72402732D01*
X116119432Y-72402734D01*
X116249954Y-72589141D01*
X116410858Y-72750045D01*
X116571623Y-72862613D01*
X116615248Y-72917189D01*
X116624500Y-72964188D01*
X116624500Y-74667255D01*
X116622775Y-74682872D01*
X116623061Y-74682899D01*
X116622326Y-74690665D01*
X116624500Y-74759814D01*
X116624500Y-74789343D01*
X116624501Y-74789360D01*
X116625368Y-74796231D01*
X116625826Y-74802050D01*
X116627290Y-74848624D01*
X116627291Y-74848627D01*
X116632880Y-74867867D01*
X116636824Y-74886911D01*
X116639336Y-74906792D01*
X116644566Y-74920001D01*
X116656490Y-74950119D01*
X116658382Y-74955647D01*
X116671381Y-75000388D01*
X116681580Y-75017634D01*
X116690136Y-75035100D01*
X116697514Y-75053732D01*
X116724898Y-75091423D01*
X116728106Y-75096307D01*
X116751827Y-75136416D01*
X116751833Y-75136424D01*
X116765990Y-75150580D01*
X116778628Y-75165376D01*
X116790405Y-75181586D01*
X116790406Y-75181587D01*
X116826309Y-75211288D01*
X116830620Y-75215210D01*
X117610409Y-75994999D01*
X118380180Y-76764770D01*
X118413665Y-76826093D01*
X118408681Y-76895785D01*
X118366809Y-76951718D01*
X118363623Y-76954025D01*
X118243122Y-77038401D01*
X118088402Y-77193121D01*
X117962900Y-77372357D01*
X117962898Y-77372361D01*
X117870426Y-77570668D01*
X117870422Y-77570677D01*
X117813793Y-77782020D01*
X117813793Y-77782024D01*
X117794723Y-77999997D01*
X117794723Y-78000002D01*
X117813793Y-78217975D01*
X117813793Y-78217979D01*
X117870422Y-78429322D01*
X117870424Y-78429326D01*
X117870425Y-78429330D01*
X117884748Y-78460045D01*
X117962897Y-78627638D01*
X117962898Y-78627639D01*
X118088402Y-78806877D01*
X118243123Y-78961598D01*
X118422361Y-79087102D01*
X118620670Y-79179575D01*
X118832023Y-79236207D01*
X119014926Y-79252208D01*
X119049998Y-79255277D01*
X119050000Y-79255277D01*
X119050002Y-79255277D01*
X119078254Y-79252805D01*
X119267977Y-79236207D01*
X119479330Y-79179575D01*
X119677639Y-79087102D01*
X119856877Y-78961598D01*
X120011598Y-78806877D01*
X120137102Y-78627639D01*
X120229575Y-78429330D01*
X120286207Y-78217977D01*
X120305277Y-78000000D01*
X120286207Y-77782023D01*
X120229575Y-77570670D01*
X120137102Y-77372362D01*
X120137100Y-77372359D01*
X120137099Y-77372357D01*
X120011599Y-77193124D01*
X119981900Y-77163425D01*
X119856877Y-77038402D01*
X119728375Y-76948423D01*
X119684751Y-76893847D01*
X119675500Y-76846850D01*
X119675500Y-76632737D01*
X119677224Y-76617123D01*
X119676938Y-76617096D01*
X119677672Y-76609333D01*
X119675500Y-76540202D01*
X119675500Y-76510651D01*
X119675500Y-76510650D01*
X119674629Y-76503759D01*
X119674172Y-76497945D01*
X119672709Y-76451374D01*
X119672709Y-76451372D01*
X119667120Y-76432137D01*
X119663174Y-76413084D01*
X119660664Y-76393208D01*
X119643501Y-76349859D01*
X119641614Y-76344346D01*
X119639052Y-76335529D01*
X119628617Y-76299610D01*
X119618421Y-76282369D01*
X119609860Y-76264893D01*
X119602486Y-76246269D01*
X119602486Y-76246267D01*
X119590959Y-76230403D01*
X119575083Y-76208550D01*
X119571900Y-76203705D01*
X119548170Y-76163579D01*
X119548165Y-76163573D01*
X119534005Y-76149413D01*
X119521370Y-76134620D01*
X119509593Y-76118412D01*
X119473693Y-76088713D01*
X119469381Y-76084790D01*
X117911819Y-74527228D01*
X117878334Y-74465905D01*
X117875500Y-74439547D01*
X117875500Y-72964188D01*
X117895185Y-72897149D01*
X117928377Y-72862613D01*
X117979956Y-72826497D01*
X118089139Y-72750047D01*
X118250047Y-72589139D01*
X118380568Y-72402734D01*
X118387618Y-72387614D01*
X118433789Y-72335176D01*
X118500982Y-72316023D01*
X118567864Y-72336238D01*
X118612381Y-72387614D01*
X118619432Y-72402733D01*
X118619432Y-72402734D01*
X118749954Y-72589141D01*
X118910858Y-72750045D01*
X118910861Y-72750047D01*
X119097266Y-72880568D01*
X119303504Y-72976739D01*
X119303509Y-72976740D01*
X119303511Y-72976741D01*
X119329210Y-72983627D01*
X119523308Y-73035635D01*
X119685230Y-73049801D01*
X119749998Y-73055468D01*
X119750000Y-73055468D01*
X119750002Y-73055468D01*
X119808693Y-73050333D01*
X119976692Y-73035635D01*
X120196496Y-72976739D01*
X120402734Y-72880568D01*
X120589139Y-72750047D01*
X120750047Y-72589139D01*
X120880568Y-72402734D01*
X120976739Y-72196496D01*
X121035635Y-71976692D01*
X121055468Y-71750000D01*
X121055097Y-71745764D01*
X121043047Y-71608030D01*
X121035635Y-71523308D01*
X121017319Y-71454951D01*
X121018982Y-71385103D01*
X121049414Y-71335177D01*
X121097774Y-71286818D01*
X121159097Y-71253334D01*
X121185454Y-71250500D01*
X121875863Y-71250500D01*
X121942902Y-71270185D01*
X121988657Y-71322989D01*
X121998601Y-71392147D01*
X121995638Y-71406593D01*
X121964366Y-71523302D01*
X121964364Y-71523313D01*
X121944532Y-71749998D01*
X121944532Y-71750001D01*
X121964364Y-71976686D01*
X121964366Y-71976697D01*
X122023258Y-72196488D01*
X122023261Y-72196497D01*
X122119431Y-72402732D01*
X122119432Y-72402734D01*
X122249954Y-72589141D01*
X122410858Y-72750045D01*
X122410861Y-72750047D01*
X122597266Y-72880568D01*
X122803504Y-72976739D01*
X122803509Y-72976740D01*
X122803511Y-72976741D01*
X122829210Y-72983627D01*
X123023308Y-73035635D01*
X123191307Y-73050333D01*
X123256376Y-73075785D01*
X123297355Y-73132376D01*
X123304500Y-73173861D01*
X123304500Y-76846850D01*
X123284815Y-76913889D01*
X123251623Y-76948425D01*
X123123121Y-77038402D01*
X122968402Y-77193121D01*
X122842900Y-77372357D01*
X122842898Y-77372361D01*
X122750426Y-77570668D01*
X122750422Y-77570677D01*
X122693793Y-77782020D01*
X122693793Y-77782024D01*
X122674723Y-77999997D01*
X122674723Y-78000002D01*
X122693793Y-78217975D01*
X122693793Y-78217979D01*
X122750422Y-78429322D01*
X122750424Y-78429326D01*
X122750425Y-78429330D01*
X122764748Y-78460045D01*
X122842897Y-78627638D01*
X122842898Y-78627639D01*
X122968402Y-78806877D01*
X123123123Y-78961598D01*
X123302361Y-79087102D01*
X123500670Y-79179575D01*
X123712023Y-79236207D01*
X123894926Y-79252208D01*
X123929998Y-79255277D01*
X123930000Y-79255277D01*
X123930002Y-79255277D01*
X123958254Y-79252805D01*
X124147977Y-79236207D01*
X124359330Y-79179575D01*
X124557639Y-79087102D01*
X124736877Y-78961598D01*
X124891598Y-78806877D01*
X125017102Y-78627639D01*
X125109575Y-78429330D01*
X125166207Y-78217977D01*
X125185277Y-78000000D01*
X125166207Y-77782023D01*
X125109575Y-77570670D01*
X125017102Y-77372362D01*
X125017100Y-77372359D01*
X125017099Y-77372357D01*
X124891599Y-77193124D01*
X124861900Y-77163425D01*
X124736877Y-77038402D01*
X124608375Y-76948423D01*
X124564751Y-76893847D01*
X124555500Y-76846850D01*
X124555500Y-72694049D01*
X124575185Y-72627010D01*
X124627989Y-72581255D01*
X124697147Y-72571311D01*
X124760703Y-72600336D01*
X124767181Y-72606368D01*
X124910858Y-72750045D01*
X124910861Y-72750047D01*
X125097266Y-72880568D01*
X125303504Y-72976739D01*
X125303509Y-72976740D01*
X125303511Y-72976741D01*
X125329210Y-72983627D01*
X125523308Y-73035635D01*
X125685230Y-73049801D01*
X125749998Y-73055468D01*
X125750000Y-73055468D01*
X125750002Y-73055468D01*
X125808693Y-73050333D01*
X125976692Y-73035635D01*
X126196496Y-72976739D01*
X126402734Y-72880568D01*
X126589139Y-72750047D01*
X126750047Y-72589139D01*
X126880568Y-72402734D01*
X126976739Y-72196496D01*
X127035635Y-71976692D01*
X127055468Y-71750000D01*
X127055097Y-71745764D01*
X127043047Y-71608030D01*
X127035635Y-71523308D01*
X126976739Y-71303504D01*
X126880568Y-71097266D01*
X126752945Y-70915000D01*
X126750045Y-70910858D01*
X126589141Y-70749954D01*
X126402734Y-70619432D01*
X126402732Y-70619431D01*
X126196497Y-70523261D01*
X126196488Y-70523258D01*
X125976697Y-70464366D01*
X125976693Y-70464365D01*
X125976692Y-70464365D01*
X125976691Y-70464364D01*
X125976686Y-70464364D01*
X125750002Y-70444532D01*
X125749999Y-70444532D01*
X125523313Y-70464364D01*
X125523296Y-70464367D01*
X125454949Y-70482680D01*
X125385099Y-70481016D01*
X125335177Y-70450586D01*
X125125803Y-70241212D01*
X125115980Y-70228950D01*
X125115759Y-70229134D01*
X125110786Y-70223123D01*
X125060364Y-70175773D01*
X125049919Y-70165328D01*
X125039475Y-70154883D01*
X125033986Y-70150625D01*
X125029561Y-70146847D01*
X124995582Y-70114938D01*
X124995580Y-70114936D01*
X124995577Y-70114935D01*
X124978029Y-70105288D01*
X124961763Y-70094604D01*
X124945933Y-70082325D01*
X124903168Y-70063818D01*
X124897922Y-70061248D01*
X124857093Y-70038803D01*
X124857092Y-70038802D01*
X124837693Y-70033822D01*
X124819281Y-70027518D01*
X124800898Y-70019562D01*
X124800892Y-70019560D01*
X124754874Y-70012272D01*
X124749152Y-70011087D01*
X124704021Y-69999500D01*
X124704019Y-69999500D01*
X124683984Y-69999500D01*
X124664586Y-69997973D01*
X124657162Y-69996797D01*
X124644805Y-69994840D01*
X124644804Y-69994840D01*
X124598416Y-69999225D01*
X124592578Y-69999500D01*
X124449451Y-69999500D01*
X124382412Y-69979815D01*
X124336657Y-69927011D01*
X124326713Y-69857853D01*
X124355738Y-69794297D01*
X124361770Y-69787819D01*
X125849544Y-68300045D01*
X127516480Y-66633108D01*
X127577801Y-66599625D01*
X127644420Y-66603509D01*
X127670019Y-66612298D01*
X127898951Y-66650500D01*
X127898952Y-66650500D01*
X128131048Y-66650500D01*
X128131049Y-66650500D01*
X128359981Y-66612298D01*
X128579503Y-66536936D01*
X128579510Y-66536932D01*
X128579513Y-66536931D01*
X128688287Y-66478065D01*
X128756615Y-66463469D01*
X128821987Y-66488131D01*
G37*
%TD.AperFunction*%
%TA.AperFunction,Conductor*%
G36*
X111631585Y-95562684D02*
G01*
X111652227Y-95579318D01*
X113530474Y-97457565D01*
X113540299Y-97469828D01*
X113540520Y-97469646D01*
X113545491Y-97475655D01*
X113566320Y-97495214D01*
X113595912Y-97523003D01*
X113616806Y-97543897D01*
X113622288Y-97548150D01*
X113626720Y-97551934D01*
X113660695Y-97583839D01*
X113678253Y-97593491D01*
X113694512Y-97604172D01*
X113710341Y-97616450D01*
X113753115Y-97634959D01*
X113758333Y-97637515D01*
X113799185Y-97659974D01*
X113818593Y-97664957D01*
X113836994Y-97671257D01*
X113855381Y-97679214D01*
X113898765Y-97686085D01*
X113901396Y-97686502D01*
X113907116Y-97687686D01*
X113952258Y-97699277D01*
X113972293Y-97699277D01*
X113991691Y-97700803D01*
X114011471Y-97703936D01*
X114011472Y-97703937D01*
X114011472Y-97703936D01*
X114011473Y-97703937D01*
X114057861Y-97699552D01*
X114063699Y-97699277D01*
X120593480Y-97699277D01*
X120609100Y-97701001D01*
X120609127Y-97700716D01*
X120616883Y-97701448D01*
X120616890Y-97701450D01*
X120686037Y-97699277D01*
X120715573Y-97699277D01*
X120722451Y-97698407D01*
X120728264Y-97697949D01*
X120774850Y-97696486D01*
X120794092Y-97690894D01*
X120813135Y-97686951D01*
X120833015Y-97684441D01*
X120876345Y-97667284D01*
X120881869Y-97665394D01*
X120885619Y-97664304D01*
X120926613Y-97652395D01*
X120943852Y-97642199D01*
X120961326Y-97633639D01*
X120979950Y-97626265D01*
X120979950Y-97626264D01*
X120979955Y-97626263D01*
X121017672Y-97598859D01*
X121022528Y-97595669D01*
X121062643Y-97571947D01*
X121076812Y-97557776D01*
X121091602Y-97545145D01*
X121107810Y-97533371D01*
X121137522Y-97497453D01*
X121141435Y-97493153D01*
X121347771Y-97286818D01*
X121409094Y-97253333D01*
X121435452Y-97250499D01*
X122564546Y-97250499D01*
X122631585Y-97270184D01*
X122652227Y-97286818D01*
X124999197Y-99633788D01*
X125009022Y-99646051D01*
X125009243Y-99645869D01*
X125014214Y-99651878D01*
X125040217Y-99676295D01*
X125064635Y-99699226D01*
X125085529Y-99720120D01*
X125091011Y-99724373D01*
X125095443Y-99728157D01*
X125129418Y-99760062D01*
X125129420Y-99760063D01*
X125141744Y-99766838D01*
X125191008Y-99816385D01*
X125205664Y-99884700D01*
X125181060Y-99950094D01*
X125125007Y-99991805D01*
X125082006Y-99999500D01*
X109236474Y-99999500D01*
X109169435Y-99979815D01*
X109123680Y-99927011D01*
X109113736Y-99857853D01*
X109141673Y-99795571D01*
X109252065Y-99664638D01*
X109252065Y-99664637D01*
X109252070Y-99664632D01*
X109370574Y-99462690D01*
X109453245Y-99243626D01*
X109497705Y-99013741D01*
X109500500Y-98961122D01*
X109500500Y-97023878D01*
X109497705Y-96971259D01*
X109453245Y-96741374D01*
X109370574Y-96522310D01*
X109252070Y-96320368D01*
X109252065Y-96320361D01*
X109101143Y-96141358D01*
X109101141Y-96141356D01*
X108922138Y-95990434D01*
X108922131Y-95990429D01*
X108720189Y-95871925D01*
X108607893Y-95829547D01*
X108501126Y-95789255D01*
X108501121Y-95789254D01*
X108501116Y-95789252D01*
X108498470Y-95788740D01*
X108497451Y-95788213D01*
X108496050Y-95787817D01*
X108496130Y-95787531D01*
X108436392Y-95756677D01*
X108401503Y-95696141D01*
X108404881Y-95626353D01*
X108445452Y-95569470D01*
X108510337Y-95543552D01*
X108522009Y-95542999D01*
X111564546Y-95542999D01*
X111631585Y-95562684D01*
G37*
%TD.AperFunction*%
%TA.AperFunction,Conductor*%
G36*
X149942539Y-50020185D02*
G01*
X149988294Y-50072989D01*
X149999500Y-50124500D01*
X149999500Y-99875500D01*
X149979815Y-99942539D01*
X149927011Y-99988294D01*
X149875500Y-99999500D01*
X130664197Y-99999500D01*
X130597158Y-99979815D01*
X130551403Y-99927011D01*
X130541459Y-99857853D01*
X130570484Y-99794297D01*
X130591302Y-99775189D01*
X130592369Y-99774414D01*
X130600193Y-99768729D01*
X130603382Y-99766560D01*
X130651877Y-99735786D01*
X130657466Y-99729833D01*
X130674979Y-99714394D01*
X130681587Y-99709594D01*
X130718190Y-99665347D01*
X130720736Y-99662457D01*
X130760062Y-99620582D01*
X130763998Y-99613421D01*
X130777119Y-99594114D01*
X130782324Y-99587823D01*
X130806769Y-99535874D01*
X130808528Y-99532419D01*
X130836197Y-99482092D01*
X130838227Y-99474181D01*
X130846135Y-99452218D01*
X130849614Y-99444826D01*
X130849614Y-99444823D01*
X130852026Y-99437403D01*
X130855000Y-99438369D01*
X130880293Y-99389091D01*
X130940739Y-99354047D01*
X130970190Y-99350499D01*
X131897871Y-99350499D01*
X131897872Y-99350499D01*
X131957483Y-99344091D01*
X132092331Y-99293796D01*
X132207546Y-99207546D01*
X132293796Y-99092331D01*
X132342810Y-98960916D01*
X132384681Y-98904984D01*
X132450145Y-98880566D01*
X132518418Y-98895417D01*
X132546673Y-98916569D01*
X132668599Y-99038495D01*
X132765384Y-99106265D01*
X132862165Y-99174032D01*
X132862167Y-99174033D01*
X132862170Y-99174035D01*
X133076337Y-99273903D01*
X133304592Y-99335063D01*
X133492918Y-99351539D01*
X133539999Y-99355659D01*
X133540000Y-99355659D01*
X133540001Y-99355659D01*
X133579234Y-99352226D01*
X133775408Y-99335063D01*
X134003663Y-99273903D01*
X134217830Y-99174035D01*
X134411401Y-99038495D01*
X134578495Y-98871401D01*
X134708425Y-98685842D01*
X134763002Y-98642217D01*
X134832500Y-98635023D01*
X134894855Y-98666546D01*
X134911575Y-98685842D01*
X135041281Y-98871082D01*
X135041505Y-98871401D01*
X135208599Y-99038495D01*
X135305384Y-99106265D01*
X135402165Y-99174032D01*
X135402167Y-99174033D01*
X135402170Y-99174035D01*
X135616337Y-99273903D01*
X135844592Y-99335063D01*
X136032918Y-99351539D01*
X136079999Y-99355659D01*
X136080000Y-99355659D01*
X136080001Y-99355659D01*
X136119234Y-99352226D01*
X136315408Y-99335063D01*
X136543663Y-99273903D01*
X136757830Y-99174035D01*
X136951401Y-99038495D01*
X137118495Y-98871401D01*
X137248425Y-98685842D01*
X137303002Y-98642217D01*
X137372500Y-98635023D01*
X137434855Y-98666546D01*
X137451575Y-98685842D01*
X137581281Y-98871082D01*
X137581505Y-98871401D01*
X137748599Y-99038495D01*
X137845384Y-99106265D01*
X137942165Y-99174032D01*
X137942167Y-99174033D01*
X137942170Y-99174035D01*
X138156337Y-99273903D01*
X138384592Y-99335063D01*
X138572918Y-99351539D01*
X138619999Y-99355659D01*
X138620000Y-99355659D01*
X138620001Y-99355659D01*
X138659234Y-99352226D01*
X138855408Y-99335063D01*
X139083663Y-99273903D01*
X139297830Y-99174035D01*
X139491401Y-99038495D01*
X139658495Y-98871401D01*
X139788730Y-98685405D01*
X139843307Y-98641781D01*
X139912805Y-98634587D01*
X139975160Y-98666110D01*
X139991879Y-98685405D01*
X140121890Y-98871078D01*
X140288917Y-99038105D01*
X140482421Y-99173600D01*
X140696507Y-99273429D01*
X140696516Y-99273433D01*
X140910000Y-99330634D01*
X140910000Y-98435501D01*
X141017685Y-98484680D01*
X141124237Y-98500000D01*
X141195763Y-98500000D01*
X141302315Y-98484680D01*
X141410000Y-98435501D01*
X141410000Y-99330633D01*
X141623483Y-99273433D01*
X141623492Y-99273429D01*
X141837578Y-99173600D01*
X142031082Y-99038105D01*
X142198105Y-98871082D01*
X142328425Y-98684968D01*
X142383002Y-98641344D01*
X142452501Y-98634151D01*
X142514855Y-98665673D01*
X142531575Y-98684968D01*
X142661894Y-98871082D01*
X142828917Y-99038105D01*
X143022421Y-99173600D01*
X143236507Y-99273429D01*
X143236516Y-99273433D01*
X143450000Y-99330634D01*
X143450000Y-98435501D01*
X143557685Y-98484680D01*
X143664237Y-98500000D01*
X143735763Y-98500000D01*
X143842315Y-98484680D01*
X143950000Y-98435501D01*
X143950000Y-99330633D01*
X144163483Y-99273433D01*
X144163492Y-99273429D01*
X144377578Y-99173600D01*
X144571082Y-99038105D01*
X144738105Y-98871082D01*
X144873600Y-98677578D01*
X144973429Y-98463492D01*
X144973432Y-98463486D01*
X145030636Y-98250000D01*
X144133686Y-98250000D01*
X144159493Y-98209844D01*
X144200000Y-98071889D01*
X144200000Y-97928111D01*
X144159493Y-97790156D01*
X144133686Y-97750000D01*
X145030636Y-97750000D01*
X145030635Y-97749999D01*
X144973432Y-97536513D01*
X144973429Y-97536507D01*
X144873600Y-97322422D01*
X144873599Y-97322420D01*
X144738113Y-97128926D01*
X144738108Y-97128920D01*
X144571082Y-96961894D01*
X144377578Y-96826399D01*
X144163492Y-96726570D01*
X144163486Y-96726567D01*
X143950000Y-96669364D01*
X143950000Y-97564498D01*
X143842315Y-97515320D01*
X143735763Y-97500000D01*
X143664237Y-97500000D01*
X143557685Y-97515320D01*
X143450000Y-97564498D01*
X143450000Y-96669364D01*
X143449999Y-96669364D01*
X143236513Y-96726567D01*
X143236507Y-96726570D01*
X143022422Y-96826399D01*
X143022420Y-96826400D01*
X142828926Y-96961886D01*
X142828920Y-96961891D01*
X142661891Y-97128920D01*
X142661890Y-97128922D01*
X142531575Y-97315031D01*
X142476998Y-97358655D01*
X142407499Y-97365848D01*
X142345145Y-97334326D01*
X142328425Y-97315031D01*
X142198109Y-97128922D01*
X142198108Y-97128920D01*
X142031082Y-96961894D01*
X141837578Y-96826399D01*
X141623492Y-96726570D01*
X141623486Y-96726567D01*
X141410000Y-96669364D01*
X141410000Y-97564498D01*
X141302315Y-97515320D01*
X141195763Y-97500000D01*
X141124237Y-97500000D01*
X141017685Y-97515320D01*
X140910000Y-97564498D01*
X140910000Y-96645950D01*
X140929685Y-96578911D01*
X140946313Y-96558276D01*
X142370590Y-95133999D01*
X142385379Y-95121368D01*
X142401587Y-95109594D01*
X142431280Y-95073698D01*
X142435218Y-95069372D01*
X142440109Y-95064482D01*
X142440109Y-95064481D01*
X142440120Y-95064471D01*
X142458227Y-95041126D01*
X142502324Y-94987823D01*
X142502326Y-94987818D01*
X142506506Y-94981233D01*
X142506750Y-94981388D01*
X142508947Y-94977803D01*
X142508699Y-94977657D01*
X142512669Y-94970942D01*
X142512669Y-94970940D01*
X142512673Y-94970936D01*
X142540152Y-94907434D01*
X142545201Y-94896703D01*
X142591556Y-94844426D01*
X142657400Y-94825500D01*
X143967257Y-94825500D01*
X143982877Y-94827224D01*
X143982904Y-94826939D01*
X143990660Y-94827671D01*
X143990667Y-94827673D01*
X144059814Y-94825500D01*
X144089350Y-94825500D01*
X144096228Y-94824630D01*
X144102041Y-94824172D01*
X144148627Y-94822709D01*
X144167869Y-94817117D01*
X144186912Y-94813174D01*
X144206792Y-94810664D01*
X144250122Y-94793507D01*
X144255646Y-94791617D01*
X144259396Y-94790527D01*
X144300390Y-94778618D01*
X144317629Y-94768422D01*
X144335103Y-94759862D01*
X144353727Y-94752488D01*
X144353727Y-94752487D01*
X144353732Y-94752486D01*
X144391449Y-94725082D01*
X144396305Y-94721892D01*
X144436420Y-94698170D01*
X144450589Y-94683999D01*
X144465379Y-94671368D01*
X144481587Y-94659594D01*
X144511299Y-94623676D01*
X144515212Y-94619376D01*
X144662822Y-94471767D01*
X144724142Y-94438285D01*
X144793834Y-94443269D01*
X144849767Y-94485141D01*
X144874184Y-94550605D01*
X144874500Y-94559451D01*
X144874500Y-96057255D01*
X144872775Y-96072872D01*
X144873061Y-96072899D01*
X144872326Y-96080665D01*
X144874500Y-96149814D01*
X144874500Y-96179343D01*
X144874501Y-96179360D01*
X144875368Y-96186231D01*
X144875826Y-96192050D01*
X144877290Y-96238624D01*
X144877291Y-96238627D01*
X144882880Y-96257867D01*
X144886824Y-96276911D01*
X144889336Y-96296792D01*
X144898670Y-96320368D01*
X144906490Y-96340119D01*
X144908382Y-96345647D01*
X144921381Y-96390388D01*
X144931580Y-96407634D01*
X144940138Y-96425103D01*
X144947514Y-96443732D01*
X144974898Y-96481423D01*
X144978106Y-96486307D01*
X145001827Y-96526416D01*
X145001833Y-96526424D01*
X145015990Y-96540580D01*
X145028628Y-96555376D01*
X145040405Y-96571586D01*
X145040406Y-96571587D01*
X145076309Y-96601288D01*
X145080620Y-96605210D01*
X146240001Y-97764592D01*
X146613181Y-98137772D01*
X146646666Y-98199095D01*
X146649500Y-98225453D01*
X146649500Y-98687870D01*
X146649501Y-98687876D01*
X146655908Y-98747483D01*
X146706202Y-98882328D01*
X146706206Y-98882335D01*
X146792452Y-98997544D01*
X146792455Y-98997547D01*
X146907664Y-99083793D01*
X146907671Y-99083797D01*
X147042517Y-99134091D01*
X147042516Y-99134091D01*
X147049444Y-99134835D01*
X147102127Y-99140500D01*
X148897872Y-99140499D01*
X148957483Y-99134091D01*
X149092331Y-99083796D01*
X149207546Y-98997546D01*
X149293796Y-98882331D01*
X149344091Y-98747483D01*
X149350500Y-98687873D01*
X149350499Y-96892128D01*
X149344091Y-96832517D01*
X149341809Y-96826399D01*
X149293797Y-96697671D01*
X149293793Y-96697664D01*
X149207547Y-96582455D01*
X149207544Y-96582452D01*
X149092335Y-96496206D01*
X149092328Y-96496202D01*
X148960917Y-96447189D01*
X148904983Y-96405318D01*
X148880566Y-96339853D01*
X148895418Y-96271580D01*
X148916563Y-96243332D01*
X149038495Y-96121401D01*
X149174035Y-95927830D01*
X149273903Y-95713663D01*
X149335063Y-95485408D01*
X149355659Y-95250000D01*
X149335063Y-95014592D01*
X149275554Y-94792500D01*
X149273905Y-94786344D01*
X149273904Y-94786343D01*
X149273903Y-94786337D01*
X149174035Y-94572171D01*
X149165129Y-94559451D01*
X149038494Y-94378597D01*
X148871402Y-94211506D01*
X148871396Y-94211501D01*
X148685842Y-94081575D01*
X148642217Y-94026998D01*
X148635023Y-93957500D01*
X148666546Y-93895145D01*
X148685842Y-93878425D01*
X148796740Y-93800773D01*
X148871401Y-93748495D01*
X149038495Y-93581401D01*
X149174035Y-93387830D01*
X149273903Y-93173663D01*
X149335063Y-92945408D01*
X149355659Y-92710000D01*
X149335063Y-92474592D01*
X149273903Y-92246337D01*
X149174035Y-92032171D01*
X149136072Y-91977953D01*
X149038494Y-91838597D01*
X148871402Y-91671506D01*
X148871396Y-91671501D01*
X148685842Y-91541575D01*
X148642217Y-91486998D01*
X148635023Y-91417500D01*
X148666546Y-91355145D01*
X148685842Y-91338425D01*
X148740484Y-91300164D01*
X148871401Y-91208495D01*
X149038495Y-91041401D01*
X149174035Y-90847830D01*
X149273903Y-90633663D01*
X149335063Y-90405408D01*
X149355659Y-90170000D01*
X149335063Y-89934592D01*
X149273903Y-89706337D01*
X149174035Y-89492171D01*
X149038495Y-89298599D01*
X149038494Y-89298597D01*
X148871402Y-89131506D01*
X148871396Y-89131501D01*
X148685842Y-89001575D01*
X148642217Y-88946998D01*
X148635023Y-88877500D01*
X148666546Y-88815145D01*
X148685842Y-88798425D01*
X148754190Y-88750567D01*
X148871401Y-88668495D01*
X149038495Y-88501401D01*
X149174035Y-88307830D01*
X149273903Y-88093663D01*
X149335063Y-87865408D01*
X149355659Y-87630000D01*
X149335063Y-87394592D01*
X149273903Y-87166337D01*
X149174035Y-86952171D01*
X149038495Y-86758599D01*
X149038494Y-86758597D01*
X148871402Y-86591506D01*
X148871396Y-86591501D01*
X148685842Y-86461575D01*
X148642217Y-86406998D01*
X148635023Y-86337500D01*
X148666546Y-86275145D01*
X148685842Y-86258425D01*
X148832935Y-86155429D01*
X148871401Y-86128495D01*
X149038495Y-85961401D01*
X149174035Y-85767830D01*
X149273903Y-85553663D01*
X149335063Y-85325408D01*
X149355659Y-85090000D01*
X149335063Y-84854592D01*
X149273903Y-84626337D01*
X149174035Y-84412171D01*
X149038495Y-84218599D01*
X149038494Y-84218597D01*
X148871402Y-84051506D01*
X148871395Y-84051501D01*
X148677834Y-83915967D01*
X148677830Y-83915965D01*
X148677828Y-83915964D01*
X148463663Y-83816097D01*
X148463659Y-83816096D01*
X148463655Y-83816094D01*
X148235413Y-83754938D01*
X148235403Y-83754936D01*
X148000001Y-83734341D01*
X147999999Y-83734341D01*
X147764596Y-83754936D01*
X147764586Y-83754938D01*
X147536344Y-83816094D01*
X147536335Y-83816098D01*
X147322171Y-83915964D01*
X147322169Y-83915965D01*
X147128597Y-84051505D01*
X146961505Y-84218597D01*
X146825966Y-84412168D01*
X146811882Y-84442372D01*
X146765709Y-84494811D01*
X146698515Y-84513962D01*
X146631634Y-84493746D01*
X146586300Y-84440580D01*
X146575500Y-84389966D01*
X146575500Y-83410451D01*
X146595185Y-83343412D01*
X146611815Y-83322774D01*
X147472771Y-82461817D01*
X147534094Y-82428333D01*
X147560452Y-82425499D01*
X148872871Y-82425499D01*
X148872872Y-82425499D01*
X148932483Y-82419091D01*
X149067331Y-82368796D01*
X149182546Y-82282546D01*
X149268796Y-82167331D01*
X149319091Y-82032483D01*
X149325500Y-81972873D01*
X149325499Y-80177128D01*
X149319091Y-80117517D01*
X149302007Y-80071713D01*
X149268797Y-79982671D01*
X149268793Y-79982664D01*
X149182547Y-79867455D01*
X149182544Y-79867452D01*
X149067335Y-79781206D01*
X149067328Y-79781202D01*
X148935917Y-79732189D01*
X148879983Y-79690318D01*
X148855566Y-79624853D01*
X148870418Y-79556580D01*
X148891563Y-79528332D01*
X149013495Y-79406401D01*
X149149035Y-79212830D01*
X149248903Y-78998663D01*
X149310063Y-78770408D01*
X149330659Y-78535000D01*
X149310063Y-78299592D01*
X149248903Y-78071337D01*
X149149035Y-77857171D01*
X149029669Y-77686697D01*
X149013494Y-77663597D01*
X148846402Y-77496506D01*
X148846396Y-77496501D01*
X148660842Y-77366575D01*
X148617217Y-77311998D01*
X148610023Y-77242500D01*
X148641546Y-77180145D01*
X148660842Y-77163425D01*
X148829717Y-77045177D01*
X148846401Y-77033495D01*
X149013495Y-76866401D01*
X149149035Y-76672830D01*
X149248903Y-76458663D01*
X149310063Y-76230408D01*
X149330659Y-75995000D01*
X149310063Y-75759592D01*
X149248903Y-75531337D01*
X149149035Y-75317171D01*
X149148652Y-75316623D01*
X149013494Y-75123597D01*
X148846402Y-74956506D01*
X148846396Y-74956501D01*
X148660842Y-74826575D01*
X148617217Y-74771998D01*
X148610023Y-74702500D01*
X148641546Y-74640145D01*
X148660842Y-74623425D01*
X148705209Y-74592359D01*
X148846401Y-74493495D01*
X149013495Y-74326401D01*
X149149035Y-74132830D01*
X149248903Y-73918663D01*
X149310063Y-73690408D01*
X149330659Y-73455000D01*
X149329699Y-73444033D01*
X149320888Y-73343319D01*
X149310063Y-73219592D01*
X149248903Y-72991337D01*
X149149035Y-72777171D01*
X149140629Y-72765165D01*
X149013494Y-72583597D01*
X148846402Y-72416506D01*
X148846396Y-72416501D01*
X148660842Y-72286575D01*
X148617217Y-72231998D01*
X148610023Y-72162500D01*
X148641546Y-72100145D01*
X148660842Y-72083425D01*
X148757420Y-72015800D01*
X148846401Y-71953495D01*
X149013495Y-71786401D01*
X149149035Y-71592830D01*
X149248903Y-71378663D01*
X149310063Y-71150408D01*
X149330659Y-70915000D01*
X149310063Y-70679592D01*
X149248903Y-70451337D01*
X149149035Y-70237171D01*
X149148652Y-70236623D01*
X149013494Y-70043597D01*
X148846402Y-69876506D01*
X148846396Y-69876501D01*
X148660842Y-69746575D01*
X148617217Y-69691998D01*
X148610023Y-69622500D01*
X148641546Y-69560145D01*
X148660842Y-69543425D01*
X148772250Y-69465416D01*
X148846401Y-69413495D01*
X149013495Y-69246401D01*
X149149035Y-69052830D01*
X149248903Y-68838663D01*
X149310063Y-68610408D01*
X149330659Y-68375000D01*
X149310063Y-68139592D01*
X149248903Y-67911337D01*
X149149035Y-67697171D01*
X149148652Y-67696623D01*
X149013494Y-67503597D01*
X148846402Y-67336506D01*
X148846395Y-67336501D01*
X148652834Y-67200967D01*
X148652830Y-67200965D01*
X148588094Y-67170778D01*
X148438663Y-67101097D01*
X148438659Y-67101096D01*
X148438655Y-67101094D01*
X148210413Y-67039938D01*
X148210403Y-67039936D01*
X147975001Y-67019341D01*
X147974999Y-67019341D01*
X147739596Y-67039936D01*
X147739586Y-67039938D01*
X147511344Y-67101094D01*
X147511335Y-67101098D01*
X147297171Y-67200964D01*
X147297169Y-67200965D01*
X147103597Y-67336505D01*
X146936505Y-67503597D01*
X146801348Y-67696623D01*
X146746771Y-67740248D01*
X146699773Y-67749500D01*
X144094452Y-67749500D01*
X144027413Y-67729815D01*
X143981658Y-67677011D01*
X143971714Y-67607853D01*
X144000739Y-67544297D01*
X144006771Y-67537819D01*
X145882771Y-65661819D01*
X145944094Y-65628334D01*
X145970452Y-65625500D01*
X146167257Y-65625500D01*
X146182877Y-65627224D01*
X146182904Y-65626939D01*
X146190660Y-65627671D01*
X146190667Y-65627673D01*
X146259814Y-65625500D01*
X146289350Y-65625500D01*
X146296228Y-65624630D01*
X146302041Y-65624172D01*
X146348627Y-65622709D01*
X146367869Y-65617117D01*
X146386912Y-65613174D01*
X146406792Y-65610664D01*
X146450122Y-65593507D01*
X146455646Y-65591617D01*
X146461258Y-65589986D01*
X146500390Y-65578618D01*
X146500610Y-65578487D01*
X146500806Y-65578437D01*
X146507552Y-65575519D01*
X146508022Y-65576605D01*
X146568326Y-65561296D01*
X146634593Y-65583444D01*
X146678365Y-65637903D01*
X146679926Y-65641878D01*
X146706202Y-65712328D01*
X146706206Y-65712335D01*
X146792452Y-65827544D01*
X146792455Y-65827547D01*
X146907664Y-65913793D01*
X146907671Y-65913797D01*
X147042517Y-65964091D01*
X147042516Y-65964091D01*
X147049444Y-65964835D01*
X147102127Y-65970500D01*
X148897872Y-65970499D01*
X148957483Y-65964091D01*
X149092331Y-65913796D01*
X149207546Y-65827546D01*
X149293796Y-65712331D01*
X149344091Y-65577483D01*
X149350500Y-65517873D01*
X149350499Y-63722128D01*
X149344091Y-63662517D01*
X149305058Y-63557865D01*
X149293797Y-63527671D01*
X149293793Y-63527664D01*
X149207547Y-63412455D01*
X149207544Y-63412452D01*
X149092335Y-63326206D01*
X149092328Y-63326202D01*
X148960917Y-63277189D01*
X148904983Y-63235318D01*
X148880566Y-63169853D01*
X148895418Y-63101580D01*
X148916563Y-63073332D01*
X149038495Y-62951401D01*
X149174035Y-62757830D01*
X149273903Y-62543663D01*
X149335063Y-62315408D01*
X149355659Y-62080000D01*
X149335063Y-61844592D01*
X149280066Y-61639337D01*
X149273905Y-61616344D01*
X149273904Y-61616343D01*
X149273903Y-61616337D01*
X149174035Y-61402171D01*
X149173652Y-61401623D01*
X149038494Y-61208597D01*
X148871402Y-61041506D01*
X148871396Y-61041501D01*
X148685842Y-60911575D01*
X148642217Y-60856998D01*
X148635023Y-60787500D01*
X148666546Y-60725145D01*
X148685842Y-60708425D01*
X148787780Y-60637047D01*
X148871401Y-60578495D01*
X149038495Y-60411401D01*
X149174035Y-60217830D01*
X149273903Y-60003663D01*
X149335063Y-59775408D01*
X149355659Y-59540000D01*
X149335063Y-59304592D01*
X149273903Y-59076337D01*
X149174035Y-58862171D01*
X149173652Y-58861623D01*
X149038494Y-58668597D01*
X148871402Y-58501506D01*
X148871396Y-58501501D01*
X148685842Y-58371575D01*
X148642217Y-58316998D01*
X148635023Y-58247500D01*
X148666546Y-58185145D01*
X148685842Y-58168425D01*
X148755191Y-58119866D01*
X148871401Y-58038495D01*
X149038495Y-57871401D01*
X149174035Y-57677830D01*
X149273903Y-57463663D01*
X149335063Y-57235408D01*
X149355659Y-57000000D01*
X149335063Y-56764592D01*
X149273903Y-56536337D01*
X149174035Y-56322171D01*
X149171984Y-56319241D01*
X149038494Y-56128597D01*
X148871402Y-55961506D01*
X148871396Y-55961501D01*
X148685842Y-55831575D01*
X148642217Y-55776998D01*
X148635023Y-55707500D01*
X148666546Y-55645145D01*
X148685842Y-55628425D01*
X148821557Y-55533396D01*
X148871401Y-55498495D01*
X149038495Y-55331401D01*
X149174035Y-55137830D01*
X149273903Y-54923663D01*
X149335063Y-54695408D01*
X149355659Y-54460000D01*
X149355623Y-54459594D01*
X149336804Y-54244492D01*
X149335063Y-54224592D01*
X149274885Y-54000001D01*
X149273905Y-53996344D01*
X149273904Y-53996343D01*
X149273903Y-53996337D01*
X149174035Y-53782171D01*
X149173652Y-53781623D01*
X149038494Y-53588597D01*
X148871402Y-53421506D01*
X148871396Y-53421501D01*
X148685842Y-53291575D01*
X148642217Y-53236998D01*
X148635023Y-53167500D01*
X148666546Y-53105145D01*
X148685842Y-53088425D01*
X148797764Y-53010056D01*
X148871401Y-52958495D01*
X149038495Y-52791401D01*
X149174035Y-52597830D01*
X149273903Y-52383663D01*
X149335063Y-52155408D01*
X149355659Y-51920000D01*
X149335063Y-51684592D01*
X149273903Y-51456337D01*
X149174035Y-51242171D01*
X149117102Y-51160861D01*
X149038494Y-51048597D01*
X148871402Y-50881506D01*
X148871395Y-50881501D01*
X148854157Y-50869431D01*
X148792082Y-50825965D01*
X148677834Y-50745967D01*
X148677830Y-50745965D01*
X148635223Y-50726097D01*
X148463663Y-50646097D01*
X148463659Y-50646096D01*
X148463655Y-50646094D01*
X148235413Y-50584938D01*
X148235403Y-50584936D01*
X148000001Y-50564341D01*
X147999999Y-50564341D01*
X147764596Y-50584936D01*
X147764586Y-50584938D01*
X147536344Y-50646094D01*
X147536335Y-50646098D01*
X147322171Y-50745964D01*
X147322169Y-50745965D01*
X147128597Y-50881505D01*
X146961508Y-51048594D01*
X146824245Y-51244626D01*
X146769668Y-51288250D01*
X146738882Y-51294820D01*
X146739080Y-51296070D01*
X146731372Y-51297290D01*
X146712129Y-51302881D01*
X146693079Y-51306825D01*
X146673211Y-51309334D01*
X146673209Y-51309335D01*
X146629884Y-51326488D01*
X146624357Y-51328380D01*
X146579610Y-51341381D01*
X146579609Y-51341382D01*
X146562367Y-51351579D01*
X146544899Y-51360137D01*
X146526269Y-51367513D01*
X146526267Y-51367514D01*
X146488576Y-51394898D01*
X146483694Y-51398105D01*
X146443579Y-51421830D01*
X146429408Y-51436000D01*
X146414623Y-51448628D01*
X146398412Y-51460407D01*
X146368709Y-51496310D01*
X146364777Y-51500631D01*
X145998036Y-51867371D01*
X145936713Y-51900856D01*
X145867021Y-51895872D01*
X145811088Y-51854000D01*
X145786827Y-51790495D01*
X145784569Y-51764684D01*
X145784567Y-51764673D01*
X145723433Y-51536516D01*
X145723429Y-51536507D01*
X145623600Y-51322422D01*
X145623599Y-51322420D01*
X145488113Y-51128926D01*
X145488108Y-51128920D01*
X145321082Y-50961894D01*
X145127578Y-50826399D01*
X144913492Y-50726570D01*
X144913486Y-50726567D01*
X144700000Y-50669364D01*
X144700000Y-51564498D01*
X144592315Y-51515320D01*
X144485763Y-51500000D01*
X144414237Y-51500000D01*
X144307685Y-51515320D01*
X144200000Y-51564498D01*
X144200000Y-50669364D01*
X144199999Y-50669364D01*
X143986513Y-50726567D01*
X143986507Y-50726570D01*
X143772422Y-50826399D01*
X143772420Y-50826400D01*
X143578926Y-50961886D01*
X143578920Y-50961891D01*
X143411891Y-51128920D01*
X143411890Y-51128922D01*
X143281575Y-51315031D01*
X143226998Y-51358655D01*
X143157499Y-51365848D01*
X143095145Y-51334326D01*
X143078425Y-51315031D01*
X142948109Y-51128922D01*
X142948108Y-51128920D01*
X142781082Y-50961894D01*
X142587578Y-50826399D01*
X142373492Y-50726570D01*
X142373486Y-50726567D01*
X142160000Y-50669364D01*
X142160000Y-51564498D01*
X142052315Y-51515320D01*
X141945763Y-51500000D01*
X141874237Y-51500000D01*
X141767685Y-51515320D01*
X141660000Y-51564498D01*
X141660000Y-50669364D01*
X141659999Y-50669364D01*
X141446513Y-50726567D01*
X141446507Y-50726570D01*
X141232422Y-50826399D01*
X141232420Y-50826400D01*
X141038926Y-50961886D01*
X141038920Y-50961891D01*
X140871891Y-51128920D01*
X140871890Y-51128922D01*
X140741880Y-51314595D01*
X140687303Y-51358219D01*
X140617804Y-51365412D01*
X140555450Y-51333890D01*
X140538730Y-51314594D01*
X140408494Y-51128597D01*
X140241402Y-50961506D01*
X140241395Y-50961501D01*
X140047834Y-50825967D01*
X140047830Y-50825965D01*
X139934806Y-50773261D01*
X139833663Y-50726097D01*
X139833659Y-50726096D01*
X139833655Y-50726094D01*
X139605413Y-50664938D01*
X139605403Y-50664936D01*
X139370001Y-50644341D01*
X139369999Y-50644341D01*
X139134590Y-50664937D01*
X139134589Y-50664937D01*
X139034124Y-50691855D01*
X138964274Y-50690191D01*
X138914352Y-50659761D01*
X138695803Y-50441212D01*
X138685980Y-50428950D01*
X138685759Y-50429134D01*
X138680786Y-50423123D01*
X138662159Y-50405631D01*
X138630364Y-50375773D01*
X138619919Y-50365328D01*
X138609475Y-50354883D01*
X138603986Y-50350625D01*
X138599561Y-50346847D01*
X138565582Y-50314938D01*
X138565580Y-50314936D01*
X138565577Y-50314935D01*
X138548029Y-50305288D01*
X138531763Y-50294604D01*
X138515936Y-50282327D01*
X138515935Y-50282326D01*
X138515933Y-50282325D01*
X138473168Y-50263818D01*
X138467922Y-50261248D01*
X138420257Y-50235045D01*
X138421233Y-50233269D01*
X138374508Y-50196816D01*
X138351402Y-50130877D01*
X138367613Y-50062914D01*
X138417994Y-50014504D01*
X138475238Y-50000500D01*
X149875500Y-50000500D01*
X149942539Y-50020185D01*
G37*
%TD.AperFunction*%
%TA.AperFunction,Conductor*%
G36*
X129166207Y-94895185D02*
G01*
X129186849Y-94911819D01*
X130712848Y-96437819D01*
X130746333Y-96499142D01*
X130741349Y-96568834D01*
X130699477Y-96624767D01*
X130634013Y-96649184D01*
X130625167Y-96649500D01*
X130102129Y-96649500D01*
X130102123Y-96649501D01*
X130042516Y-96655908D01*
X129907671Y-96706202D01*
X129907664Y-96706206D01*
X129792455Y-96792452D01*
X129792452Y-96792455D01*
X129706206Y-96907664D01*
X129706202Y-96907671D01*
X129655908Y-97042517D01*
X129649501Y-97102116D01*
X129649500Y-97102135D01*
X129649500Y-98500500D01*
X129629815Y-98567539D01*
X129577011Y-98613294D01*
X129525500Y-98624500D01*
X125810453Y-98624500D01*
X125743414Y-98604815D01*
X125722772Y-98588181D01*
X123489318Y-96354727D01*
X123455833Y-96293404D01*
X123452999Y-96267046D01*
X123452999Y-94999500D01*
X123472684Y-94932461D01*
X123525488Y-94886706D01*
X123576999Y-94875500D01*
X129099168Y-94875500D01*
X129166207Y-94895185D01*
G37*
%TD.AperFunction*%
%TA.AperFunction,Conductor*%
G36*
X143240507Y-97790156D02*
G01*
X143200000Y-97928111D01*
X143200000Y-98071889D01*
X143240507Y-98209844D01*
X143266314Y-98250000D01*
X141593686Y-98250000D01*
X141619493Y-98209844D01*
X141660000Y-98071889D01*
X141660000Y-97928111D01*
X141619493Y-97790156D01*
X141593686Y-97750000D01*
X143266314Y-97750000D01*
X143240507Y-97790156D01*
G37*
%TD.AperFunction*%
%TA.AperFunction,Conductor*%
G36*
X140227586Y-95295185D02*
G01*
X140273341Y-95347989D01*
X140283285Y-95417147D01*
X140254260Y-95480703D01*
X140248228Y-95487181D01*
X139075646Y-96659761D01*
X139014323Y-96693246D01*
X138955873Y-96691855D01*
X138855408Y-96664937D01*
X138620001Y-96644341D01*
X138619999Y-96644341D01*
X138384596Y-96664936D01*
X138384586Y-96664938D01*
X138156344Y-96726094D01*
X138156335Y-96726098D01*
X137942171Y-96825964D01*
X137942169Y-96825965D01*
X137748597Y-96961505D01*
X137581505Y-97128597D01*
X137451575Y-97314158D01*
X137396998Y-97357783D01*
X137327500Y-97364977D01*
X137265145Y-97333454D01*
X137248425Y-97314158D01*
X137118494Y-97128597D01*
X136951402Y-96961506D01*
X136951395Y-96961501D01*
X136757834Y-96825967D01*
X136757830Y-96825965D01*
X136757828Y-96825964D01*
X136543663Y-96726097D01*
X136543659Y-96726096D01*
X136543655Y-96726094D01*
X136315413Y-96664938D01*
X136315403Y-96664936D01*
X136080001Y-96644341D01*
X136079999Y-96644341D01*
X135844590Y-96664937D01*
X135844589Y-96664937D01*
X135744124Y-96691855D01*
X135674274Y-96690191D01*
X135624352Y-96659761D01*
X135405803Y-96441212D01*
X135395980Y-96428950D01*
X135395759Y-96429134D01*
X135390786Y-96423123D01*
X135383235Y-96416032D01*
X135340364Y-96375773D01*
X135329919Y-96365328D01*
X135319475Y-96354883D01*
X135313986Y-96350625D01*
X135309561Y-96346847D01*
X135275582Y-96314938D01*
X135275580Y-96314936D01*
X135275577Y-96314935D01*
X135258029Y-96305288D01*
X135241763Y-96294604D01*
X135240216Y-96293404D01*
X135225936Y-96282327D01*
X135225935Y-96282326D01*
X135225933Y-96282325D01*
X135183168Y-96263818D01*
X135177922Y-96261248D01*
X135137093Y-96238803D01*
X135137092Y-96238802D01*
X135117693Y-96233822D01*
X135099281Y-96227518D01*
X135080898Y-96219562D01*
X135080892Y-96219560D01*
X135034874Y-96212272D01*
X135029152Y-96211087D01*
X134984021Y-96199500D01*
X134984019Y-96199500D01*
X134963984Y-96199500D01*
X134944586Y-96197973D01*
X134937162Y-96196797D01*
X134924805Y-96194840D01*
X134924804Y-96194840D01*
X134878416Y-96199225D01*
X134872578Y-96199500D01*
X134365453Y-96199500D01*
X134298414Y-96179815D01*
X134277772Y-96163181D01*
X133601772Y-95487181D01*
X133568287Y-95425858D01*
X133573271Y-95356166D01*
X133615143Y-95300233D01*
X133680607Y-95275816D01*
X133689453Y-95275500D01*
X140160547Y-95275500D01*
X140227586Y-95295185D01*
G37*
%TD.AperFunction*%
%TA.AperFunction,Conductor*%
G36*
X139438196Y-79828906D02*
G01*
X139494129Y-79870778D01*
X139518546Y-79936242D01*
X139518390Y-79955894D01*
X139514532Y-79999996D01*
X139514532Y-80000001D01*
X139534364Y-80226686D01*
X139534366Y-80226697D01*
X139593258Y-80446488D01*
X139593261Y-80446497D01*
X139689431Y-80652732D01*
X139689432Y-80652734D01*
X139819954Y-80839141D01*
X139980858Y-81000045D01*
X139980861Y-81000047D01*
X140167266Y-81130568D01*
X140225275Y-81157618D01*
X140277714Y-81203791D01*
X140296866Y-81270984D01*
X140276650Y-81337865D01*
X140225275Y-81382382D01*
X140167267Y-81409431D01*
X140167265Y-81409432D01*
X139980858Y-81539954D01*
X139819954Y-81700858D01*
X139689432Y-81887265D01*
X139689431Y-81887267D01*
X139593261Y-82093502D01*
X139593258Y-82093511D01*
X139534366Y-82313302D01*
X139534364Y-82313313D01*
X139514532Y-82539998D01*
X139514532Y-82540001D01*
X139534364Y-82766686D01*
X139534366Y-82766697D01*
X139593258Y-82986488D01*
X139593261Y-82986497D01*
X139689431Y-83192732D01*
X139689432Y-83192734D01*
X139819954Y-83379141D01*
X139980858Y-83540045D01*
X139980861Y-83540047D01*
X140167266Y-83670568D01*
X140225275Y-83697618D01*
X140277714Y-83743791D01*
X140296866Y-83810984D01*
X140276650Y-83877865D01*
X140225275Y-83922382D01*
X140167267Y-83949431D01*
X140167265Y-83949432D01*
X139980858Y-84079954D01*
X139819954Y-84240858D01*
X139689432Y-84427265D01*
X139689431Y-84427267D01*
X139593261Y-84633502D01*
X139593258Y-84633511D01*
X139534366Y-84853302D01*
X139534364Y-84853313D01*
X139514532Y-85079998D01*
X139514532Y-85080001D01*
X139534364Y-85306686D01*
X139534366Y-85306697D01*
X139593258Y-85526488D01*
X139593261Y-85526497D01*
X139689431Y-85732732D01*
X139689432Y-85732734D01*
X139819954Y-85919141D01*
X139980858Y-86080045D01*
X139980861Y-86080047D01*
X140167266Y-86210568D01*
X140225275Y-86237618D01*
X140277714Y-86283791D01*
X140296866Y-86350984D01*
X140276650Y-86417865D01*
X140225275Y-86462382D01*
X140167267Y-86489431D01*
X140167265Y-86489432D01*
X139980858Y-86619954D01*
X139819954Y-86780858D01*
X139689432Y-86967265D01*
X139689431Y-86967267D01*
X139593261Y-87173502D01*
X139593258Y-87173511D01*
X139534366Y-87393302D01*
X139534364Y-87393313D01*
X139514532Y-87619998D01*
X139514532Y-87620001D01*
X139534364Y-87846686D01*
X139534366Y-87846697D01*
X139593258Y-88066488D01*
X139593261Y-88066497D01*
X139689431Y-88272732D01*
X139689432Y-88272734D01*
X139819954Y-88459141D01*
X139980858Y-88620045D01*
X139980861Y-88620047D01*
X140167266Y-88750568D01*
X140225275Y-88777618D01*
X140277714Y-88823791D01*
X140296866Y-88890984D01*
X140276650Y-88957865D01*
X140225275Y-89002382D01*
X140167267Y-89029431D01*
X140167265Y-89029432D01*
X139980858Y-89159954D01*
X139819954Y-89320858D01*
X139689432Y-89507265D01*
X139689431Y-89507267D01*
X139593261Y-89713502D01*
X139593258Y-89713511D01*
X139534366Y-89933302D01*
X139534364Y-89933313D01*
X139514532Y-90159998D01*
X139514532Y-90160001D01*
X139534364Y-90386686D01*
X139534366Y-90386697D01*
X139593258Y-90606488D01*
X139593261Y-90606497D01*
X139635975Y-90698095D01*
X139646467Y-90767172D01*
X139617948Y-90830956D01*
X139559471Y-90869196D01*
X139523593Y-90874500D01*
X134850453Y-90874500D01*
X134783414Y-90854815D01*
X134762772Y-90838181D01*
X134499413Y-90574822D01*
X134465928Y-90513499D01*
X134467319Y-90455048D01*
X134485635Y-90386692D01*
X134505468Y-90160000D01*
X134485635Y-89933308D01*
X134426739Y-89713504D01*
X134330568Y-89507266D01*
X134200047Y-89320861D01*
X134200045Y-89320858D01*
X134039141Y-89159954D01*
X133852734Y-89029432D01*
X133852728Y-89029429D01*
X133794725Y-89002382D01*
X133742285Y-88956210D01*
X133723133Y-88889017D01*
X133743348Y-88822135D01*
X133794725Y-88777618D01*
X133852734Y-88750568D01*
X134039139Y-88620047D01*
X134200047Y-88459139D01*
X134330568Y-88272734D01*
X134426739Y-88066496D01*
X134485635Y-87846692D01*
X134505468Y-87620000D01*
X134485635Y-87393308D01*
X134426739Y-87173504D01*
X134330568Y-86967266D01*
X134200047Y-86780861D01*
X134200045Y-86780858D01*
X134039141Y-86619954D01*
X133852734Y-86489432D01*
X133852728Y-86489429D01*
X133825038Y-86476517D01*
X133794724Y-86462381D01*
X133742285Y-86416210D01*
X133723133Y-86349017D01*
X133743348Y-86282135D01*
X133794725Y-86237618D01*
X133852734Y-86210568D01*
X134039139Y-86080047D01*
X134200047Y-85919139D01*
X134330568Y-85732734D01*
X134426739Y-85526496D01*
X134485635Y-85306692D01*
X134505468Y-85080000D01*
X134485635Y-84853308D01*
X134426739Y-84633504D01*
X134330568Y-84427266D01*
X134200047Y-84240861D01*
X134200045Y-84240858D01*
X134039141Y-84079954D01*
X133852734Y-83949432D01*
X133852728Y-83949429D01*
X133794725Y-83922382D01*
X133742285Y-83876210D01*
X133723133Y-83809017D01*
X133743348Y-83742135D01*
X133794725Y-83697618D01*
X133852734Y-83670568D01*
X134039139Y-83540047D01*
X134200047Y-83379139D01*
X134330568Y-83192734D01*
X134426739Y-82986496D01*
X134485635Y-82766692D01*
X134505468Y-82540000D01*
X134485635Y-82313308D01*
X134472308Y-82263573D01*
X134454362Y-82196593D01*
X134456025Y-82126743D01*
X134495188Y-82068881D01*
X134559417Y-82041377D01*
X134574137Y-82040500D01*
X136782257Y-82040500D01*
X136797877Y-82042224D01*
X136797904Y-82041939D01*
X136805660Y-82042671D01*
X136805667Y-82042673D01*
X136874814Y-82040500D01*
X136904350Y-82040500D01*
X136911228Y-82039630D01*
X136917041Y-82039172D01*
X136963627Y-82037709D01*
X136982869Y-82032117D01*
X137001912Y-82028174D01*
X137021792Y-82025664D01*
X137065122Y-82008507D01*
X137070646Y-82006617D01*
X137074396Y-82005527D01*
X137115390Y-81993618D01*
X137132629Y-81983422D01*
X137150103Y-81974862D01*
X137168727Y-81967488D01*
X137168727Y-81967487D01*
X137168732Y-81967486D01*
X137206449Y-81940082D01*
X137211305Y-81936892D01*
X137251420Y-81913170D01*
X137265589Y-81898999D01*
X137280379Y-81886368D01*
X137296587Y-81874594D01*
X137326299Y-81838676D01*
X137330212Y-81834376D01*
X139307183Y-79857405D01*
X139368504Y-79823922D01*
X139438196Y-79828906D01*
G37*
%TD.AperFunction*%
%TA.AperFunction,Conductor*%
G36*
X139161587Y-76690185D02*
G01*
X139182229Y-76706819D01*
X139520586Y-77045177D01*
X139554071Y-77106500D01*
X139552680Y-77164949D01*
X139534367Y-77233296D01*
X139534364Y-77233313D01*
X139522200Y-77372357D01*
X139514532Y-77460000D01*
X139534364Y-77686686D01*
X139534365Y-77686691D01*
X139534366Y-77686697D01*
X139552680Y-77755048D01*
X139551017Y-77824897D01*
X139520586Y-77874821D01*
X136642228Y-80753181D01*
X136580905Y-80786666D01*
X136554547Y-80789500D01*
X134461434Y-80789500D01*
X134394395Y-80769815D01*
X134348640Y-80717011D01*
X134338696Y-80647853D01*
X134349052Y-80613095D01*
X134426739Y-80446496D01*
X134485635Y-80226692D01*
X134505468Y-80000000D01*
X134485635Y-79773308D01*
X134426739Y-79553504D01*
X134330568Y-79347266D01*
X134200047Y-79160861D01*
X134200045Y-79160858D01*
X134039141Y-78999954D01*
X133852734Y-78869432D01*
X133852728Y-78869429D01*
X133794725Y-78842382D01*
X133742285Y-78796210D01*
X133723133Y-78729017D01*
X133743348Y-78662135D01*
X133794725Y-78617618D01*
X133852734Y-78590568D01*
X134039139Y-78460047D01*
X134200047Y-78299139D01*
X134330568Y-78112734D01*
X134426739Y-77906496D01*
X134485635Y-77686692D01*
X134505468Y-77460000D01*
X134485635Y-77233308D01*
X134426739Y-77013504D01*
X134349051Y-76846904D01*
X134338560Y-76777827D01*
X134367080Y-76714043D01*
X134425556Y-76675804D01*
X134461434Y-76670500D01*
X139094548Y-76670500D01*
X139161587Y-76690185D01*
G37*
%TD.AperFunction*%
%TA.AperFunction,Conductor*%
G36*
X146766812Y-71560185D02*
G01*
X146801348Y-71593377D01*
X146936501Y-71786396D01*
X146936506Y-71786402D01*
X147103597Y-71953493D01*
X147103603Y-71953498D01*
X147289158Y-72083425D01*
X147332783Y-72138002D01*
X147339977Y-72207500D01*
X147308454Y-72269855D01*
X147289158Y-72286575D01*
X147103597Y-72416505D01*
X146936505Y-72583597D01*
X146800965Y-72777169D01*
X146800963Y-72777173D01*
X146756705Y-72872081D01*
X146717211Y-72919991D01*
X146703572Y-72929901D01*
X146698688Y-72933109D01*
X146658579Y-72956829D01*
X146644414Y-72970995D01*
X146629624Y-72983627D01*
X146613414Y-72995404D01*
X146613408Y-72995410D01*
X146583711Y-73031308D01*
X146579778Y-73035630D01*
X146366206Y-73249201D01*
X146353943Y-73259027D01*
X146354126Y-73259248D01*
X146348120Y-73264216D01*
X146300771Y-73314637D01*
X146279889Y-73335519D01*
X146279877Y-73335532D01*
X146275621Y-73341017D01*
X146271837Y-73345447D01*
X146239937Y-73379418D01*
X146239936Y-73379420D01*
X146230284Y-73396976D01*
X146219610Y-73413226D01*
X146207329Y-73429061D01*
X146207324Y-73429068D01*
X146188815Y-73471838D01*
X146186245Y-73477084D01*
X146163803Y-73517906D01*
X146158822Y-73537307D01*
X146152521Y-73555710D01*
X146144562Y-73574102D01*
X146144561Y-73574105D01*
X146137271Y-73620127D01*
X146136087Y-73625846D01*
X146124501Y-73670972D01*
X146124500Y-73670982D01*
X146124500Y-73689546D01*
X146104815Y-73756585D01*
X146088181Y-73777227D01*
X143616208Y-76249199D01*
X143603951Y-76259020D01*
X143604134Y-76259241D01*
X143598122Y-76264214D01*
X143589890Y-76272981D01*
X143529648Y-76308374D01*
X143459835Y-76305580D01*
X143402614Y-76265485D01*
X143376155Y-76200819D01*
X143375500Y-76188095D01*
X143375500Y-73560452D01*
X143395185Y-73493413D01*
X143411819Y-73472771D01*
X145307771Y-71576819D01*
X145369094Y-71543334D01*
X145395452Y-71540500D01*
X146699773Y-71540500D01*
X146766812Y-71560185D01*
G37*
%TD.AperFunction*%
%TA.AperFunction,Conductor*%
G36*
X142160000Y-53330633D02*
G01*
X142373483Y-53273433D01*
X142373492Y-53273429D01*
X142587578Y-53173600D01*
X142781082Y-53038105D01*
X142948105Y-52871082D01*
X143078425Y-52684968D01*
X143133002Y-52641344D01*
X143202501Y-52634151D01*
X143264855Y-52665673D01*
X143281575Y-52684968D01*
X143411894Y-52871082D01*
X143578917Y-53038105D01*
X143740280Y-53151094D01*
X143783905Y-53205672D01*
X143791097Y-53275170D01*
X143759575Y-53337525D01*
X143699345Y-53372938D01*
X143673054Y-53376608D01*
X143651374Y-53377289D01*
X143651368Y-53377290D01*
X143632126Y-53382880D01*
X143613087Y-53386823D01*
X143593217Y-53389334D01*
X143593203Y-53389337D01*
X143549883Y-53406488D01*
X143544358Y-53408380D01*
X143499613Y-53421380D01*
X143499610Y-53421381D01*
X143482366Y-53431579D01*
X143464905Y-53440133D01*
X143446274Y-53447510D01*
X143446262Y-53447517D01*
X143408570Y-53474902D01*
X143403687Y-53478109D01*
X143363580Y-53501829D01*
X143349414Y-53515995D01*
X143334624Y-53528627D01*
X143318414Y-53540404D01*
X143318411Y-53540407D01*
X143288710Y-53576309D01*
X143284777Y-53580631D01*
X141054798Y-55810610D01*
X140993475Y-55844095D01*
X140956310Y-55846457D01*
X140820002Y-55834532D01*
X140819998Y-55834532D01*
X140593313Y-55854364D01*
X140593302Y-55854366D01*
X140373511Y-55913258D01*
X140373502Y-55913261D01*
X140167267Y-56009431D01*
X140167265Y-56009432D01*
X139980858Y-56139954D01*
X139819954Y-56300858D01*
X139689432Y-56487265D01*
X139689431Y-56487267D01*
X139593261Y-56693502D01*
X139593258Y-56693511D01*
X139534366Y-56913302D01*
X139534364Y-56913313D01*
X139514532Y-57139998D01*
X139514532Y-57140001D01*
X139534364Y-57366686D01*
X139534366Y-57366697D01*
X139593258Y-57586488D01*
X139593261Y-57586497D01*
X139689431Y-57792732D01*
X139689432Y-57792734D01*
X139819954Y-57979141D01*
X139980858Y-58140045D01*
X140010582Y-58160858D01*
X140167266Y-58270568D01*
X140225275Y-58297618D01*
X140277714Y-58343791D01*
X140296866Y-58410984D01*
X140276650Y-58477865D01*
X140225275Y-58522382D01*
X140167267Y-58549431D01*
X140167265Y-58549432D01*
X139980858Y-58679954D01*
X139819954Y-58840858D01*
X139689432Y-59027265D01*
X139689431Y-59027267D01*
X139593261Y-59233502D01*
X139593258Y-59233511D01*
X139534366Y-59453302D01*
X139534364Y-59453313D01*
X139514532Y-59679998D01*
X139514532Y-59680001D01*
X139534364Y-59906686D01*
X139534366Y-59906697D01*
X139593258Y-60126488D01*
X139593261Y-60126497D01*
X139689431Y-60332732D01*
X139689432Y-60332734D01*
X139819954Y-60519141D01*
X139980858Y-60680045D01*
X139980861Y-60680047D01*
X140167266Y-60810568D01*
X140225275Y-60837618D01*
X140277714Y-60883791D01*
X140296866Y-60950984D01*
X140276650Y-61017865D01*
X140225275Y-61062382D01*
X140167267Y-61089431D01*
X140167265Y-61089432D01*
X139980858Y-61219954D01*
X139819954Y-61380858D01*
X139689432Y-61567265D01*
X139689431Y-61567267D01*
X139593261Y-61773502D01*
X139593258Y-61773511D01*
X139534366Y-61993302D01*
X139534364Y-61993313D01*
X139514532Y-62219998D01*
X139514532Y-62220001D01*
X139534364Y-62446686D01*
X139534366Y-62446697D01*
X139593258Y-62666488D01*
X139593261Y-62666497D01*
X139689431Y-62872732D01*
X139689432Y-62872734D01*
X139819954Y-63059141D01*
X139980858Y-63220045D01*
X139980861Y-63220047D01*
X140167266Y-63350568D01*
X140225275Y-63377618D01*
X140277714Y-63423791D01*
X140296866Y-63490984D01*
X140276650Y-63557865D01*
X140225275Y-63602382D01*
X140167267Y-63629431D01*
X140167265Y-63629432D01*
X139980858Y-63759954D01*
X139819954Y-63920858D01*
X139689432Y-64107265D01*
X139689431Y-64107267D01*
X139593261Y-64313502D01*
X139593258Y-64313511D01*
X139534366Y-64533302D01*
X139534364Y-64533313D01*
X139514532Y-64759998D01*
X139514532Y-64760001D01*
X139534364Y-64986686D01*
X139534366Y-64986697D01*
X139593258Y-65206488D01*
X139593261Y-65206497D01*
X139689431Y-65412732D01*
X139689432Y-65412734D01*
X139819954Y-65599141D01*
X139980858Y-65760045D01*
X139980861Y-65760047D01*
X140167266Y-65890568D01*
X140225275Y-65917618D01*
X140277714Y-65963791D01*
X140296866Y-66030984D01*
X140276650Y-66097865D01*
X140225275Y-66142382D01*
X140167267Y-66169431D01*
X140167265Y-66169432D01*
X139980858Y-66299954D01*
X139819954Y-66460858D01*
X139689432Y-66647265D01*
X139689431Y-66647267D01*
X139593261Y-66853502D01*
X139593258Y-66853511D01*
X139534366Y-67073302D01*
X139534364Y-67073313D01*
X139514532Y-67299998D01*
X139514532Y-67300001D01*
X139534364Y-67526686D01*
X139534366Y-67526697D01*
X139593258Y-67746488D01*
X139593261Y-67746497D01*
X139689431Y-67952732D01*
X139689432Y-67952734D01*
X139819954Y-68139141D01*
X139980858Y-68300045D01*
X139980861Y-68300047D01*
X140167266Y-68430568D01*
X140225275Y-68457618D01*
X140277714Y-68503791D01*
X140296866Y-68570984D01*
X140276650Y-68637865D01*
X140225275Y-68682382D01*
X140167267Y-68709431D01*
X140167265Y-68709432D01*
X139980858Y-68839954D01*
X139819954Y-69000858D01*
X139689432Y-69187265D01*
X139689431Y-69187267D01*
X139593261Y-69393502D01*
X139593258Y-69393511D01*
X139534366Y-69613302D01*
X139534364Y-69613313D01*
X139514532Y-69839998D01*
X139514532Y-69840001D01*
X139534364Y-70066686D01*
X139534366Y-70066697D01*
X139593258Y-70286488D01*
X139593261Y-70286497D01*
X139689431Y-70492732D01*
X139689432Y-70492734D01*
X139819954Y-70679141D01*
X139980858Y-70840045D01*
X139980861Y-70840047D01*
X140167266Y-70970568D01*
X140225865Y-70997893D01*
X140278305Y-71044065D01*
X140297457Y-71111258D01*
X140277242Y-71178139D01*
X140225867Y-71222657D01*
X140167515Y-71249867D01*
X139981179Y-71380342D01*
X139820342Y-71541179D01*
X139689865Y-71727517D01*
X139593734Y-71933673D01*
X139593730Y-71933682D01*
X139541127Y-72129999D01*
X139541128Y-72130000D01*
X140504314Y-72130000D01*
X140492359Y-72141955D01*
X140434835Y-72254852D01*
X140415014Y-72380000D01*
X140434835Y-72505148D01*
X140492359Y-72618045D01*
X140504314Y-72630000D01*
X139541128Y-72630000D01*
X139593730Y-72826317D01*
X139593734Y-72826326D01*
X139689865Y-73032482D01*
X139820342Y-73218820D01*
X139981179Y-73379657D01*
X140167518Y-73510134D01*
X140167520Y-73510135D01*
X140225865Y-73537342D01*
X140278305Y-73583514D01*
X140297457Y-73650707D01*
X140277242Y-73717589D01*
X140225867Y-73762105D01*
X140224685Y-73762657D01*
X140167264Y-73789433D01*
X139980858Y-73919954D01*
X139819954Y-74080858D01*
X139689432Y-74267265D01*
X139689431Y-74267267D01*
X139593261Y-74473502D01*
X139593258Y-74473511D01*
X139534366Y-74693302D01*
X139534364Y-74693313D01*
X139514532Y-74919998D01*
X139514532Y-74920001D01*
X139534364Y-75146686D01*
X139534366Y-75146697D01*
X139564835Y-75260409D01*
X139563172Y-75330259D01*
X139524009Y-75388121D01*
X139459781Y-75415625D01*
X139425668Y-75414976D01*
X139424810Y-75414840D01*
X139424804Y-75414840D01*
X139378416Y-75419225D01*
X139372578Y-75419500D01*
X134573619Y-75419500D01*
X134506580Y-75399815D01*
X134460825Y-75347011D01*
X134450881Y-75277853D01*
X134453844Y-75263406D01*
X134478872Y-75170000D01*
X133515686Y-75170000D01*
X133527641Y-75158045D01*
X133585165Y-75045148D01*
X133604986Y-74920000D01*
X133585165Y-74794852D01*
X133527641Y-74681955D01*
X133515686Y-74670000D01*
X134478872Y-74670000D01*
X134478872Y-74669999D01*
X134426269Y-74473682D01*
X134426265Y-74473673D01*
X134330134Y-74267517D01*
X134199657Y-74081179D01*
X134038820Y-73920342D01*
X133852482Y-73789865D01*
X133794133Y-73762657D01*
X133741694Y-73716484D01*
X133722542Y-73649291D01*
X133742758Y-73582410D01*
X133794129Y-73537895D01*
X133852734Y-73510568D01*
X134039139Y-73380047D01*
X134200047Y-73219139D01*
X134330568Y-73032734D01*
X134426739Y-72826496D01*
X134485635Y-72606692D01*
X134505468Y-72380000D01*
X134503869Y-72361729D01*
X134497294Y-72286575D01*
X134485635Y-72153308D01*
X134467318Y-72084948D01*
X134468981Y-72015103D01*
X134499410Y-71965179D01*
X134708788Y-71755801D01*
X134721042Y-71745986D01*
X134720859Y-71745764D01*
X134726866Y-71740792D01*
X134726877Y-71740786D01*
X134757775Y-71707882D01*
X134774227Y-71690364D01*
X134784671Y-71679918D01*
X134795120Y-71669471D01*
X134799379Y-71663978D01*
X134803152Y-71659561D01*
X134835062Y-71625582D01*
X134844713Y-71608024D01*
X134855396Y-71591761D01*
X134867673Y-71575936D01*
X134886185Y-71533153D01*
X134888738Y-71527941D01*
X134911197Y-71487092D01*
X134916180Y-71467680D01*
X134922481Y-71449280D01*
X134930437Y-71430896D01*
X134937729Y-71384852D01*
X134938906Y-71379171D01*
X134950500Y-71334019D01*
X134950500Y-71313983D01*
X134952027Y-71294582D01*
X134955160Y-71274804D01*
X134950775Y-71228415D01*
X134950500Y-71222577D01*
X134950500Y-70357861D01*
X134952027Y-70338460D01*
X134955160Y-70318682D01*
X134950775Y-70272293D01*
X134950500Y-70266455D01*
X134950500Y-64383864D01*
X134952224Y-64368244D01*
X134951939Y-64368217D01*
X134952673Y-64360455D01*
X134950500Y-64291294D01*
X134950500Y-64261778D01*
X134950500Y-64261772D01*
X134949631Y-64254901D01*
X134949173Y-64249074D01*
X134948967Y-64242517D01*
X134947710Y-64202495D01*
X134942119Y-64183252D01*
X134938173Y-64164200D01*
X134935664Y-64144330D01*
X134918504Y-64100989D01*
X134916624Y-64095501D01*
X134903618Y-64050732D01*
X134893422Y-64033492D01*
X134884861Y-64016016D01*
X134877487Y-63997392D01*
X134877413Y-63997290D01*
X134850079Y-63959667D01*
X134846888Y-63954808D01*
X134823172Y-63914705D01*
X134823165Y-63914696D01*
X134809006Y-63900537D01*
X134796368Y-63885741D01*
X134785781Y-63871169D01*
X134784594Y-63869535D01*
X134748688Y-63839831D01*
X134744376Y-63835908D01*
X134171508Y-63263039D01*
X134138023Y-63201716D01*
X134143007Y-63132024D01*
X134171505Y-63087679D01*
X134200047Y-63059139D01*
X134330568Y-62872734D01*
X134426739Y-62666496D01*
X134485635Y-62446692D01*
X134505468Y-62220000D01*
X134485635Y-61993308D01*
X134426739Y-61773504D01*
X134330568Y-61567266D01*
X134200047Y-61380861D01*
X134200045Y-61380858D01*
X134039141Y-61219954D01*
X133852734Y-61089432D01*
X133852728Y-61089429D01*
X133794725Y-61062382D01*
X133742285Y-61016210D01*
X133723133Y-60949017D01*
X133743348Y-60882135D01*
X133794725Y-60837618D01*
X133852734Y-60810568D01*
X134039139Y-60680047D01*
X134200047Y-60519139D01*
X134330568Y-60332734D01*
X134426739Y-60126496D01*
X134485635Y-59906692D01*
X134505468Y-59680000D01*
X134485635Y-59453308D01*
X134467318Y-59384948D01*
X134468981Y-59315103D01*
X134499410Y-59265179D01*
X137213788Y-56550801D01*
X137226042Y-56540986D01*
X137225859Y-56540764D01*
X137231866Y-56535792D01*
X137231877Y-56535786D01*
X137265440Y-56500045D01*
X137279227Y-56485364D01*
X137289671Y-56474918D01*
X137300120Y-56464471D01*
X137304379Y-56458978D01*
X137308152Y-56454561D01*
X137340062Y-56420582D01*
X137349713Y-56403024D01*
X137360396Y-56386761D01*
X137372673Y-56370936D01*
X137391185Y-56328153D01*
X137393738Y-56322941D01*
X137416197Y-56282092D01*
X137421180Y-56262680D01*
X137427481Y-56244280D01*
X137435437Y-56225896D01*
X137442729Y-56179852D01*
X137443906Y-56174171D01*
X137455500Y-56129019D01*
X137455500Y-56108983D01*
X137457027Y-56089582D01*
X137457048Y-56089452D01*
X137460160Y-56069804D01*
X137455775Y-56023415D01*
X137455500Y-56017577D01*
X137455500Y-53275226D01*
X137475185Y-53208187D01*
X137508374Y-53173654D01*
X137701401Y-53038495D01*
X137868495Y-52871401D01*
X137998425Y-52685842D01*
X138053002Y-52642217D01*
X138122500Y-52635023D01*
X138184855Y-52666546D01*
X138201575Y-52685842D01*
X138331281Y-52871082D01*
X138331505Y-52871401D01*
X138498599Y-53038495D01*
X138577918Y-53094035D01*
X138692165Y-53174032D01*
X138692167Y-53174033D01*
X138692170Y-53174035D01*
X138906337Y-53273903D01*
X138906343Y-53273904D01*
X138906344Y-53273905D01*
X138961285Y-53288626D01*
X139134592Y-53335063D01*
X139322918Y-53351539D01*
X139369999Y-53355659D01*
X139370000Y-53355659D01*
X139370001Y-53355659D01*
X139409234Y-53352226D01*
X139605408Y-53335063D01*
X139833663Y-53273903D01*
X140047830Y-53174035D01*
X140241401Y-53038495D01*
X140408495Y-52871401D01*
X140538730Y-52685405D01*
X140593307Y-52641781D01*
X140662805Y-52634587D01*
X140725160Y-52666110D01*
X140741879Y-52685405D01*
X140871890Y-52871078D01*
X141038917Y-53038105D01*
X141232421Y-53173600D01*
X141446507Y-53273429D01*
X141446516Y-53273433D01*
X141660000Y-53330634D01*
X141660000Y-52435501D01*
X141767685Y-52484680D01*
X141874237Y-52500000D01*
X141945763Y-52500000D01*
X142052315Y-52484680D01*
X142160000Y-52435501D01*
X142160000Y-53330633D01*
G37*
%TD.AperFunction*%
%TA.AperFunction,Conductor*%
G36*
X112656709Y-50020185D02*
G01*
X112702464Y-50072989D01*
X112712408Y-50142147D01*
X112683383Y-50205703D01*
X112624605Y-50243477D01*
X112624267Y-50243576D01*
X112614610Y-50246381D01*
X112597366Y-50256579D01*
X112579905Y-50265133D01*
X112561274Y-50272510D01*
X112561262Y-50272517D01*
X112523570Y-50299902D01*
X112518687Y-50303109D01*
X112478580Y-50326829D01*
X112464414Y-50340995D01*
X112449624Y-50353627D01*
X112433414Y-50365404D01*
X112433411Y-50365407D01*
X112403710Y-50401309D01*
X112399777Y-50405631D01*
X112104821Y-50700586D01*
X112043498Y-50734071D01*
X111985048Y-50732680D01*
X111916697Y-50714366D01*
X111916693Y-50714365D01*
X111916692Y-50714365D01*
X111803346Y-50704448D01*
X111690001Y-50694532D01*
X111689998Y-50694532D01*
X111463313Y-50714364D01*
X111463302Y-50714366D01*
X111243511Y-50773258D01*
X111243502Y-50773261D01*
X111037267Y-50869431D01*
X111037265Y-50869432D01*
X110850858Y-50999954D01*
X110689954Y-51160858D01*
X110559432Y-51347265D01*
X110559431Y-51347267D01*
X110463261Y-51553502D01*
X110463258Y-51553511D01*
X110404366Y-51773302D01*
X110404364Y-51773313D01*
X110384532Y-51999998D01*
X110384532Y-52000001D01*
X110404364Y-52226686D01*
X110404366Y-52226697D01*
X110463258Y-52446488D01*
X110463261Y-52446497D01*
X110559431Y-52652732D01*
X110559432Y-52652734D01*
X110689954Y-52839141D01*
X110850858Y-53000045D01*
X110850861Y-53000047D01*
X111037266Y-53130568D01*
X111182007Y-53198062D01*
X111234446Y-53244234D01*
X111253598Y-53311428D01*
X111233382Y-53378309D01*
X111217283Y-53398125D01*
X109458621Y-55156787D01*
X109397298Y-55190272D01*
X109327606Y-55185288D01*
X109279711Y-55153089D01*
X109269744Y-55142262D01*
X109269743Y-55142261D01*
X109269742Y-55142260D01*
X109087026Y-55000047D01*
X109073509Y-54989526D01*
X109073507Y-54989525D01*
X109073506Y-54989524D01*
X108854811Y-54871172D01*
X108854802Y-54871169D01*
X108619616Y-54790429D01*
X108374335Y-54749500D01*
X108125665Y-54749500D01*
X107880383Y-54790429D01*
X107645197Y-54871169D01*
X107645188Y-54871172D01*
X107426493Y-54989524D01*
X107230257Y-55142261D01*
X107061833Y-55325217D01*
X106925824Y-55533396D01*
X106918405Y-55550311D01*
X106873449Y-55603797D01*
X106806713Y-55624486D01*
X106804850Y-55624500D01*
X103195150Y-55624500D01*
X103128111Y-55604815D01*
X103082356Y-55552011D01*
X103081595Y-55550311D01*
X103074175Y-55533396D01*
X102938166Y-55325217D01*
X102861689Y-55242141D01*
X102769744Y-55142262D01*
X102573509Y-54989526D01*
X102573507Y-54989525D01*
X102573506Y-54989524D01*
X102354811Y-54871172D01*
X102354802Y-54871169D01*
X102119616Y-54790429D01*
X101874335Y-54749500D01*
X101625665Y-54749500D01*
X101380383Y-54790429D01*
X101145197Y-54871169D01*
X101145188Y-54871172D01*
X100926493Y-54989524D01*
X100730257Y-55142261D01*
X100561833Y-55325217D01*
X100425826Y-55533393D01*
X100325936Y-55761118D01*
X100264892Y-56002175D01*
X100264890Y-56002187D01*
X100248076Y-56205112D01*
X100230659Y-56250247D01*
X100243477Y-56270192D01*
X100248076Y-56294887D01*
X100264890Y-56497812D01*
X100264892Y-56497824D01*
X100325936Y-56738881D01*
X100425826Y-56966606D01*
X100561833Y-57174782D01*
X100561836Y-57174785D01*
X100730256Y-57357738D01*
X100926491Y-57510474D01*
X101145190Y-57628828D01*
X101380386Y-57709571D01*
X101625665Y-57750500D01*
X101874335Y-57750500D01*
X102119614Y-57709571D01*
X102354810Y-57628828D01*
X102573509Y-57510474D01*
X102769744Y-57357738D01*
X102938164Y-57174785D01*
X103074173Y-56966607D01*
X103074175Y-56966603D01*
X103081595Y-56949689D01*
X103126551Y-56896203D01*
X103193287Y-56875514D01*
X103195150Y-56875500D01*
X106804850Y-56875500D01*
X106871889Y-56895185D01*
X106917644Y-56947989D01*
X106918405Y-56949689D01*
X106925824Y-56966603D01*
X107061833Y-57174782D01*
X107061836Y-57174785D01*
X107230256Y-57357738D01*
X107426491Y-57510474D01*
X107645190Y-57628828D01*
X107880386Y-57709571D01*
X108125665Y-57750500D01*
X108374335Y-57750500D01*
X108619614Y-57709571D01*
X108854810Y-57628828D01*
X109073509Y-57510474D01*
X109269744Y-57357738D01*
X109438164Y-57174785D01*
X109574173Y-56966607D01*
X109674063Y-56738881D01*
X109674571Y-56736873D01*
X109675131Y-56735769D01*
X109675730Y-56734026D01*
X109675973Y-56734109D01*
X109699234Y-56688261D01*
X109711297Y-56673678D01*
X109715202Y-56669386D01*
X110330416Y-56054172D01*
X110391734Y-56020691D01*
X110461425Y-56025675D01*
X110517359Y-56067546D01*
X110530474Y-56089452D01*
X110559865Y-56152481D01*
X110559866Y-56152483D01*
X110610973Y-56225471D01*
X110610973Y-56225472D01*
X111292046Y-55544400D01*
X111304835Y-55625148D01*
X111362359Y-55738045D01*
X111451955Y-55827641D01*
X111564852Y-55885165D01*
X111645599Y-55897953D01*
X110964526Y-56579025D01*
X110964526Y-56579026D01*
X111037512Y-56630131D01*
X111037516Y-56630133D01*
X111243673Y-56726265D01*
X111243682Y-56726269D01*
X111463389Y-56785139D01*
X111463400Y-56785141D01*
X111689998Y-56804966D01*
X111690002Y-56804966D01*
X111916599Y-56785141D01*
X111916610Y-56785139D01*
X112136317Y-56726269D01*
X112136331Y-56726264D01*
X112342478Y-56630136D01*
X112415472Y-56579025D01*
X111734401Y-55897953D01*
X111815148Y-55885165D01*
X111928045Y-55827641D01*
X112017641Y-55738045D01*
X112075165Y-55625148D01*
X112087953Y-55544400D01*
X112769025Y-56225472D01*
X112820136Y-56152478D01*
X112916264Y-55946331D01*
X112916269Y-55946317D01*
X112975139Y-55726610D01*
X112975141Y-55726599D01*
X112994966Y-55500002D01*
X112994966Y-55499997D01*
X112975141Y-55273400D01*
X112975139Y-55273389D01*
X112916269Y-55053682D01*
X112916265Y-55053673D01*
X112820133Y-54847516D01*
X112820131Y-54847512D01*
X112769026Y-54774526D01*
X112769025Y-54774526D01*
X112087953Y-55455598D01*
X112075165Y-55374852D01*
X112017641Y-55261955D01*
X111928045Y-55172359D01*
X111815148Y-55114835D01*
X111734400Y-55102046D01*
X112424627Y-54411819D01*
X112485950Y-54378334D01*
X112512308Y-54375500D01*
X118295951Y-54375500D01*
X118362990Y-54395185D01*
X118408745Y-54447989D01*
X118418689Y-54517147D01*
X118389664Y-54580703D01*
X118383632Y-54587181D01*
X118309954Y-54660858D01*
X118179432Y-54847265D01*
X118179431Y-54847267D01*
X118083261Y-55053502D01*
X118083258Y-55053511D01*
X118024366Y-55273302D01*
X118024364Y-55273313D01*
X118004663Y-55498498D01*
X118004532Y-55500000D01*
X118024364Y-55726686D01*
X118024365Y-55726691D01*
X118024366Y-55726697D01*
X118042680Y-55795048D01*
X118041017Y-55864897D01*
X118010586Y-55914821D01*
X117616208Y-56309199D01*
X117603951Y-56319020D01*
X117604134Y-56319241D01*
X117598123Y-56324213D01*
X117550772Y-56374636D01*
X117529889Y-56395519D01*
X117529877Y-56395532D01*
X117525621Y-56401017D01*
X117521837Y-56405447D01*
X117489937Y-56439418D01*
X117489936Y-56439420D01*
X117480284Y-56456976D01*
X117469610Y-56473226D01*
X117457329Y-56489061D01*
X117457324Y-56489068D01*
X117438815Y-56531838D01*
X117436245Y-56537084D01*
X117413803Y-56577906D01*
X117408822Y-56597307D01*
X117402521Y-56615710D01*
X117394562Y-56634102D01*
X117394561Y-56634105D01*
X117387271Y-56680127D01*
X117386087Y-56685846D01*
X117374501Y-56730972D01*
X117374500Y-56730982D01*
X117374500Y-56751016D01*
X117372973Y-56770415D01*
X117369840Y-56790194D01*
X117369840Y-56790195D01*
X117374225Y-56836583D01*
X117374500Y-56842421D01*
X117374500Y-63725500D01*
X117354815Y-63792539D01*
X117302011Y-63838294D01*
X117250501Y-63849500D01*
X117052130Y-63849500D01*
X117052123Y-63849501D01*
X116992516Y-63855908D01*
X116857671Y-63906202D01*
X116857664Y-63906206D01*
X116742455Y-63992452D01*
X116742452Y-63992455D01*
X116656206Y-64107664D01*
X116656202Y-64107671D01*
X116605908Y-64242517D01*
X116599501Y-64302116D01*
X116599500Y-64302135D01*
X116599500Y-66197870D01*
X116599501Y-66197876D01*
X116605908Y-66257483D01*
X116656202Y-66392328D01*
X116656206Y-66392335D01*
X116742452Y-66507544D01*
X116742455Y-66507547D01*
X116857664Y-66593793D01*
X116857671Y-66593797D01*
X116992517Y-66644091D01*
X116992516Y-66644091D01*
X116999444Y-66644835D01*
X117052127Y-66650500D01*
X117955546Y-66650499D01*
X118022585Y-66670183D01*
X118068340Y-66722987D01*
X118078284Y-66792146D01*
X118049259Y-66855702D01*
X118043227Y-66862180D01*
X116537228Y-68368181D01*
X116475905Y-68401666D01*
X116449547Y-68404500D01*
X114300227Y-68404500D01*
X114233188Y-68384815D01*
X114198652Y-68351623D01*
X114063494Y-68158597D01*
X113896402Y-67991506D01*
X113896396Y-67991501D01*
X113710842Y-67861575D01*
X113667217Y-67806998D01*
X113660023Y-67737500D01*
X113691546Y-67675145D01*
X113710842Y-67658425D01*
X113783066Y-67607853D01*
X113896401Y-67528495D01*
X114063495Y-67361401D01*
X114199035Y-67167830D01*
X114298903Y-66953663D01*
X114360063Y-66725408D01*
X114380659Y-66490000D01*
X114380495Y-66488131D01*
X114369087Y-66357738D01*
X114360063Y-66254592D01*
X114299993Y-66030406D01*
X114298905Y-66026344D01*
X114298904Y-66026343D01*
X114298903Y-66026337D01*
X114199035Y-65812171D01*
X114162536Y-65760045D01*
X114063496Y-65618600D01*
X114006192Y-65561296D01*
X113941567Y-65496671D01*
X113908084Y-65435351D01*
X113913068Y-65365659D01*
X113954939Y-65309725D01*
X113985915Y-65292810D01*
X114117331Y-65243796D01*
X114232546Y-65157546D01*
X114318796Y-65042331D01*
X114369091Y-64907483D01*
X114375500Y-64847873D01*
X114375499Y-63052128D01*
X114369091Y-62992517D01*
X114353755Y-62951400D01*
X114318797Y-62857671D01*
X114318793Y-62857664D01*
X114232547Y-62742455D01*
X114232544Y-62742452D01*
X114117335Y-62656206D01*
X114117328Y-62656202D01*
X113982482Y-62605908D01*
X113982483Y-62605908D01*
X113922883Y-62599501D01*
X113922881Y-62599500D01*
X113922873Y-62599500D01*
X113922864Y-62599500D01*
X112127129Y-62599500D01*
X112127123Y-62599501D01*
X112067516Y-62605908D01*
X111932671Y-62656202D01*
X111932664Y-62656206D01*
X111817455Y-62742452D01*
X111817452Y-62742455D01*
X111731206Y-62857664D01*
X111731202Y-62857671D01*
X111680908Y-62992517D01*
X111674501Y-63052116D01*
X111674501Y-63052123D01*
X111674500Y-63052135D01*
X111674500Y-63639547D01*
X111654815Y-63706586D01*
X111638181Y-63727228D01*
X110027228Y-65338181D01*
X109965905Y-65371666D01*
X109939547Y-65374500D01*
X109879643Y-65374500D01*
X109812604Y-65354815D01*
X109766849Y-65302011D01*
X109756635Y-65255063D01*
X109756067Y-65255111D01*
X109755710Y-65250811D01*
X109755643Y-65250500D01*
X109755643Y-65249994D01*
X109735109Y-65002187D01*
X109735107Y-65002175D01*
X109674063Y-64761118D01*
X109574173Y-64533393D01*
X109438166Y-64325217D01*
X109416557Y-64301744D01*
X109269744Y-64142262D01*
X109073509Y-63989526D01*
X109073507Y-63989525D01*
X109073506Y-63989524D01*
X108854811Y-63871172D01*
X108854802Y-63871169D01*
X108619616Y-63790429D01*
X108374335Y-63749500D01*
X108125665Y-63749500D01*
X107880383Y-63790429D01*
X107645197Y-63871169D01*
X107645188Y-63871172D01*
X107426493Y-63989524D01*
X107274707Y-64107664D01*
X107230256Y-64142262D01*
X107228352Y-64144330D01*
X107061833Y-64325217D01*
X106925824Y-64533396D01*
X106918405Y-64550311D01*
X106873449Y-64603797D01*
X106806713Y-64624486D01*
X106804850Y-64624500D01*
X103195150Y-64624500D01*
X103128111Y-64604815D01*
X103082356Y-64552011D01*
X103081595Y-64550311D01*
X103074175Y-64533396D01*
X102938166Y-64325217D01*
X102916557Y-64301744D01*
X102769744Y-64142262D01*
X102573509Y-63989526D01*
X102573507Y-63989525D01*
X102573506Y-63989524D01*
X102354811Y-63871172D01*
X102354802Y-63871169D01*
X102119616Y-63790429D01*
X101874335Y-63749500D01*
X101625665Y-63749500D01*
X101380383Y-63790429D01*
X101145197Y-63871169D01*
X101145188Y-63871172D01*
X100926493Y-63989524D01*
X100774707Y-64107664D01*
X100730256Y-64142262D01*
X100728352Y-64144330D01*
X100561833Y-64325217D01*
X100425826Y-64533393D01*
X100325936Y-64761118D01*
X100264892Y-65002175D01*
X100264890Y-65002187D01*
X100248076Y-65205112D01*
X100230659Y-65250247D01*
X100243477Y-65270192D01*
X100248076Y-65294887D01*
X100264890Y-65497812D01*
X100264892Y-65497824D01*
X100325936Y-65738881D01*
X100425826Y-65966606D01*
X100561833Y-66174782D01*
X100561836Y-66174785D01*
X100730256Y-66357738D01*
X100926491Y-66510474D01*
X100975392Y-66536938D01*
X101139548Y-66625775D01*
X101145190Y-66628828D01*
X101380386Y-66709571D01*
X101625665Y-66750500D01*
X101874335Y-66750500D01*
X102119614Y-66709571D01*
X102354810Y-66628828D01*
X102573509Y-66510474D01*
X102769744Y-66357738D01*
X102938164Y-66174785D01*
X103074173Y-65966607D01*
X103075277Y-65964091D01*
X103081595Y-65949689D01*
X103126551Y-65896203D01*
X103193287Y-65875514D01*
X103195150Y-65875500D01*
X106804850Y-65875500D01*
X106871889Y-65895185D01*
X106917644Y-65947989D01*
X106918405Y-65949689D01*
X106925824Y-65966603D01*
X107061833Y-66174782D01*
X107061836Y-66174785D01*
X107230256Y-66357738D01*
X107426491Y-66510474D01*
X107475392Y-66536938D01*
X107639548Y-66625775D01*
X107645190Y-66628828D01*
X107880386Y-66709571D01*
X108125665Y-66750500D01*
X108374335Y-66750500D01*
X108619614Y-66709571D01*
X108853543Y-66629263D01*
X108912981Y-66626580D01*
X108913242Y-66624522D01*
X108920979Y-66625499D01*
X108920981Y-66625500D01*
X108941016Y-66625500D01*
X108960414Y-66627026D01*
X108980194Y-66630159D01*
X108980195Y-66630160D01*
X108980195Y-66630159D01*
X108980196Y-66630160D01*
X109026584Y-66625775D01*
X109032422Y-66625500D01*
X110167257Y-66625500D01*
X110182877Y-66627224D01*
X110182904Y-66626939D01*
X110190660Y-66627671D01*
X110190667Y-66627673D01*
X110259814Y-66625500D01*
X110289350Y-66625500D01*
X110296228Y-66624630D01*
X110302041Y-66624172D01*
X110348627Y-66622709D01*
X110367869Y-66617117D01*
X110386912Y-66613174D01*
X110406792Y-66610664D01*
X110450122Y-66593507D01*
X110455646Y-66591617D01*
X110457410Y-66591104D01*
X110500390Y-66578618D01*
X110506573Y-66574961D01*
X110574293Y-66557776D01*
X110640557Y-66579932D01*
X110684323Y-66634396D01*
X110691696Y-66703875D01*
X110678361Y-66741426D01*
X110663803Y-66767908D01*
X110658822Y-66787307D01*
X110652521Y-66805710D01*
X110644562Y-66824102D01*
X110644561Y-66824105D01*
X110637271Y-66870127D01*
X110636087Y-66875846D01*
X110624501Y-66920972D01*
X110624500Y-66920982D01*
X110624500Y-66941016D01*
X110622973Y-66960415D01*
X110619840Y-66980194D01*
X110619840Y-66980195D01*
X110624225Y-67026583D01*
X110624500Y-67032421D01*
X110624500Y-70439546D01*
X110604815Y-70506585D01*
X110588181Y-70527227D01*
X108126495Y-72988912D01*
X108065172Y-73022397D01*
X108018405Y-73023540D01*
X107874335Y-72999500D01*
X107625665Y-72999500D01*
X107380383Y-73040429D01*
X107145197Y-73121169D01*
X107145188Y-73121172D01*
X106926491Y-73239525D01*
X106926487Y-73239528D01*
X106786670Y-73348353D01*
X106721676Y-73373996D01*
X106710508Y-73374500D01*
X102289492Y-73374500D01*
X102222453Y-73354815D01*
X102213330Y-73348353D01*
X102073512Y-73239528D01*
X102073508Y-73239525D01*
X101854811Y-73121172D01*
X101854802Y-73121169D01*
X101619616Y-73040429D01*
X101374335Y-72999500D01*
X101125665Y-72999500D01*
X100880383Y-73040429D01*
X100645197Y-73121169D01*
X100645188Y-73121172D01*
X100426493Y-73239524D01*
X100230255Y-73392262D01*
X100230252Y-73392265D01*
X100215729Y-73408042D01*
X100155842Y-73444033D01*
X100086004Y-73441932D01*
X100028388Y-73402408D01*
X100001287Y-73338008D01*
X100000500Y-73324059D01*
X100000500Y-70947308D01*
X100020185Y-70880269D01*
X100036819Y-70859627D01*
X100724070Y-70172376D01*
X100726884Y-70185915D01*
X100796442Y-70320156D01*
X100899638Y-70430652D01*
X101028819Y-70509209D01*
X101080002Y-70523549D01*
X100379942Y-71223609D01*
X100426768Y-71260055D01*
X100426770Y-71260056D01*
X100645385Y-71378364D01*
X100645396Y-71378369D01*
X100880506Y-71459083D01*
X101125707Y-71500000D01*
X101374293Y-71500000D01*
X101619493Y-71459083D01*
X101854603Y-71378369D01*
X101854614Y-71378364D01*
X102073228Y-71260057D01*
X102073231Y-71260055D01*
X102120056Y-71223609D01*
X101421568Y-70525121D01*
X101538458Y-70474349D01*
X101655739Y-70378934D01*
X101742928Y-70255415D01*
X101773354Y-70169802D01*
X102473434Y-70869882D01*
X102573731Y-70716369D01*
X102673587Y-70488717D01*
X102734612Y-70247738D01*
X102734614Y-70247729D01*
X102755141Y-70000005D01*
X106244859Y-70000005D01*
X106265385Y-70247729D01*
X106265387Y-70247738D01*
X106326412Y-70488717D01*
X106426266Y-70716364D01*
X106526564Y-70869882D01*
X107224070Y-70172376D01*
X107226884Y-70185915D01*
X107296442Y-70320156D01*
X107399638Y-70430652D01*
X107528819Y-70509209D01*
X107580002Y-70523549D01*
X106879942Y-71223609D01*
X106926768Y-71260055D01*
X106926770Y-71260056D01*
X107145385Y-71378364D01*
X107145396Y-71378369D01*
X107380506Y-71459083D01*
X107625707Y-71500000D01*
X107874293Y-71500000D01*
X108119493Y-71459083D01*
X108354603Y-71378369D01*
X108354614Y-71378364D01*
X108573228Y-71260057D01*
X108573231Y-71260055D01*
X108620056Y-71223609D01*
X107921568Y-70525121D01*
X108038458Y-70474349D01*
X108155739Y-70378934D01*
X108242928Y-70255415D01*
X108273354Y-70169802D01*
X108973434Y-70869882D01*
X109073731Y-70716369D01*
X109173587Y-70488717D01*
X109234612Y-70247738D01*
X109234614Y-70247729D01*
X109255141Y-70000005D01*
X109255141Y-69999994D01*
X109234614Y-69752270D01*
X109234612Y-69752261D01*
X109173587Y-69511282D01*
X109073731Y-69283630D01*
X108973434Y-69130116D01*
X108275929Y-69827622D01*
X108273116Y-69814085D01*
X108203558Y-69679844D01*
X108100362Y-69569348D01*
X107971181Y-69490791D01*
X107919997Y-69476450D01*
X108620057Y-68776390D01*
X108620056Y-68776389D01*
X108573229Y-68739943D01*
X108354614Y-68621635D01*
X108354603Y-68621630D01*
X108119493Y-68540916D01*
X107874293Y-68500000D01*
X107625707Y-68500000D01*
X107380506Y-68540916D01*
X107145396Y-68621630D01*
X107145390Y-68621632D01*
X106926761Y-68739949D01*
X106879942Y-68776388D01*
X106879942Y-68776390D01*
X107578431Y-69474878D01*
X107461542Y-69525651D01*
X107344261Y-69621066D01*
X107257072Y-69744585D01*
X107226645Y-69830197D01*
X106526564Y-69130116D01*
X106426267Y-69283632D01*
X106326412Y-69511282D01*
X106265387Y-69752261D01*
X106265385Y-69752270D01*
X106244859Y-69999994D01*
X106244859Y-70000005D01*
X102755141Y-70000005D01*
X102755141Y-69999994D01*
X102734614Y-69752270D01*
X102734612Y-69752261D01*
X102673587Y-69511282D01*
X102573731Y-69283630D01*
X102473434Y-69130116D01*
X101775929Y-69827622D01*
X101773116Y-69814085D01*
X101703558Y-69679844D01*
X101600362Y-69569348D01*
X101471181Y-69490791D01*
X101419997Y-69476450D01*
X102120057Y-68776390D01*
X102120056Y-68776389D01*
X102073229Y-68739943D01*
X101854614Y-68621635D01*
X101854603Y-68621630D01*
X101619493Y-68540916D01*
X101374293Y-68500000D01*
X101125707Y-68500000D01*
X100880506Y-68540916D01*
X100645396Y-68621630D01*
X100645390Y-68621632D01*
X100426761Y-68739949D01*
X100379942Y-68776388D01*
X100379942Y-68776390D01*
X101078431Y-69474878D01*
X100961542Y-69525651D01*
X100844261Y-69621066D01*
X100757072Y-69744585D01*
X100726645Y-69830198D01*
X100036819Y-69140372D01*
X100003334Y-69079049D01*
X100000500Y-69052691D01*
X100000500Y-65305127D01*
X100017532Y-65247121D01*
X100003044Y-65219862D01*
X100000500Y-65194872D01*
X100000500Y-60799069D01*
X100015240Y-60748868D01*
X100015169Y-60748735D01*
X100233580Y-60748735D01*
X100243477Y-60764134D01*
X100248076Y-60788829D01*
X100265385Y-60997730D01*
X100265387Y-60997738D01*
X100326412Y-61238717D01*
X100426266Y-61466364D01*
X100526564Y-61619882D01*
X101224070Y-60922376D01*
X101226884Y-60935915D01*
X101296442Y-61070156D01*
X101399638Y-61180652D01*
X101528819Y-61259209D01*
X101580002Y-61273549D01*
X100879942Y-61973609D01*
X100926768Y-62010055D01*
X100926770Y-62010056D01*
X101145385Y-62128364D01*
X101145396Y-62128369D01*
X101380506Y-62209083D01*
X101625707Y-62250000D01*
X101874293Y-62250000D01*
X102119493Y-62209083D01*
X102354603Y-62128369D01*
X102354614Y-62128364D01*
X102573228Y-62010057D01*
X102573231Y-62010055D01*
X102620056Y-61973609D01*
X101921568Y-61275121D01*
X102038458Y-61224349D01*
X102155739Y-61128934D01*
X102242928Y-61005415D01*
X102273354Y-60919802D01*
X102973434Y-61619882D01*
X103073731Y-61466369D01*
X103173587Y-61238717D01*
X103234612Y-60997738D01*
X103234614Y-60997729D01*
X103255141Y-60750005D01*
X106744859Y-60750005D01*
X106765385Y-60997729D01*
X106765387Y-60997738D01*
X106826412Y-61238717D01*
X106926266Y-61466364D01*
X107026564Y-61619882D01*
X107724070Y-60922376D01*
X107726884Y-60935915D01*
X107796442Y-61070156D01*
X107899638Y-61180652D01*
X108028819Y-61259209D01*
X108080002Y-61273549D01*
X107379942Y-61973609D01*
X107426768Y-62010055D01*
X107426770Y-62010056D01*
X107645385Y-62128364D01*
X107645396Y-62128369D01*
X107880506Y-62209083D01*
X108125707Y-62250000D01*
X108374293Y-62250000D01*
X108619493Y-62209083D01*
X108854603Y-62128369D01*
X108854614Y-62128364D01*
X109073228Y-62010057D01*
X109073231Y-62010055D01*
X109120056Y-61973609D01*
X108421568Y-61275121D01*
X108538458Y-61224349D01*
X108655739Y-61128934D01*
X108742928Y-61005415D01*
X108773354Y-60919802D01*
X109473434Y-61619882D01*
X109573731Y-61466369D01*
X109673587Y-61238717D01*
X109734612Y-60997738D01*
X109734614Y-60997729D01*
X109755141Y-60750005D01*
X109755141Y-60749994D01*
X109734614Y-60502270D01*
X109734612Y-60502261D01*
X109673587Y-60261282D01*
X109573731Y-60033630D01*
X109473434Y-59880116D01*
X108775929Y-60577622D01*
X108773116Y-60564085D01*
X108703558Y-60429844D01*
X108600362Y-60319348D01*
X108471181Y-60240791D01*
X108419997Y-60226450D01*
X109120057Y-59526390D01*
X109120056Y-59526389D01*
X109073229Y-59489943D01*
X108854614Y-59371635D01*
X108854603Y-59371630D01*
X108619493Y-59290916D01*
X108374293Y-59250000D01*
X110385034Y-59250000D01*
X110404858Y-59476599D01*
X110404860Y-59476610D01*
X110463730Y-59696317D01*
X110463734Y-59696326D01*
X110559865Y-59902481D01*
X110559866Y-59902483D01*
X110610973Y-59975471D01*
X110610974Y-59975472D01*
X111292046Y-59294399D01*
X111304835Y-59375148D01*
X111362359Y-59488045D01*
X111451955Y-59577641D01*
X111564852Y-59635165D01*
X111645599Y-59647953D01*
X110964526Y-60329025D01*
X110964526Y-60329026D01*
X111037512Y-60380131D01*
X111037516Y-60380133D01*
X111243673Y-60476265D01*
X111243682Y-60476269D01*
X111463389Y-60535139D01*
X111463400Y-60535141D01*
X111689998Y-60554966D01*
X111690002Y-60554966D01*
X111916599Y-60535141D01*
X111916610Y-60535139D01*
X112136317Y-60476269D01*
X112136331Y-60476264D01*
X112342478Y-60380136D01*
X112415472Y-60329025D01*
X111734401Y-59647953D01*
X111815148Y-59635165D01*
X111928045Y-59577641D01*
X112017641Y-59488045D01*
X112075165Y-59375148D01*
X112087953Y-59294400D01*
X112769025Y-59975472D01*
X112820136Y-59902478D01*
X112916264Y-59696331D01*
X112916269Y-59696317D01*
X112975139Y-59476610D01*
X112975141Y-59476599D01*
X112994966Y-59250000D01*
X112994966Y-59249997D01*
X112975141Y-59023400D01*
X112975139Y-59023389D01*
X112916269Y-58803682D01*
X112916265Y-58803673D01*
X112820133Y-58597516D01*
X112820131Y-58597512D01*
X112769026Y-58524526D01*
X112769025Y-58524526D01*
X112087953Y-59205598D01*
X112075165Y-59124852D01*
X112017641Y-59011955D01*
X111928045Y-58922359D01*
X111815148Y-58864835D01*
X111734400Y-58852046D01*
X112415472Y-58170974D01*
X112415471Y-58170973D01*
X112342483Y-58119866D01*
X112342481Y-58119865D01*
X112136326Y-58023734D01*
X112136317Y-58023730D01*
X111916610Y-57964860D01*
X111916599Y-57964858D01*
X111690002Y-57945034D01*
X111689998Y-57945034D01*
X111463400Y-57964858D01*
X111463389Y-57964860D01*
X111243682Y-58023730D01*
X111243673Y-58023734D01*
X111037513Y-58119868D01*
X110964527Y-58170972D01*
X110964526Y-58170973D01*
X111645600Y-58852046D01*
X111564852Y-58864835D01*
X111451955Y-58922359D01*
X111362359Y-59011955D01*
X111304835Y-59124852D01*
X111292046Y-59205599D01*
X110610973Y-58524526D01*
X110610972Y-58524527D01*
X110559868Y-58597513D01*
X110463734Y-58803673D01*
X110463730Y-58803682D01*
X110404860Y-59023389D01*
X110404858Y-59023400D01*
X110385034Y-59249997D01*
X110385034Y-59250000D01*
X108374293Y-59250000D01*
X108125707Y-59250000D01*
X107880506Y-59290916D01*
X107645396Y-59371630D01*
X107645390Y-59371632D01*
X107426761Y-59489949D01*
X107379942Y-59526388D01*
X107379942Y-59526390D01*
X108078431Y-60224878D01*
X107961542Y-60275651D01*
X107844261Y-60371066D01*
X107757072Y-60494585D01*
X107726645Y-60580197D01*
X107026564Y-59880116D01*
X106926267Y-60033632D01*
X106826412Y-60261282D01*
X106765387Y-60502261D01*
X106765385Y-60502270D01*
X106744859Y-60749994D01*
X106744859Y-60750005D01*
X103255141Y-60750005D01*
X103255141Y-60749994D01*
X103234614Y-60502270D01*
X103234612Y-60502261D01*
X103173587Y-60261282D01*
X103073731Y-60033630D01*
X102973434Y-59880116D01*
X102275929Y-60577622D01*
X102273116Y-60564085D01*
X102203558Y-60429844D01*
X102100362Y-60319348D01*
X101971181Y-60240791D01*
X101919997Y-60226450D01*
X102620057Y-59526390D01*
X102620056Y-59526389D01*
X102573229Y-59489943D01*
X102354614Y-59371635D01*
X102354603Y-59371630D01*
X102119493Y-59290916D01*
X101874293Y-59250000D01*
X101625707Y-59250000D01*
X101380506Y-59290916D01*
X101145396Y-59371630D01*
X101145390Y-59371632D01*
X100926761Y-59489949D01*
X100879942Y-59526388D01*
X100879942Y-59526390D01*
X101578431Y-60224878D01*
X101461542Y-60275651D01*
X101344261Y-60371066D01*
X101257072Y-60494585D01*
X101226645Y-60580197D01*
X100526564Y-59880116D01*
X100426267Y-60033632D01*
X100326412Y-60261282D01*
X100265387Y-60502261D01*
X100265385Y-60502270D01*
X100248076Y-60711170D01*
X100233580Y-60748735D01*
X100015169Y-60748735D01*
X100003044Y-60725921D01*
X100000500Y-60700930D01*
X100000500Y-56305127D01*
X100017532Y-56247121D01*
X100003044Y-56219862D01*
X100000500Y-56194872D01*
X100000500Y-51799069D01*
X100015240Y-51748868D01*
X100015169Y-51748735D01*
X100233580Y-51748735D01*
X100243477Y-51764134D01*
X100248076Y-51788829D01*
X100265385Y-51997730D01*
X100265387Y-51997738D01*
X100326412Y-52238717D01*
X100426266Y-52466364D01*
X100526564Y-52619882D01*
X101224070Y-51922376D01*
X101226884Y-51935915D01*
X101296442Y-52070156D01*
X101399638Y-52180652D01*
X101528819Y-52259209D01*
X101580002Y-52273549D01*
X100879942Y-52973609D01*
X100926768Y-53010055D01*
X100926770Y-53010056D01*
X101145385Y-53128364D01*
X101145396Y-53128369D01*
X101380506Y-53209083D01*
X101625707Y-53250000D01*
X101874293Y-53250000D01*
X102119493Y-53209083D01*
X102354603Y-53128369D01*
X102354614Y-53128364D01*
X102573228Y-53010057D01*
X102573231Y-53010055D01*
X102620056Y-52973609D01*
X101921568Y-52275121D01*
X102038458Y-52224349D01*
X102155739Y-52128934D01*
X102242928Y-52005415D01*
X102273354Y-51919802D01*
X102973434Y-52619882D01*
X103073731Y-52466369D01*
X103173587Y-52238717D01*
X103234612Y-51997738D01*
X103234614Y-51997729D01*
X103255141Y-51750000D01*
X106744859Y-51750000D01*
X106765385Y-51997729D01*
X106765387Y-51997738D01*
X106826412Y-52238717D01*
X106926266Y-52466364D01*
X107026564Y-52619882D01*
X107724070Y-51922376D01*
X107726884Y-51935915D01*
X107796442Y-52070156D01*
X107899638Y-52180652D01*
X108028819Y-52259209D01*
X108080002Y-52273549D01*
X107379942Y-52973609D01*
X107426768Y-53010055D01*
X107426770Y-53010056D01*
X107645385Y-53128364D01*
X107645396Y-53128369D01*
X107880506Y-53209083D01*
X108125707Y-53250000D01*
X108374293Y-53250000D01*
X108619493Y-53209083D01*
X108854603Y-53128369D01*
X108854614Y-53128364D01*
X109073228Y-53010057D01*
X109073231Y-53010055D01*
X109120056Y-52973609D01*
X108421568Y-52275121D01*
X108538458Y-52224349D01*
X108655739Y-52128934D01*
X108742928Y-52005415D01*
X108773354Y-51919802D01*
X109473434Y-52619882D01*
X109573731Y-52466369D01*
X109673587Y-52238717D01*
X109734612Y-51997738D01*
X109734614Y-51997729D01*
X109755141Y-51750000D01*
X109755141Y-51749994D01*
X109734614Y-51502270D01*
X109734612Y-51502261D01*
X109673587Y-51261282D01*
X109573731Y-51033630D01*
X109473434Y-50880116D01*
X108775929Y-51577622D01*
X108773116Y-51564085D01*
X108703558Y-51429844D01*
X108600362Y-51319348D01*
X108471181Y-51240791D01*
X108419997Y-51226450D01*
X109120057Y-50526390D01*
X109120056Y-50526389D01*
X109073229Y-50489943D01*
X108854614Y-50371635D01*
X108854603Y-50371630D01*
X108619493Y-50290916D01*
X108374293Y-50250000D01*
X108125707Y-50250000D01*
X107880506Y-50290916D01*
X107645396Y-50371630D01*
X107645390Y-50371632D01*
X107426761Y-50489949D01*
X107379942Y-50526388D01*
X107379942Y-50526390D01*
X108078431Y-51224878D01*
X107961542Y-51275651D01*
X107844261Y-51371066D01*
X107757072Y-51494585D01*
X107726645Y-51580197D01*
X107026564Y-50880116D01*
X106926267Y-51033632D01*
X106826412Y-51261282D01*
X106765387Y-51502261D01*
X106765385Y-51502270D01*
X106744859Y-51749994D01*
X106744859Y-51750000D01*
X103255141Y-51750000D01*
X103255141Y-51749994D01*
X103234614Y-51502270D01*
X103234612Y-51502261D01*
X103173587Y-51261282D01*
X103073731Y-51033630D01*
X102973434Y-50880116D01*
X102275929Y-51577622D01*
X102273116Y-51564085D01*
X102203558Y-51429844D01*
X102100362Y-51319348D01*
X101971181Y-51240791D01*
X101919997Y-51226450D01*
X102620057Y-50526390D01*
X102620056Y-50526389D01*
X102573229Y-50489943D01*
X102354614Y-50371635D01*
X102354603Y-50371630D01*
X102119493Y-50290916D01*
X101874293Y-50250000D01*
X101625707Y-50250000D01*
X101380506Y-50290916D01*
X101145396Y-50371630D01*
X101145390Y-50371632D01*
X100926761Y-50489949D01*
X100879942Y-50526388D01*
X100879942Y-50526390D01*
X101578431Y-51224878D01*
X101461542Y-51275651D01*
X101344261Y-51371066D01*
X101257072Y-51494585D01*
X101226645Y-51580197D01*
X100526564Y-50880116D01*
X100426267Y-51033632D01*
X100326412Y-51261282D01*
X100265387Y-51502261D01*
X100265385Y-51502270D01*
X100248076Y-51711170D01*
X100233580Y-51748735D01*
X100015169Y-51748735D01*
X100003044Y-51725921D01*
X100000500Y-51700930D01*
X100000500Y-50124500D01*
X100020185Y-50057461D01*
X100072989Y-50011706D01*
X100124500Y-50000500D01*
X112589670Y-50000500D01*
X112656709Y-50020185D01*
G37*
%TD.AperFunction*%
%TA.AperFunction,Conductor*%
G36*
X146766812Y-69020185D02*
G01*
X146801348Y-69053377D01*
X146936501Y-69246396D01*
X146936506Y-69246402D01*
X147103597Y-69413493D01*
X147103603Y-69413498D01*
X147289158Y-69543425D01*
X147332783Y-69598002D01*
X147339977Y-69667500D01*
X147308454Y-69729855D01*
X147289158Y-69746575D01*
X147103597Y-69876505D01*
X146936505Y-70043597D01*
X146801348Y-70236623D01*
X146746771Y-70280248D01*
X146699773Y-70289500D01*
X145167743Y-70289500D01*
X145152122Y-70287775D01*
X145152095Y-70288061D01*
X145144333Y-70287326D01*
X145075172Y-70289500D01*
X145045649Y-70289500D01*
X145038778Y-70290367D01*
X145032959Y-70290825D01*
X144986374Y-70292289D01*
X144986368Y-70292290D01*
X144967126Y-70297880D01*
X144948087Y-70301823D01*
X144928217Y-70304334D01*
X144928203Y-70304337D01*
X144884883Y-70321488D01*
X144879358Y-70323380D01*
X144834613Y-70336380D01*
X144834610Y-70336381D01*
X144817366Y-70346579D01*
X144799905Y-70355133D01*
X144781274Y-70362510D01*
X144781262Y-70362517D01*
X144743570Y-70389902D01*
X144738687Y-70393109D01*
X144698580Y-70416829D01*
X144684414Y-70430995D01*
X144669624Y-70443627D01*
X144653414Y-70455404D01*
X144653411Y-70455407D01*
X144623710Y-70491309D01*
X144619777Y-70495631D01*
X142782181Y-72333228D01*
X142720858Y-72366713D01*
X142651166Y-72361729D01*
X142595233Y-72319857D01*
X142570816Y-72254393D01*
X142570500Y-72245547D01*
X142570500Y-70365452D01*
X142590185Y-70298413D01*
X142606819Y-70277771D01*
X143847771Y-69036819D01*
X143909094Y-69003334D01*
X143935452Y-69000500D01*
X146699773Y-69000500D01*
X146766812Y-69020185D01*
G37*
%TD.AperFunction*%
%TA.AperFunction,Conductor*%
G36*
X118801898Y-60448011D02*
G01*
X118863504Y-60476739D01*
X119083308Y-60535635D01*
X119240791Y-60549413D01*
X119309998Y-60555468D01*
X119310000Y-60555468D01*
X119310002Y-60555468D01*
X119366673Y-60550509D01*
X119536692Y-60535635D01*
X119605048Y-60517319D01*
X119674897Y-60518982D01*
X119724822Y-60549413D01*
X124038181Y-64862772D01*
X124071666Y-64924095D01*
X124074500Y-64950453D01*
X124074500Y-66197870D01*
X124074501Y-66197876D01*
X124080908Y-66257483D01*
X124131202Y-66392328D01*
X124131206Y-66392335D01*
X124217452Y-66507544D01*
X124217455Y-66507547D01*
X124332664Y-66593793D01*
X124332671Y-66593797D01*
X124467517Y-66644091D01*
X124467516Y-66644091D01*
X124474444Y-66644835D01*
X124527127Y-66650500D01*
X125430546Y-66650499D01*
X125497585Y-66670183D01*
X125543340Y-66722987D01*
X125553284Y-66792146D01*
X125524259Y-66855702D01*
X125518227Y-66862180D01*
X123562228Y-68818181D01*
X123500905Y-68851666D01*
X123474547Y-68854500D01*
X118119452Y-68854500D01*
X118052413Y-68834815D01*
X118006658Y-68782011D01*
X117996714Y-68712853D01*
X118025739Y-68649297D01*
X118031771Y-68642819D01*
X118515993Y-68158597D01*
X120041480Y-66633108D01*
X120102801Y-66599625D01*
X120169420Y-66603509D01*
X120195019Y-66612298D01*
X120423951Y-66650500D01*
X120423952Y-66650500D01*
X120656048Y-66650500D01*
X120656049Y-66650500D01*
X120884981Y-66612298D01*
X121104503Y-66536936D01*
X121308626Y-66426470D01*
X121315093Y-66421437D01*
X121471174Y-66299954D01*
X121491784Y-66283913D01*
X121648979Y-66113153D01*
X121775924Y-65918849D01*
X121869157Y-65706300D01*
X121926134Y-65481305D01*
X121927202Y-65468417D01*
X121945300Y-65250006D01*
X121945300Y-65249993D01*
X121926135Y-65018702D01*
X121926133Y-65018691D01*
X121869157Y-64793699D01*
X121775924Y-64581151D01*
X121648983Y-64386852D01*
X121648980Y-64386849D01*
X121648979Y-64386847D01*
X121491784Y-64216087D01*
X121491779Y-64216083D01*
X121491777Y-64216081D01*
X121308634Y-64073535D01*
X121308628Y-64073531D01*
X121104504Y-63963064D01*
X121104495Y-63963061D01*
X120884984Y-63887702D01*
X120694450Y-63855908D01*
X120656049Y-63849500D01*
X120423951Y-63849500D01*
X120385550Y-63855908D01*
X120195015Y-63887702D01*
X119975504Y-63963061D01*
X119975495Y-63963064D01*
X119771371Y-64073531D01*
X119771365Y-64073535D01*
X119588222Y-64216081D01*
X119588218Y-64216085D01*
X119579866Y-64225158D01*
X119519979Y-64261148D01*
X119450141Y-64259047D01*
X119392525Y-64219522D01*
X119372455Y-64184507D01*
X119343797Y-64107671D01*
X119343793Y-64107664D01*
X119257547Y-63992455D01*
X119257544Y-63992452D01*
X119142335Y-63906206D01*
X119142328Y-63906202D01*
X119007482Y-63855908D01*
X119007483Y-63855908D01*
X118947883Y-63849501D01*
X118947881Y-63849500D01*
X118947873Y-63849500D01*
X118947865Y-63849500D01*
X118749500Y-63849500D01*
X118682461Y-63829815D01*
X118636706Y-63777011D01*
X118625500Y-63725500D01*
X118625500Y-60560396D01*
X118645185Y-60493357D01*
X118697989Y-60447602D01*
X118767147Y-60437658D01*
X118801898Y-60448011D01*
G37*
%TD.AperFunction*%
%TA.AperFunction,Conductor*%
G36*
X146770431Y-62716653D02*
G01*
X146826369Y-62758518D01*
X146828686Y-62761716D01*
X146961505Y-62951401D01*
X146961506Y-62951402D01*
X147083430Y-63073326D01*
X147116915Y-63134649D01*
X147111931Y-63204341D01*
X147070059Y-63260274D01*
X147039083Y-63277189D01*
X146907669Y-63326203D01*
X146907664Y-63326206D01*
X146792455Y-63412452D01*
X146792452Y-63412455D01*
X146706206Y-63527664D01*
X146706202Y-63527671D01*
X146655908Y-63662517D01*
X146652856Y-63690909D01*
X146649501Y-63722123D01*
X146649500Y-63722135D01*
X146649500Y-63873414D01*
X146629815Y-63940453D01*
X146577011Y-63986208D01*
X146538929Y-63995121D01*
X146539080Y-63996070D01*
X146531372Y-63997290D01*
X146512129Y-64002881D01*
X146493079Y-64006825D01*
X146473211Y-64009334D01*
X146473209Y-64009335D01*
X146429884Y-64026488D01*
X146424357Y-64028380D01*
X146379610Y-64041381D01*
X146379609Y-64041382D01*
X146362367Y-64051579D01*
X146344899Y-64060137D01*
X146326269Y-64067513D01*
X146326267Y-64067514D01*
X146288576Y-64094898D01*
X146283694Y-64098105D01*
X146243579Y-64121830D01*
X146229408Y-64136000D01*
X146214623Y-64148628D01*
X146198412Y-64160407D01*
X146168709Y-64196310D01*
X146164777Y-64200630D01*
X146140250Y-64225158D01*
X146027226Y-64338182D01*
X145965906Y-64371666D01*
X145939547Y-64374500D01*
X145742743Y-64374500D01*
X145727122Y-64372775D01*
X145727095Y-64373061D01*
X145719333Y-64372326D01*
X145650172Y-64374500D01*
X145620649Y-64374500D01*
X145613778Y-64375367D01*
X145607959Y-64375825D01*
X145561374Y-64377289D01*
X145561368Y-64377290D01*
X145542126Y-64382880D01*
X145523087Y-64386823D01*
X145503217Y-64389334D01*
X145503203Y-64389337D01*
X145459883Y-64406488D01*
X145454358Y-64408380D01*
X145409613Y-64421380D01*
X145409610Y-64421381D01*
X145392366Y-64431579D01*
X145374905Y-64440133D01*
X145356274Y-64447510D01*
X145356262Y-64447517D01*
X145318570Y-64474902D01*
X145313687Y-64478109D01*
X145273580Y-64501829D01*
X145259414Y-64515995D01*
X145244624Y-64528627D01*
X145228414Y-64540404D01*
X145228411Y-64540407D01*
X145198710Y-64576309D01*
X145194777Y-64580631D01*
X142332818Y-67442589D01*
X142271495Y-67476074D01*
X142201803Y-67471090D01*
X142145870Y-67429218D01*
X142121453Y-67363754D01*
X142121608Y-67344109D01*
X142125468Y-67300000D01*
X142105635Y-67073308D01*
X142087318Y-67004948D01*
X142088981Y-66935103D01*
X142119410Y-66885179D01*
X146091165Y-62913425D01*
X146152486Y-62879942D01*
X146182875Y-62878117D01*
X146182869Y-62877918D01*
X146189868Y-62877698D01*
X146190519Y-62877659D01*
X146190660Y-62877671D01*
X146190667Y-62877673D01*
X146259814Y-62875500D01*
X146289350Y-62875500D01*
X146296228Y-62874630D01*
X146302041Y-62874172D01*
X146348627Y-62872709D01*
X146367869Y-62867117D01*
X146386912Y-62863174D01*
X146406792Y-62860664D01*
X146450122Y-62843507D01*
X146455646Y-62841617D01*
X146459396Y-62840527D01*
X146500390Y-62828618D01*
X146517629Y-62818422D01*
X146535103Y-62809862D01*
X146553727Y-62802488D01*
X146553727Y-62802487D01*
X146553732Y-62802486D01*
X146591449Y-62775082D01*
X146596305Y-62771892D01*
X146636420Y-62748170D01*
X146639423Y-62745166D01*
X146642358Y-62743563D01*
X146642586Y-62743387D01*
X146642614Y-62743423D01*
X146700739Y-62711677D01*
X146770431Y-62716653D01*
G37*
%TD.AperFunction*%
%TA.AperFunction,Conductor*%
G36*
X130342539Y-51470185D02*
G01*
X130388294Y-51522989D01*
X130399500Y-51574500D01*
X130399500Y-52414546D01*
X130379815Y-52481585D01*
X130363181Y-52502227D01*
X129527228Y-53338181D01*
X129465905Y-53371666D01*
X129439547Y-53374500D01*
X128464188Y-53374500D01*
X128397149Y-53354815D01*
X128362613Y-53321623D01*
X128250045Y-53160858D01*
X128089141Y-52999954D01*
X127902734Y-52869432D01*
X127902732Y-52869431D01*
X127696497Y-52773261D01*
X127696488Y-52773258D01*
X127476697Y-52714366D01*
X127476693Y-52714365D01*
X127476692Y-52714365D01*
X127476691Y-52714364D01*
X127476686Y-52714364D01*
X127250002Y-52694532D01*
X127249998Y-52694532D01*
X127023313Y-52714364D01*
X127023302Y-52714366D01*
X126803511Y-52773258D01*
X126803502Y-52773261D01*
X126597267Y-52869431D01*
X126597265Y-52869432D01*
X126410858Y-52999954D01*
X126249954Y-53160858D01*
X126119432Y-53347265D01*
X126119431Y-53347267D01*
X126023261Y-53553502D01*
X126023258Y-53553511D01*
X125964366Y-53773302D01*
X125964364Y-53773313D01*
X125944532Y-53999998D01*
X125944532Y-54000001D01*
X125964364Y-54226686D01*
X125964366Y-54226697D01*
X126023258Y-54446488D01*
X126023261Y-54446497D01*
X126119431Y-54652732D01*
X126119432Y-54652734D01*
X126249954Y-54839141D01*
X126410858Y-55000045D01*
X126410861Y-55000047D01*
X126597266Y-55130568D01*
X126803504Y-55226739D01*
X127023308Y-55285635D01*
X127185230Y-55299801D01*
X127249998Y-55305468D01*
X127250000Y-55305468D01*
X127250002Y-55305468D01*
X127306673Y-55300509D01*
X127476692Y-55285635D01*
X127696496Y-55226739D01*
X127902734Y-55130568D01*
X128089139Y-55000047D01*
X128250047Y-54839139D01*
X128362613Y-54678377D01*
X128417189Y-54634752D01*
X128464188Y-54625500D01*
X129667257Y-54625500D01*
X129682877Y-54627224D01*
X129682904Y-54626939D01*
X129690660Y-54627671D01*
X129690667Y-54627673D01*
X129759814Y-54625500D01*
X129789350Y-54625500D01*
X129796228Y-54624630D01*
X129802041Y-54624172D01*
X129848627Y-54622709D01*
X129867869Y-54617117D01*
X129886912Y-54613174D01*
X129906792Y-54610664D01*
X129950122Y-54593507D01*
X129955646Y-54591617D01*
X129959396Y-54590527D01*
X130000390Y-54578618D01*
X130017629Y-54568422D01*
X130035103Y-54559862D01*
X130053727Y-54552488D01*
X130053727Y-54552487D01*
X130053732Y-54552486D01*
X130091449Y-54525082D01*
X130096305Y-54521892D01*
X130136420Y-54498170D01*
X130150589Y-54483999D01*
X130165379Y-54471368D01*
X130181587Y-54459594D01*
X130211299Y-54423676D01*
X130215212Y-54419376D01*
X131247771Y-53386818D01*
X131309094Y-53353333D01*
X131335452Y-53350499D01*
X131755547Y-53350499D01*
X131822586Y-53370184D01*
X131868341Y-53422988D01*
X131878285Y-53492146D01*
X131849260Y-53555702D01*
X131843241Y-53562166D01*
X131762173Y-53643235D01*
X131691208Y-53714200D01*
X131678951Y-53724020D01*
X131679134Y-53724241D01*
X131673123Y-53729213D01*
X131625772Y-53779636D01*
X131604889Y-53800519D01*
X131604877Y-53800532D01*
X131600621Y-53806017D01*
X131596837Y-53810447D01*
X131564937Y-53844418D01*
X131564936Y-53844420D01*
X131555284Y-53861976D01*
X131544610Y-53878226D01*
X131532329Y-53894061D01*
X131532324Y-53894068D01*
X131513815Y-53936838D01*
X131511245Y-53942084D01*
X131488803Y-53982906D01*
X131483822Y-54002307D01*
X131477521Y-54020710D01*
X131469562Y-54039102D01*
X131469561Y-54039105D01*
X131462271Y-54085127D01*
X131461087Y-54090846D01*
X131449501Y-54135972D01*
X131449500Y-54135982D01*
X131449500Y-54156016D01*
X131447973Y-54175415D01*
X131444840Y-54195194D01*
X131444840Y-54195195D01*
X131449225Y-54241583D01*
X131449500Y-54247421D01*
X131449500Y-61012255D01*
X131447775Y-61027872D01*
X131448061Y-61027899D01*
X131447326Y-61035665D01*
X131449500Y-61104814D01*
X131449500Y-61134343D01*
X131449501Y-61134360D01*
X131450368Y-61141231D01*
X131450826Y-61147050D01*
X131452290Y-61193624D01*
X131452291Y-61193627D01*
X131457880Y-61212867D01*
X131461824Y-61231911D01*
X131464336Y-61251792D01*
X131477319Y-61284584D01*
X131481490Y-61295119D01*
X131483382Y-61300647D01*
X131486707Y-61312092D01*
X131496382Y-61345390D01*
X131500837Y-61352924D01*
X131506580Y-61362634D01*
X131515138Y-61380103D01*
X131522514Y-61398732D01*
X131549898Y-61436423D01*
X131553106Y-61441307D01*
X131576827Y-61481416D01*
X131576833Y-61481424D01*
X131590990Y-61495580D01*
X131603628Y-61510376D01*
X131615405Y-61526586D01*
X131615406Y-61526587D01*
X131651309Y-61556288D01*
X131655620Y-61560210D01*
X131847237Y-61751828D01*
X131900586Y-61805177D01*
X131934071Y-61866500D01*
X131932680Y-61924949D01*
X131914367Y-61993296D01*
X131914364Y-61993313D01*
X131894532Y-62219999D01*
X131894532Y-62220001D01*
X131914364Y-62446686D01*
X131914366Y-62446697D01*
X131973258Y-62666488D01*
X131973261Y-62666497D01*
X132069431Y-62872732D01*
X132069432Y-62872734D01*
X132199954Y-63059141D01*
X132228490Y-63087677D01*
X132261975Y-63149000D01*
X132256991Y-63218692D01*
X132228490Y-63263039D01*
X129465422Y-66026107D01*
X129404099Y-66059592D01*
X129334407Y-66054608D01*
X129278474Y-66012736D01*
X129254057Y-65947272D01*
X129264184Y-65888618D01*
X129344157Y-65706300D01*
X129401134Y-65481305D01*
X129402202Y-65468417D01*
X129420300Y-65250006D01*
X129420300Y-65249993D01*
X129401135Y-65018702D01*
X129401133Y-65018691D01*
X129344157Y-64793699D01*
X129250924Y-64581151D01*
X129123983Y-64386852D01*
X129123980Y-64386849D01*
X129123979Y-64386847D01*
X128966784Y-64216087D01*
X128966779Y-64216083D01*
X128966777Y-64216081D01*
X128783634Y-64073535D01*
X128783628Y-64073531D01*
X128579504Y-63963064D01*
X128579495Y-63963061D01*
X128359984Y-63887702D01*
X128169450Y-63855908D01*
X128131049Y-63849500D01*
X127898951Y-63849500D01*
X127860550Y-63855908D01*
X127670015Y-63887702D01*
X127450504Y-63963061D01*
X127450495Y-63963064D01*
X127246371Y-64073531D01*
X127246365Y-64073535D01*
X127063222Y-64216081D01*
X127063218Y-64216085D01*
X127054866Y-64225158D01*
X126994979Y-64261148D01*
X126925141Y-64259047D01*
X126867525Y-64219522D01*
X126847455Y-64184507D01*
X126818797Y-64107671D01*
X126818793Y-64107664D01*
X126732547Y-63992455D01*
X126732544Y-63992452D01*
X126617335Y-63906206D01*
X126617328Y-63906202D01*
X126482482Y-63855908D01*
X126482483Y-63855908D01*
X126422883Y-63849501D01*
X126422881Y-63849500D01*
X126422873Y-63849500D01*
X126422865Y-63849500D01*
X124845453Y-63849500D01*
X124778414Y-63829815D01*
X124757772Y-63813181D01*
X120609413Y-59664822D01*
X120575928Y-59603499D01*
X120577319Y-59545048D01*
X120582318Y-59526390D01*
X120595635Y-59476692D01*
X120615468Y-59250000D01*
X120614025Y-59233511D01*
X120604519Y-59124852D01*
X120595635Y-59023308D01*
X120589390Y-59000002D01*
X121445034Y-59000002D01*
X121464858Y-59226599D01*
X121464860Y-59226610D01*
X121523730Y-59446317D01*
X121523734Y-59446326D01*
X121619865Y-59652481D01*
X121619866Y-59652483D01*
X121670973Y-59725471D01*
X121670974Y-59725472D01*
X122352046Y-59044399D01*
X122364835Y-59125148D01*
X122422359Y-59238045D01*
X122511955Y-59327641D01*
X122624852Y-59385165D01*
X122705599Y-59397953D01*
X122024526Y-60079025D01*
X122024526Y-60079026D01*
X122097512Y-60130131D01*
X122097516Y-60130133D01*
X122303673Y-60226265D01*
X122303682Y-60226269D01*
X122523389Y-60285139D01*
X122523400Y-60285141D01*
X122749998Y-60304966D01*
X122750002Y-60304966D01*
X122976599Y-60285141D01*
X122976610Y-60285139D01*
X123196317Y-60226269D01*
X123196331Y-60226264D01*
X123402478Y-60130136D01*
X123475472Y-60079025D01*
X122794401Y-59397953D01*
X122875148Y-59385165D01*
X122988045Y-59327641D01*
X123077641Y-59238045D01*
X123135165Y-59125148D01*
X123147953Y-59044400D01*
X123829025Y-59725472D01*
X123880136Y-59652478D01*
X123976264Y-59446331D01*
X123976269Y-59446317D01*
X124035139Y-59226610D01*
X124035141Y-59226599D01*
X124054966Y-59000002D01*
X124054966Y-59000001D01*
X125944532Y-59000001D01*
X125964364Y-59226686D01*
X125964366Y-59226697D01*
X126023258Y-59446488D01*
X126023261Y-59446497D01*
X126119431Y-59652732D01*
X126119432Y-59652734D01*
X126249954Y-59839141D01*
X126410858Y-60000045D01*
X126410861Y-60000047D01*
X126597266Y-60130568D01*
X126803504Y-60226739D01*
X127023308Y-60285635D01*
X127185230Y-60299801D01*
X127249998Y-60305468D01*
X127250000Y-60305468D01*
X127250002Y-60305468D01*
X127306673Y-60300509D01*
X127476692Y-60285635D01*
X127696496Y-60226739D01*
X127902734Y-60130568D01*
X128089139Y-60000047D01*
X128250047Y-59839139D01*
X128380568Y-59652734D01*
X128476739Y-59446496D01*
X128535635Y-59226692D01*
X128555468Y-59000000D01*
X128552981Y-58971579D01*
X128544519Y-58874852D01*
X128535635Y-58773308D01*
X128476739Y-58553504D01*
X128380568Y-58347266D01*
X128267051Y-58185145D01*
X128250045Y-58160858D01*
X128089141Y-57999954D01*
X127902734Y-57869432D01*
X127902732Y-57869431D01*
X127696497Y-57773261D01*
X127696488Y-57773258D01*
X127476697Y-57714366D01*
X127476693Y-57714365D01*
X127476692Y-57714365D01*
X127476691Y-57714364D01*
X127476686Y-57714364D01*
X127250002Y-57694532D01*
X127249998Y-57694532D01*
X127023313Y-57714364D01*
X127023302Y-57714366D01*
X126803511Y-57773258D01*
X126803502Y-57773261D01*
X126597267Y-57869431D01*
X126597265Y-57869432D01*
X126410858Y-57999954D01*
X126249954Y-58160858D01*
X126119432Y-58347265D01*
X126119431Y-58347267D01*
X126023261Y-58553502D01*
X126023258Y-58553511D01*
X125964366Y-58773302D01*
X125964364Y-58773313D01*
X125944532Y-58999998D01*
X125944532Y-59000001D01*
X124054966Y-59000001D01*
X124054966Y-58999997D01*
X124035141Y-58773400D01*
X124035139Y-58773389D01*
X123976269Y-58553682D01*
X123976265Y-58553673D01*
X123880133Y-58347516D01*
X123880131Y-58347512D01*
X123829026Y-58274526D01*
X123829025Y-58274526D01*
X123147953Y-58955598D01*
X123135165Y-58874852D01*
X123077641Y-58761955D01*
X122988045Y-58672359D01*
X122875148Y-58614835D01*
X122794400Y-58602046D01*
X123475472Y-57920974D01*
X123475471Y-57920973D01*
X123402483Y-57869866D01*
X123402481Y-57869865D01*
X123196326Y-57773734D01*
X123196317Y-57773730D01*
X122976610Y-57714860D01*
X122976599Y-57714858D01*
X122750002Y-57695034D01*
X122749998Y-57695034D01*
X122523400Y-57714858D01*
X122523389Y-57714860D01*
X122303682Y-57773730D01*
X122303673Y-57773734D01*
X122097513Y-57869868D01*
X122024527Y-57920972D01*
X122024526Y-57920973D01*
X122705600Y-58602046D01*
X122624852Y-58614835D01*
X122511955Y-58672359D01*
X122422359Y-58761955D01*
X122364835Y-58874852D01*
X122352046Y-58955599D01*
X121670973Y-58274526D01*
X121670972Y-58274527D01*
X121619868Y-58347513D01*
X121523734Y-58553673D01*
X121523730Y-58553682D01*
X121464860Y-58773389D01*
X121464858Y-58773400D01*
X121445034Y-58999997D01*
X121445034Y-59000002D01*
X120589390Y-59000002D01*
X120536739Y-58803504D01*
X120440568Y-58597266D01*
X120310047Y-58410861D01*
X120310045Y-58410858D01*
X120149141Y-58249954D01*
X119962734Y-58119432D01*
X119962732Y-58119431D01*
X119756497Y-58023261D01*
X119756488Y-58023258D01*
X119536697Y-57964366D01*
X119536693Y-57964365D01*
X119536692Y-57964365D01*
X119536691Y-57964364D01*
X119536686Y-57964364D01*
X119310002Y-57944532D01*
X119309998Y-57944532D01*
X119083313Y-57964364D01*
X119083302Y-57964366D01*
X118863511Y-58023258D01*
X118863497Y-58023263D01*
X118801904Y-58051985D01*
X118732827Y-58062477D01*
X118669043Y-58033957D01*
X118630804Y-57975480D01*
X118625500Y-57939603D01*
X118625500Y-57120451D01*
X118645185Y-57053412D01*
X118661815Y-57032774D01*
X118895178Y-56799410D01*
X118956499Y-56765927D01*
X119014946Y-56767317D01*
X119083308Y-56785635D01*
X119240780Y-56799412D01*
X119309998Y-56805468D01*
X119310000Y-56805468D01*
X119310002Y-56805468D01*
X119379220Y-56799412D01*
X119536692Y-56785635D01*
X119756496Y-56726739D01*
X119962734Y-56630568D01*
X120149139Y-56500047D01*
X120310047Y-56339139D01*
X120440568Y-56152734D01*
X120536739Y-55946496D01*
X120595635Y-55726692D01*
X120615468Y-55500000D01*
X120615336Y-55498495D01*
X120602742Y-55354546D01*
X120595635Y-55273308D01*
X120536739Y-55053504D01*
X120440568Y-54847266D01*
X120310047Y-54660861D01*
X120310045Y-54660858D01*
X120149141Y-54499954D01*
X119962734Y-54369432D01*
X119962732Y-54369431D01*
X119756497Y-54273261D01*
X119756490Y-54273259D01*
X119652292Y-54245339D01*
X119592632Y-54208973D01*
X119562103Y-54146126D01*
X119570398Y-54076751D01*
X119596702Y-54037886D01*
X119634587Y-54000001D01*
X121444532Y-54000001D01*
X121464364Y-54226686D01*
X121464366Y-54226697D01*
X121523258Y-54446488D01*
X121523261Y-54446497D01*
X121619431Y-54652732D01*
X121619432Y-54652734D01*
X121749954Y-54839141D01*
X121910858Y-55000045D01*
X121910861Y-55000047D01*
X122097266Y-55130568D01*
X122303504Y-55226739D01*
X122523308Y-55285635D01*
X122685230Y-55299801D01*
X122749998Y-55305468D01*
X122750000Y-55305468D01*
X122750002Y-55305468D01*
X122806673Y-55300509D01*
X122976692Y-55285635D01*
X123196496Y-55226739D01*
X123402734Y-55130568D01*
X123589139Y-55000047D01*
X123750047Y-54839139D01*
X123880568Y-54652734D01*
X123976739Y-54446496D01*
X124035635Y-54226692D01*
X124055468Y-54000000D01*
X124055147Y-53996335D01*
X124046200Y-53894064D01*
X124035635Y-53773308D01*
X123976739Y-53553504D01*
X123880568Y-53347266D01*
X123770450Y-53190000D01*
X123750045Y-53160858D01*
X123589141Y-52999954D01*
X123402734Y-52869432D01*
X123402732Y-52869431D01*
X123196497Y-52773261D01*
X123196488Y-52773258D01*
X122976697Y-52714366D01*
X122976693Y-52714365D01*
X122976692Y-52714365D01*
X122976691Y-52714364D01*
X122976686Y-52714364D01*
X122750002Y-52694532D01*
X122749998Y-52694532D01*
X122523313Y-52714364D01*
X122523302Y-52714366D01*
X122303511Y-52773258D01*
X122303502Y-52773261D01*
X122097267Y-52869431D01*
X122097265Y-52869432D01*
X121910858Y-52999954D01*
X121749954Y-53160858D01*
X121619432Y-53347265D01*
X121619431Y-53347267D01*
X121523261Y-53553502D01*
X121523258Y-53553511D01*
X121464366Y-53773302D01*
X121464364Y-53773313D01*
X121444532Y-53999998D01*
X121444532Y-54000001D01*
X119634587Y-54000001D01*
X119693785Y-53940803D01*
X119706046Y-53930983D01*
X119705862Y-53930761D01*
X119711870Y-53925790D01*
X119711877Y-53925786D01*
X119759227Y-53875363D01*
X119780120Y-53854471D01*
X119784379Y-53848978D01*
X119788152Y-53844561D01*
X119820062Y-53810582D01*
X119829713Y-53793024D01*
X119840396Y-53776761D01*
X119852673Y-53760936D01*
X119871185Y-53718153D01*
X119873738Y-53712941D01*
X119896197Y-53672092D01*
X119901180Y-53652680D01*
X119907481Y-53634280D01*
X119915437Y-53615896D01*
X119922729Y-53569852D01*
X119923906Y-53564171D01*
X119935500Y-53519019D01*
X119935500Y-53498983D01*
X119937027Y-53479582D01*
X119940160Y-53459804D01*
X119935775Y-53413415D01*
X119935500Y-53407577D01*
X119935500Y-53214188D01*
X119955185Y-53147149D01*
X119988377Y-53112613D01*
X120086604Y-53043834D01*
X120149139Y-53000047D01*
X120310047Y-52839139D01*
X120440568Y-52652734D01*
X120536739Y-52446496D01*
X120595635Y-52226692D01*
X120615468Y-52000000D01*
X120615269Y-51997730D01*
X120603478Y-51862953D01*
X120595635Y-51773308D01*
X120550964Y-51606592D01*
X120552627Y-51536744D01*
X120591790Y-51478881D01*
X120656018Y-51451377D01*
X120670739Y-51450500D01*
X130275500Y-51450500D01*
X130342539Y-51470185D01*
G37*
%TD.AperFunction*%
%TA.AperFunction,Conductor*%
G36*
X146791812Y-60185185D02*
G01*
X146826348Y-60218377D01*
X146961501Y-60411396D01*
X146961506Y-60411402D01*
X147128597Y-60578493D01*
X147128603Y-60578498D01*
X147314158Y-60708425D01*
X147357783Y-60763002D01*
X147364977Y-60832500D01*
X147333454Y-60894855D01*
X147314158Y-60911575D01*
X147128597Y-61041505D01*
X146961505Y-61208597D01*
X146826348Y-61401623D01*
X146771771Y-61445248D01*
X146724773Y-61454500D01*
X146502737Y-61454500D01*
X146487120Y-61452776D01*
X146487093Y-61453062D01*
X146479331Y-61452327D01*
X146410203Y-61454500D01*
X146380650Y-61454500D01*
X146379929Y-61454590D01*
X146373757Y-61455369D01*
X146367945Y-61455826D01*
X146321378Y-61457290D01*
X146321367Y-61457292D01*
X146302134Y-61462879D01*
X146283094Y-61466822D01*
X146263217Y-61469334D01*
X146263210Y-61469335D01*
X146263208Y-61469336D01*
X146263206Y-61469336D01*
X146263205Y-61469337D01*
X146219868Y-61486494D01*
X146214342Y-61488386D01*
X146169611Y-61501382D01*
X146169608Y-61501383D01*
X146152363Y-61511581D01*
X146134901Y-61520135D01*
X146116272Y-61527511D01*
X146116267Y-61527513D01*
X146078564Y-61554906D01*
X146073682Y-61558112D01*
X146033579Y-61581829D01*
X146028826Y-61586582D01*
X145967499Y-61620061D01*
X145937122Y-61621883D01*
X145937129Y-61622083D01*
X145930156Y-61622302D01*
X145929491Y-61622342D01*
X145929339Y-61622327D01*
X145860203Y-61624500D01*
X145830650Y-61624500D01*
X145829929Y-61624590D01*
X145823757Y-61625369D01*
X145817945Y-61625826D01*
X145771372Y-61627290D01*
X145771369Y-61627291D01*
X145752126Y-61632881D01*
X145733083Y-61636825D01*
X145713204Y-61639336D01*
X145713203Y-61639337D01*
X145669878Y-61656490D01*
X145664352Y-61658382D01*
X145619608Y-61671383D01*
X145619604Y-61671385D01*
X145602365Y-61681580D01*
X145584898Y-61690137D01*
X145566269Y-61697512D01*
X145566267Y-61697513D01*
X145528564Y-61724906D01*
X145523682Y-61728112D01*
X145483580Y-61751828D01*
X145469408Y-61766000D01*
X145454623Y-61778628D01*
X145438412Y-61790407D01*
X145408709Y-61826310D01*
X145404777Y-61830631D01*
X142332818Y-64902589D01*
X142271495Y-64936074D01*
X142201803Y-64931090D01*
X142145870Y-64889218D01*
X142121453Y-64823754D01*
X142121608Y-64804109D01*
X142125468Y-64760000D01*
X142105635Y-64533308D01*
X142087318Y-64464948D01*
X142088981Y-64395103D01*
X142119410Y-64345179D01*
X144883788Y-61580801D01*
X144896042Y-61570986D01*
X144895859Y-61570764D01*
X144901866Y-61565792D01*
X144901877Y-61565786D01*
X144932775Y-61532882D01*
X144949227Y-61515364D01*
X144959671Y-61504918D01*
X144970120Y-61494471D01*
X144974379Y-61488978D01*
X144978152Y-61484561D01*
X145010062Y-61450582D01*
X145019715Y-61433020D01*
X145030389Y-61416770D01*
X145042673Y-61400936D01*
X145061187Y-61358149D01*
X145063740Y-61352939D01*
X145086197Y-61312092D01*
X145086197Y-61312090D01*
X145089956Y-61305254D01*
X145090723Y-61305676D01*
X145113332Y-61271256D01*
X146182771Y-60201819D01*
X146244094Y-60168334D01*
X146270452Y-60165500D01*
X146724773Y-60165500D01*
X146791812Y-60185185D01*
G37*
%TD.AperFunction*%
%TA.AperFunction,Conductor*%
G36*
X146504070Y-56645185D02*
G01*
X146521911Y-56659105D01*
X146558540Y-56693502D01*
X146564637Y-56699228D01*
X146585523Y-56720115D01*
X146585527Y-56720118D01*
X146585529Y-56720120D01*
X146591011Y-56724373D01*
X146595443Y-56728157D01*
X146617414Y-56748790D01*
X146618714Y-56750010D01*
X146654108Y-56810251D01*
X146657358Y-56851209D01*
X146644341Y-56999997D01*
X146644341Y-57000000D01*
X146664936Y-57235403D01*
X146664938Y-57235413D01*
X146726094Y-57463655D01*
X146726096Y-57463659D01*
X146726097Y-57463663D01*
X146803115Y-57628828D01*
X146825965Y-57677830D01*
X146825967Y-57677834D01*
X146906420Y-57792732D01*
X146960429Y-57869865D01*
X146961501Y-57871395D01*
X146961506Y-57871402D01*
X147128597Y-58038493D01*
X147128603Y-58038498D01*
X147314158Y-58168425D01*
X147357783Y-58223002D01*
X147364977Y-58292500D01*
X147333454Y-58354855D01*
X147314158Y-58371575D01*
X147128597Y-58501505D01*
X146961505Y-58668597D01*
X146826348Y-58861623D01*
X146771771Y-58905248D01*
X146724773Y-58914500D01*
X146042743Y-58914500D01*
X146027122Y-58912775D01*
X146027096Y-58913061D01*
X146019334Y-58912327D01*
X146019333Y-58912327D01*
X145950186Y-58914500D01*
X145920649Y-58914500D01*
X145913766Y-58915369D01*
X145907949Y-58915826D01*
X145861373Y-58917290D01*
X145842129Y-58922881D01*
X145823079Y-58926825D01*
X145803211Y-58929334D01*
X145759884Y-58946488D01*
X145754358Y-58948379D01*
X145709614Y-58961379D01*
X145709610Y-58961381D01*
X145692366Y-58971579D01*
X145674905Y-58980133D01*
X145656274Y-58987510D01*
X145656262Y-58987517D01*
X145618570Y-59014902D01*
X145613687Y-59018109D01*
X145573580Y-59041829D01*
X145559414Y-59055995D01*
X145544624Y-59068627D01*
X145528414Y-59080404D01*
X145528411Y-59080407D01*
X145498710Y-59116309D01*
X145494777Y-59120631D01*
X144116208Y-60499199D01*
X144103951Y-60509020D01*
X144104134Y-60509241D01*
X144098123Y-60514213D01*
X144050772Y-60564636D01*
X144029889Y-60585519D01*
X144029877Y-60585532D01*
X144025621Y-60591017D01*
X144021837Y-60595447D01*
X143989937Y-60629418D01*
X143989936Y-60629420D01*
X143980284Y-60646976D01*
X143969610Y-60663226D01*
X143957329Y-60679061D01*
X143957324Y-60679068D01*
X143938815Y-60721838D01*
X143936245Y-60727084D01*
X143910045Y-60774744D01*
X143909277Y-60774322D01*
X143886666Y-60808742D01*
X142332818Y-62362589D01*
X142271495Y-62396074D01*
X142201803Y-62391090D01*
X142145870Y-62349218D01*
X142121453Y-62283754D01*
X142121608Y-62264109D01*
X142125468Y-62220000D01*
X142105635Y-61993308D01*
X142087318Y-61924948D01*
X142088981Y-61855103D01*
X142119410Y-61805179D01*
X143883788Y-60040801D01*
X143896042Y-60030986D01*
X143895859Y-60030764D01*
X143901866Y-60025792D01*
X143901877Y-60025786D01*
X143932775Y-59992882D01*
X143949227Y-59975364D01*
X143959671Y-59964918D01*
X143970120Y-59954471D01*
X143974379Y-59948978D01*
X143978152Y-59944561D01*
X144010062Y-59910582D01*
X144019713Y-59893024D01*
X144030396Y-59876761D01*
X144042673Y-59860936D01*
X144061185Y-59818153D01*
X144063738Y-59812941D01*
X144086197Y-59772092D01*
X144091180Y-59752680D01*
X144097481Y-59734280D01*
X144105437Y-59715896D01*
X144112729Y-59669852D01*
X144113906Y-59664171D01*
X144125500Y-59619019D01*
X144125500Y-59598983D01*
X144127027Y-59579582D01*
X144130160Y-59559804D01*
X144125775Y-59513415D01*
X144125500Y-59507577D01*
X144125500Y-57060452D01*
X144145185Y-56993413D01*
X144161819Y-56972771D01*
X144472772Y-56661819D01*
X144534095Y-56628334D01*
X144560453Y-56625500D01*
X146437031Y-56625500D01*
X146504070Y-56645185D01*
G37*
%TD.AperFunction*%
%TA.AperFunction,Conductor*%
G36*
X143990507Y-51790156D02*
G01*
X143950000Y-51928111D01*
X143950000Y-52071889D01*
X143990507Y-52209844D01*
X144016314Y-52250000D01*
X142343686Y-52250000D01*
X142369493Y-52209844D01*
X142410000Y-52071889D01*
X142410000Y-51928111D01*
X142369493Y-51790156D01*
X142343686Y-51750000D01*
X144016314Y-51750000D01*
X143990507Y-51790156D01*
G37*
%TD.AperFunction*%
%TD*%
M02*
