%TF.GenerationSoftware,KiCad,Pcbnew,7.0.8*%
%TF.CreationDate,2023-11-06T22:20:17+09:00*%
%TF.ProjectId,My_Arduino,4d795f41-7264-4756-996e-6f2e6b696361,rev?*%
%TF.SameCoordinates,Original*%
%TF.FileFunction,Soldermask,Top*%
%TF.FilePolarity,Negative*%
%FSLAX46Y46*%
G04 Gerber Fmt 4.6, Leading zero omitted, Abs format (unit mm)*
G04 Created by KiCad (PCBNEW 7.0.8) date 2023-11-06 22:20:17*
%MOMM*%
%LPD*%
G01*
G04 APERTURE LIST*
G04 Aperture macros list*
%AMRoundRect*
0 Rectangle with rounded corners*
0 $1 Rounding radius*
0 $2 $3 $4 $5 $6 $7 $8 $9 X,Y pos of 4 corners*
0 Add a 4 corners polygon primitive as box body*
4,1,4,$2,$3,$4,$5,$6,$7,$8,$9,$2,$3,0*
0 Add four circle primitives for the rounded corners*
1,1,$1+$1,$2,$3*
1,1,$1+$1,$4,$5*
1,1,$1+$1,$6,$7*
1,1,$1+$1,$8,$9*
0 Add four rect primitives between the rounded corners*
20,1,$1+$1,$2,$3,$4,$5,0*
20,1,$1+$1,$4,$5,$6,$7,0*
20,1,$1+$1,$6,$7,$8,$9,0*
20,1,$1+$1,$8,$9,$2,$3,0*%
G04 Aperture macros list end*
%ADD10O,1.600000X1.600000*%
%ADD11C,1.600000*%
%ADD12C,2.000000*%
%ADD13R,1.800000X1.800000*%
%ADD14C,1.800000*%
%ADD15R,1.700000X1.700000*%
%ADD16O,1.700000X1.700000*%
%ADD17R,3.500000X3.500000*%
%ADD18RoundRect,0.750000X-0.750000X-1.000000X0.750000X-1.000000X0.750000X1.000000X-0.750000X1.000000X0*%
%ADD19RoundRect,0.875000X-0.875000X-0.875000X0.875000X-0.875000X0.875000X0.875000X-0.875000X0.875000X0*%
%ADD20R,1.600000X1.600000*%
%ADD21C,1.500000*%
%ADD22R,1.905000X2.000000*%
%ADD23O,1.905000X2.000000*%
G04 APERTURE END LIST*
D10*
%TO.C,R1*%
X119310000Y-52000000D03*
D11*
X111690000Y-52000000D03*
%TD*%
D12*
%TO.C,SW1*%
X108250000Y-56250000D03*
X101750000Y-56250000D03*
X108250000Y-51750000D03*
X101750000Y-51750000D03*
%TD*%
%TO.C,SW3*%
X101250000Y-70000000D03*
X107750000Y-70000000D03*
X101250000Y-74500000D03*
X107750000Y-74500000D03*
%TD*%
%TO.C,SW2*%
X108250000Y-65250000D03*
X101750000Y-65250000D03*
X108250000Y-60750000D03*
X101750000Y-60750000D03*
%TD*%
D13*
%TO.C,D2*%
X125475000Y-65250000D03*
D14*
X128015000Y-65250000D03*
%TD*%
D11*
%TO.C,C4*%
X117250000Y-71750000D03*
X119750000Y-71750000D03*
%TD*%
%TO.C,C6*%
X122750000Y-54000000D03*
X122750000Y-59000000D03*
%TD*%
D15*
%TO.C,J6*%
X131000000Y-98000000D03*
D16*
X133540000Y-98000000D03*
X136080000Y-98000000D03*
X138620000Y-98000000D03*
X141160000Y-98000000D03*
X143700000Y-98000000D03*
%TD*%
D10*
%TO.C,R2*%
X119310000Y-55500000D03*
D11*
X111690000Y-55500000D03*
%TD*%
D15*
%TO.C,J3*%
X148000000Y-97790000D03*
D16*
X148000000Y-95250000D03*
X148000000Y-92710000D03*
X148000000Y-90170000D03*
X148000000Y-87630000D03*
X148000000Y-85090000D03*
%TD*%
D17*
%TO.C,J4*%
X110250000Y-93292500D03*
D18*
X104250000Y-93292500D03*
D19*
X107250000Y-97992500D03*
%TD*%
D15*
%TO.C,J5*%
X131750000Y-52000000D03*
D16*
X134290000Y-52000000D03*
X136830000Y-52000000D03*
X139370000Y-52000000D03*
X141910000Y-52000000D03*
X144450000Y-52000000D03*
%TD*%
D15*
%TO.C,J2*%
X148000000Y-64620000D03*
D16*
X148000000Y-62080000D03*
X148000000Y-59540000D03*
X148000000Y-57000000D03*
X148000000Y-54460000D03*
X148000000Y-51920000D03*
%TD*%
D20*
%TO.C,C1*%
X115817621Y-87000000D03*
D11*
X118317621Y-87000000D03*
%TD*%
D16*
%TO.C,Je1*%
X113025000Y-71570000D03*
X113025000Y-69030000D03*
X113025000Y-66490000D03*
D15*
X113025000Y-63950000D03*
%TD*%
D20*
%TO.C,C2*%
X124000000Y-87000000D03*
D11*
X126500000Y-87000000D03*
%TD*%
%TO.C,C5*%
X123250000Y-71750000D03*
X125750000Y-71750000D03*
%TD*%
D20*
%TO.C,U1*%
X133200000Y-57140000D03*
D10*
X133200000Y-59680000D03*
X133200000Y-62220000D03*
X133200000Y-64760000D03*
X133200000Y-67300000D03*
X133200000Y-69840000D03*
X133200000Y-72380000D03*
X133200000Y-74920000D03*
X133200000Y-77460000D03*
X133200000Y-80000000D03*
X133200000Y-82540000D03*
X133200000Y-85080000D03*
X133200000Y-87620000D03*
X133200000Y-90160000D03*
X140820000Y-90160000D03*
X140820000Y-87620000D03*
X140820000Y-85080000D03*
X140820000Y-82540000D03*
X140820000Y-80000000D03*
X140820000Y-77460000D03*
X140820000Y-74920000D03*
X140820000Y-72380000D03*
X140820000Y-69840000D03*
X140820000Y-67300000D03*
X140820000Y-64760000D03*
X140820000Y-62220000D03*
X140820000Y-59680000D03*
X140820000Y-57140000D03*
%TD*%
%TO.C,R3*%
X119310000Y-59250000D03*
D11*
X111690000Y-59250000D03*
%TD*%
D21*
%TO.C,Y1*%
X123930000Y-78000000D03*
X119050000Y-78000000D03*
%TD*%
D15*
%TO.C,J1*%
X147975000Y-81075000D03*
D16*
X147975000Y-78535000D03*
X147975000Y-75995000D03*
X147975000Y-73455000D03*
X147975000Y-70915000D03*
X147975000Y-68375000D03*
%TD*%
D13*
%TO.C,D1*%
X118000000Y-65250000D03*
D14*
X120540000Y-65250000D03*
%TD*%
D11*
%TO.C,C3*%
X127250000Y-59000000D03*
X127250000Y-54000000D03*
%TD*%
D22*
%TO.C,U2*%
X122000000Y-95750000D03*
D23*
X119460000Y-95750000D03*
X116920000Y-95750000D03*
%TD*%
M02*
