%TF.GenerationSoftware,KiCad,Pcbnew,7.0.8*%
%TF.CreationDate,2023-11-06T22:20:17+09:00*%
%TF.ProjectId,My_Arduino,4d795f41-7264-4756-996e-6f2e6b696361,rev?*%
%TF.SameCoordinates,Original*%
%TF.FileFunction,Legend,Top*%
%TF.FilePolarity,Positive*%
%FSLAX46Y46*%
G04 Gerber Fmt 4.6, Leading zero omitted, Abs format (unit mm)*
G04 Created by KiCad (PCBNEW 7.0.8) date 2023-11-06 22:20:17*
%MOMM*%
%LPD*%
G01*
G04 APERTURE LIST*
%ADD10C,0.125000*%
%ADD11C,0.200000*%
%ADD12C,0.150000*%
%ADD13C,0.120000*%
G04 APERTURE END LIST*
D10*
X104486997Y-57932309D02*
X104320331Y-57694214D01*
X104201283Y-57932309D02*
X104201283Y-57432309D01*
X104201283Y-57432309D02*
X104391759Y-57432309D01*
X104391759Y-57432309D02*
X104439378Y-57456119D01*
X104439378Y-57456119D02*
X104463188Y-57479928D01*
X104463188Y-57479928D02*
X104486997Y-57527547D01*
X104486997Y-57527547D02*
X104486997Y-57598976D01*
X104486997Y-57598976D02*
X104463188Y-57646595D01*
X104463188Y-57646595D02*
X104439378Y-57670404D01*
X104439378Y-57670404D02*
X104391759Y-57694214D01*
X104391759Y-57694214D02*
X104201283Y-57694214D01*
X104701283Y-57670404D02*
X104867950Y-57670404D01*
X104939378Y-57932309D02*
X104701283Y-57932309D01*
X104701283Y-57932309D02*
X104701283Y-57432309D01*
X104701283Y-57432309D02*
X104939378Y-57432309D01*
X105129855Y-57908500D02*
X105201283Y-57932309D01*
X105201283Y-57932309D02*
X105320331Y-57932309D01*
X105320331Y-57932309D02*
X105367950Y-57908500D01*
X105367950Y-57908500D02*
X105391759Y-57884690D01*
X105391759Y-57884690D02*
X105415569Y-57837071D01*
X105415569Y-57837071D02*
X105415569Y-57789452D01*
X105415569Y-57789452D02*
X105391759Y-57741833D01*
X105391759Y-57741833D02*
X105367950Y-57718023D01*
X105367950Y-57718023D02*
X105320331Y-57694214D01*
X105320331Y-57694214D02*
X105225093Y-57670404D01*
X105225093Y-57670404D02*
X105177474Y-57646595D01*
X105177474Y-57646595D02*
X105153664Y-57622785D01*
X105153664Y-57622785D02*
X105129855Y-57575166D01*
X105129855Y-57575166D02*
X105129855Y-57527547D01*
X105129855Y-57527547D02*
X105153664Y-57479928D01*
X105153664Y-57479928D02*
X105177474Y-57456119D01*
X105177474Y-57456119D02*
X105225093Y-57432309D01*
X105225093Y-57432309D02*
X105344140Y-57432309D01*
X105344140Y-57432309D02*
X105415569Y-57456119D01*
X105629854Y-57670404D02*
X105796521Y-57670404D01*
X105867949Y-57932309D02*
X105629854Y-57932309D01*
X105629854Y-57932309D02*
X105629854Y-57432309D01*
X105629854Y-57432309D02*
X105867949Y-57432309D01*
X106010807Y-57432309D02*
X106296521Y-57432309D01*
X106153664Y-57932309D02*
X106153664Y-57432309D01*
D11*
X144024435Y-92236266D02*
X144095863Y-92188647D01*
X144095863Y-92188647D02*
X144238720Y-92141028D01*
X144238720Y-92141028D02*
X144524435Y-92236266D01*
X144524435Y-92236266D02*
X144667292Y-92188647D01*
X144667292Y-92188647D02*
X144738720Y-92141028D01*
X144024435Y-87486266D02*
X144095863Y-87438647D01*
X144095863Y-87438647D02*
X144238720Y-87391028D01*
X144238720Y-87391028D02*
X144524435Y-87486266D01*
X144524435Y-87486266D02*
X144667292Y-87438647D01*
X144667292Y-87438647D02*
X144738720Y-87391028D01*
X144024435Y-84986266D02*
X144095863Y-84938647D01*
X144095863Y-84938647D02*
X144238720Y-84891028D01*
X144238720Y-84891028D02*
X144524435Y-84986266D01*
X144524435Y-84986266D02*
X144667292Y-84938647D01*
X144667292Y-84938647D02*
X144738720Y-84891028D01*
X144024435Y-78486266D02*
X144095863Y-78438647D01*
X144095863Y-78438647D02*
X144238720Y-78391028D01*
X144238720Y-78391028D02*
X144524435Y-78486266D01*
X144524435Y-78486266D02*
X144667292Y-78438647D01*
X144667292Y-78438647D02*
X144738720Y-78391028D01*
X144024435Y-75986266D02*
X144095863Y-75938647D01*
X144095863Y-75938647D02*
X144238720Y-75891028D01*
X144238720Y-75891028D02*
X144524435Y-75986266D01*
X144524435Y-75986266D02*
X144667292Y-75938647D01*
X144667292Y-75938647D02*
X144738720Y-75891028D01*
D10*
X145540807Y-81819928D02*
X145636045Y-81819928D01*
X145636045Y-81819928D02*
X145731283Y-81891357D01*
X145731283Y-81891357D02*
X145778902Y-81962785D01*
X145778902Y-81962785D02*
X145826521Y-82105642D01*
X145826521Y-82105642D02*
X145874140Y-82391357D01*
X145874140Y-82391357D02*
X145874140Y-82748500D01*
X145874140Y-82748500D02*
X145826521Y-83034214D01*
X145826521Y-83034214D02*
X145778902Y-83177071D01*
X145778902Y-83177071D02*
X145731283Y-83248500D01*
X145731283Y-83248500D02*
X145636045Y-83319928D01*
X145636045Y-83319928D02*
X145540807Y-83319928D01*
X145540807Y-83319928D02*
X145445569Y-83248500D01*
X145445569Y-83248500D02*
X145397950Y-83177071D01*
X145397950Y-83177071D02*
X145350331Y-83034214D01*
X145350331Y-83034214D02*
X145302712Y-82748500D01*
X145302712Y-82748500D02*
X145302712Y-82391357D01*
X145302712Y-82391357D02*
X145350331Y-82105642D01*
X145350331Y-82105642D02*
X145397950Y-81962785D01*
X145397950Y-81962785D02*
X145445569Y-81891357D01*
X145445569Y-81891357D02*
X145540807Y-81819928D01*
X146207474Y-81819928D02*
X146874140Y-81819928D01*
X146874140Y-81819928D02*
X146445569Y-83319928D01*
X145540807Y-84234928D02*
X145636045Y-84234928D01*
X145636045Y-84234928D02*
X145731283Y-84306357D01*
X145731283Y-84306357D02*
X145778902Y-84377785D01*
X145778902Y-84377785D02*
X145826521Y-84520642D01*
X145826521Y-84520642D02*
X145874140Y-84806357D01*
X145874140Y-84806357D02*
X145874140Y-85163500D01*
X145874140Y-85163500D02*
X145826521Y-85449214D01*
X145826521Y-85449214D02*
X145778902Y-85592071D01*
X145778902Y-85592071D02*
X145731283Y-85663500D01*
X145731283Y-85663500D02*
X145636045Y-85734928D01*
X145636045Y-85734928D02*
X145540807Y-85734928D01*
X145540807Y-85734928D02*
X145445569Y-85663500D01*
X145445569Y-85663500D02*
X145397950Y-85592071D01*
X145397950Y-85592071D02*
X145350331Y-85449214D01*
X145350331Y-85449214D02*
X145302712Y-85163500D01*
X145302712Y-85163500D02*
X145302712Y-84806357D01*
X145302712Y-84806357D02*
X145350331Y-84520642D01*
X145350331Y-84520642D02*
X145397950Y-84377785D01*
X145397950Y-84377785D02*
X145445569Y-84306357D01*
X145445569Y-84306357D02*
X145540807Y-84234928D01*
X146731283Y-84234928D02*
X146540807Y-84234928D01*
X146540807Y-84234928D02*
X146445569Y-84306357D01*
X146445569Y-84306357D02*
X146397950Y-84377785D01*
X146397950Y-84377785D02*
X146302712Y-84592071D01*
X146302712Y-84592071D02*
X146255093Y-84877785D01*
X146255093Y-84877785D02*
X146255093Y-85449214D01*
X146255093Y-85449214D02*
X146302712Y-85592071D01*
X146302712Y-85592071D02*
X146350331Y-85663500D01*
X146350331Y-85663500D02*
X146445569Y-85734928D01*
X146445569Y-85734928D02*
X146636045Y-85734928D01*
X146636045Y-85734928D02*
X146731283Y-85663500D01*
X146731283Y-85663500D02*
X146778902Y-85592071D01*
X146778902Y-85592071D02*
X146826521Y-85449214D01*
X146826521Y-85449214D02*
X146826521Y-85092071D01*
X146826521Y-85092071D02*
X146778902Y-84949214D01*
X146778902Y-84949214D02*
X146731283Y-84877785D01*
X146731283Y-84877785D02*
X146636045Y-84806357D01*
X146636045Y-84806357D02*
X146445569Y-84806357D01*
X146445569Y-84806357D02*
X146350331Y-84877785D01*
X146350331Y-84877785D02*
X146302712Y-84949214D01*
X146302712Y-84949214D02*
X146255093Y-85092071D01*
X145540807Y-86649928D02*
X145636045Y-86649928D01*
X145636045Y-86649928D02*
X145731283Y-86721357D01*
X145731283Y-86721357D02*
X145778902Y-86792785D01*
X145778902Y-86792785D02*
X145826521Y-86935642D01*
X145826521Y-86935642D02*
X145874140Y-87221357D01*
X145874140Y-87221357D02*
X145874140Y-87578500D01*
X145874140Y-87578500D02*
X145826521Y-87864214D01*
X145826521Y-87864214D02*
X145778902Y-88007071D01*
X145778902Y-88007071D02*
X145731283Y-88078500D01*
X145731283Y-88078500D02*
X145636045Y-88149928D01*
X145636045Y-88149928D02*
X145540807Y-88149928D01*
X145540807Y-88149928D02*
X145445569Y-88078500D01*
X145445569Y-88078500D02*
X145397950Y-88007071D01*
X145397950Y-88007071D02*
X145350331Y-87864214D01*
X145350331Y-87864214D02*
X145302712Y-87578500D01*
X145302712Y-87578500D02*
X145302712Y-87221357D01*
X145302712Y-87221357D02*
X145350331Y-86935642D01*
X145350331Y-86935642D02*
X145397950Y-86792785D01*
X145397950Y-86792785D02*
X145445569Y-86721357D01*
X145445569Y-86721357D02*
X145540807Y-86649928D01*
X146778902Y-86649928D02*
X146302712Y-86649928D01*
X146302712Y-86649928D02*
X146255093Y-87364214D01*
X146255093Y-87364214D02*
X146302712Y-87292785D01*
X146302712Y-87292785D02*
X146397950Y-87221357D01*
X146397950Y-87221357D02*
X146636045Y-87221357D01*
X146636045Y-87221357D02*
X146731283Y-87292785D01*
X146731283Y-87292785D02*
X146778902Y-87364214D01*
X146778902Y-87364214D02*
X146826521Y-87507071D01*
X146826521Y-87507071D02*
X146826521Y-87864214D01*
X146826521Y-87864214D02*
X146778902Y-88007071D01*
X146778902Y-88007071D02*
X146731283Y-88078500D01*
X146731283Y-88078500D02*
X146636045Y-88149928D01*
X146636045Y-88149928D02*
X146397950Y-88149928D01*
X146397950Y-88149928D02*
X146302712Y-88078500D01*
X146302712Y-88078500D02*
X146255093Y-88007071D01*
X145540807Y-89064928D02*
X145636045Y-89064928D01*
X145636045Y-89064928D02*
X145731283Y-89136357D01*
X145731283Y-89136357D02*
X145778902Y-89207785D01*
X145778902Y-89207785D02*
X145826521Y-89350642D01*
X145826521Y-89350642D02*
X145874140Y-89636357D01*
X145874140Y-89636357D02*
X145874140Y-89993500D01*
X145874140Y-89993500D02*
X145826521Y-90279214D01*
X145826521Y-90279214D02*
X145778902Y-90422071D01*
X145778902Y-90422071D02*
X145731283Y-90493500D01*
X145731283Y-90493500D02*
X145636045Y-90564928D01*
X145636045Y-90564928D02*
X145540807Y-90564928D01*
X145540807Y-90564928D02*
X145445569Y-90493500D01*
X145445569Y-90493500D02*
X145397950Y-90422071D01*
X145397950Y-90422071D02*
X145350331Y-90279214D01*
X145350331Y-90279214D02*
X145302712Y-89993500D01*
X145302712Y-89993500D02*
X145302712Y-89636357D01*
X145302712Y-89636357D02*
X145350331Y-89350642D01*
X145350331Y-89350642D02*
X145397950Y-89207785D01*
X145397950Y-89207785D02*
X145445569Y-89136357D01*
X145445569Y-89136357D02*
X145540807Y-89064928D01*
X146731283Y-89564928D02*
X146731283Y-90564928D01*
X146493188Y-88993500D02*
X146255093Y-90064928D01*
X146255093Y-90064928D02*
X146874140Y-90064928D01*
X145540807Y-91479928D02*
X145636045Y-91479928D01*
X145636045Y-91479928D02*
X145731283Y-91551357D01*
X145731283Y-91551357D02*
X145778902Y-91622785D01*
X145778902Y-91622785D02*
X145826521Y-91765642D01*
X145826521Y-91765642D02*
X145874140Y-92051357D01*
X145874140Y-92051357D02*
X145874140Y-92408500D01*
X145874140Y-92408500D02*
X145826521Y-92694214D01*
X145826521Y-92694214D02*
X145778902Y-92837071D01*
X145778902Y-92837071D02*
X145731283Y-92908500D01*
X145731283Y-92908500D02*
X145636045Y-92979928D01*
X145636045Y-92979928D02*
X145540807Y-92979928D01*
X145540807Y-92979928D02*
X145445569Y-92908500D01*
X145445569Y-92908500D02*
X145397950Y-92837071D01*
X145397950Y-92837071D02*
X145350331Y-92694214D01*
X145350331Y-92694214D02*
X145302712Y-92408500D01*
X145302712Y-92408500D02*
X145302712Y-92051357D01*
X145302712Y-92051357D02*
X145350331Y-91765642D01*
X145350331Y-91765642D02*
X145397950Y-91622785D01*
X145397950Y-91622785D02*
X145445569Y-91551357D01*
X145445569Y-91551357D02*
X145540807Y-91479928D01*
X146207474Y-91479928D02*
X146826521Y-91479928D01*
X146826521Y-91479928D02*
X146493188Y-92051357D01*
X146493188Y-92051357D02*
X146636045Y-92051357D01*
X146636045Y-92051357D02*
X146731283Y-92122785D01*
X146731283Y-92122785D02*
X146778902Y-92194214D01*
X146778902Y-92194214D02*
X146826521Y-92337071D01*
X146826521Y-92337071D02*
X146826521Y-92694214D01*
X146826521Y-92694214D02*
X146778902Y-92837071D01*
X146778902Y-92837071D02*
X146731283Y-92908500D01*
X146731283Y-92908500D02*
X146636045Y-92979928D01*
X146636045Y-92979928D02*
X146350331Y-92979928D01*
X146350331Y-92979928D02*
X146255093Y-92908500D01*
X146255093Y-92908500D02*
X146207474Y-92837071D01*
X145540807Y-93894928D02*
X145636045Y-93894928D01*
X145636045Y-93894928D02*
X145731283Y-93966357D01*
X145731283Y-93966357D02*
X145778902Y-94037785D01*
X145778902Y-94037785D02*
X145826521Y-94180642D01*
X145826521Y-94180642D02*
X145874140Y-94466357D01*
X145874140Y-94466357D02*
X145874140Y-94823500D01*
X145874140Y-94823500D02*
X145826521Y-95109214D01*
X145826521Y-95109214D02*
X145778902Y-95252071D01*
X145778902Y-95252071D02*
X145731283Y-95323500D01*
X145731283Y-95323500D02*
X145636045Y-95394928D01*
X145636045Y-95394928D02*
X145540807Y-95394928D01*
X145540807Y-95394928D02*
X145445569Y-95323500D01*
X145445569Y-95323500D02*
X145397950Y-95252071D01*
X145397950Y-95252071D02*
X145350331Y-95109214D01*
X145350331Y-95109214D02*
X145302712Y-94823500D01*
X145302712Y-94823500D02*
X145302712Y-94466357D01*
X145302712Y-94466357D02*
X145350331Y-94180642D01*
X145350331Y-94180642D02*
X145397950Y-94037785D01*
X145397950Y-94037785D02*
X145445569Y-93966357D01*
X145445569Y-93966357D02*
X145540807Y-93894928D01*
X146255093Y-94037785D02*
X146302712Y-93966357D01*
X146302712Y-93966357D02*
X146397950Y-93894928D01*
X146397950Y-93894928D02*
X146636045Y-93894928D01*
X146636045Y-93894928D02*
X146731283Y-93966357D01*
X146731283Y-93966357D02*
X146778902Y-94037785D01*
X146778902Y-94037785D02*
X146826521Y-94180642D01*
X146826521Y-94180642D02*
X146826521Y-94323500D01*
X146826521Y-94323500D02*
X146778902Y-94537785D01*
X146778902Y-94537785D02*
X146207474Y-95394928D01*
X146207474Y-95394928D02*
X146826521Y-95394928D01*
X145540807Y-96309928D02*
X145636045Y-96309928D01*
X145636045Y-96309928D02*
X145731283Y-96381357D01*
X145731283Y-96381357D02*
X145778902Y-96452785D01*
X145778902Y-96452785D02*
X145826521Y-96595642D01*
X145826521Y-96595642D02*
X145874140Y-96881357D01*
X145874140Y-96881357D02*
X145874140Y-97238500D01*
X145874140Y-97238500D02*
X145826521Y-97524214D01*
X145826521Y-97524214D02*
X145778902Y-97667071D01*
X145778902Y-97667071D02*
X145731283Y-97738500D01*
X145731283Y-97738500D02*
X145636045Y-97809928D01*
X145636045Y-97809928D02*
X145540807Y-97809928D01*
X145540807Y-97809928D02*
X145445569Y-97738500D01*
X145445569Y-97738500D02*
X145397950Y-97667071D01*
X145397950Y-97667071D02*
X145350331Y-97524214D01*
X145350331Y-97524214D02*
X145302712Y-97238500D01*
X145302712Y-97238500D02*
X145302712Y-96881357D01*
X145302712Y-96881357D02*
X145350331Y-96595642D01*
X145350331Y-96595642D02*
X145397950Y-96452785D01*
X145397950Y-96452785D02*
X145445569Y-96381357D01*
X145445569Y-96381357D02*
X145540807Y-96309928D01*
X146826521Y-97809928D02*
X146255093Y-97809928D01*
X146540807Y-97809928D02*
X146540807Y-96309928D01*
X146540807Y-96309928D02*
X146445569Y-96524214D01*
X146445569Y-96524214D02*
X146350331Y-96667071D01*
X146350331Y-96667071D02*
X146255093Y-96738500D01*
X145594140Y-69484928D02*
X145022712Y-69484928D01*
X145308426Y-69484928D02*
X145308426Y-67984928D01*
X145308426Y-67984928D02*
X145213188Y-68199214D01*
X145213188Y-68199214D02*
X145117950Y-68342071D01*
X145117950Y-68342071D02*
X145022712Y-68413500D01*
X145927474Y-67984928D02*
X146546521Y-67984928D01*
X146546521Y-67984928D02*
X146213188Y-68556357D01*
X146213188Y-68556357D02*
X146356045Y-68556357D01*
X146356045Y-68556357D02*
X146451283Y-68627785D01*
X146451283Y-68627785D02*
X146498902Y-68699214D01*
X146498902Y-68699214D02*
X146546521Y-68842071D01*
X146546521Y-68842071D02*
X146546521Y-69199214D01*
X146546521Y-69199214D02*
X146498902Y-69342071D01*
X146498902Y-69342071D02*
X146451283Y-69413500D01*
X146451283Y-69413500D02*
X146356045Y-69484928D01*
X146356045Y-69484928D02*
X146070331Y-69484928D01*
X146070331Y-69484928D02*
X145975093Y-69413500D01*
X145975093Y-69413500D02*
X145927474Y-69342071D01*
X145594140Y-71899928D02*
X145022712Y-71899928D01*
X145308426Y-71899928D02*
X145308426Y-70399928D01*
X145308426Y-70399928D02*
X145213188Y-70614214D01*
X145213188Y-70614214D02*
X145117950Y-70757071D01*
X145117950Y-70757071D02*
X145022712Y-70828500D01*
X145975093Y-70542785D02*
X146022712Y-70471357D01*
X146022712Y-70471357D02*
X146117950Y-70399928D01*
X146117950Y-70399928D02*
X146356045Y-70399928D01*
X146356045Y-70399928D02*
X146451283Y-70471357D01*
X146451283Y-70471357D02*
X146498902Y-70542785D01*
X146498902Y-70542785D02*
X146546521Y-70685642D01*
X146546521Y-70685642D02*
X146546521Y-70828500D01*
X146546521Y-70828500D02*
X146498902Y-71042785D01*
X146498902Y-71042785D02*
X145927474Y-71899928D01*
X145927474Y-71899928D02*
X146546521Y-71899928D01*
X145594140Y-74314928D02*
X145022712Y-74314928D01*
X145308426Y-74314928D02*
X145308426Y-72814928D01*
X145308426Y-72814928D02*
X145213188Y-73029214D01*
X145213188Y-73029214D02*
X145117950Y-73172071D01*
X145117950Y-73172071D02*
X145022712Y-73243500D01*
X146546521Y-74314928D02*
X145975093Y-74314928D01*
X146260807Y-74314928D02*
X146260807Y-72814928D01*
X146260807Y-72814928D02*
X146165569Y-73029214D01*
X146165569Y-73029214D02*
X146070331Y-73172071D01*
X146070331Y-73172071D02*
X145975093Y-73243500D01*
X145594140Y-76729928D02*
X145022712Y-76729928D01*
X145308426Y-76729928D02*
X145308426Y-75229928D01*
X145308426Y-75229928D02*
X145213188Y-75444214D01*
X145213188Y-75444214D02*
X145117950Y-75587071D01*
X145117950Y-75587071D02*
X145022712Y-75658500D01*
X146213188Y-75229928D02*
X146308426Y-75229928D01*
X146308426Y-75229928D02*
X146403664Y-75301357D01*
X146403664Y-75301357D02*
X146451283Y-75372785D01*
X146451283Y-75372785D02*
X146498902Y-75515642D01*
X146498902Y-75515642D02*
X146546521Y-75801357D01*
X146546521Y-75801357D02*
X146546521Y-76158500D01*
X146546521Y-76158500D02*
X146498902Y-76444214D01*
X146498902Y-76444214D02*
X146451283Y-76587071D01*
X146451283Y-76587071D02*
X146403664Y-76658500D01*
X146403664Y-76658500D02*
X146308426Y-76729928D01*
X146308426Y-76729928D02*
X146213188Y-76729928D01*
X146213188Y-76729928D02*
X146117950Y-76658500D01*
X146117950Y-76658500D02*
X146070331Y-76587071D01*
X146070331Y-76587071D02*
X146022712Y-76444214D01*
X146022712Y-76444214D02*
X145975093Y-76158500D01*
X145975093Y-76158500D02*
X145975093Y-75801357D01*
X145975093Y-75801357D02*
X146022712Y-75515642D01*
X146022712Y-75515642D02*
X146070331Y-75372785D01*
X146070331Y-75372785D02*
X146117950Y-75301357D01*
X146117950Y-75301357D02*
X146213188Y-75229928D01*
X145260807Y-77644928D02*
X145356045Y-77644928D01*
X145356045Y-77644928D02*
X145451283Y-77716357D01*
X145451283Y-77716357D02*
X145498902Y-77787785D01*
X145498902Y-77787785D02*
X145546521Y-77930642D01*
X145546521Y-77930642D02*
X145594140Y-78216357D01*
X145594140Y-78216357D02*
X145594140Y-78573500D01*
X145594140Y-78573500D02*
X145546521Y-78859214D01*
X145546521Y-78859214D02*
X145498902Y-79002071D01*
X145498902Y-79002071D02*
X145451283Y-79073500D01*
X145451283Y-79073500D02*
X145356045Y-79144928D01*
X145356045Y-79144928D02*
X145260807Y-79144928D01*
X145260807Y-79144928D02*
X145165569Y-79073500D01*
X145165569Y-79073500D02*
X145117950Y-79002071D01*
X145117950Y-79002071D02*
X145070331Y-78859214D01*
X145070331Y-78859214D02*
X145022712Y-78573500D01*
X145022712Y-78573500D02*
X145022712Y-78216357D01*
X145022712Y-78216357D02*
X145070331Y-77930642D01*
X145070331Y-77930642D02*
X145117950Y-77787785D01*
X145117950Y-77787785D02*
X145165569Y-77716357D01*
X145165569Y-77716357D02*
X145260807Y-77644928D01*
X146070331Y-79144928D02*
X146260807Y-79144928D01*
X146260807Y-79144928D02*
X146356045Y-79073500D01*
X146356045Y-79073500D02*
X146403664Y-79002071D01*
X146403664Y-79002071D02*
X146498902Y-78787785D01*
X146498902Y-78787785D02*
X146546521Y-78502071D01*
X146546521Y-78502071D02*
X146546521Y-77930642D01*
X146546521Y-77930642D02*
X146498902Y-77787785D01*
X146498902Y-77787785D02*
X146451283Y-77716357D01*
X146451283Y-77716357D02*
X146356045Y-77644928D01*
X146356045Y-77644928D02*
X146165569Y-77644928D01*
X146165569Y-77644928D02*
X146070331Y-77716357D01*
X146070331Y-77716357D02*
X146022712Y-77787785D01*
X146022712Y-77787785D02*
X145975093Y-77930642D01*
X145975093Y-77930642D02*
X145975093Y-78287785D01*
X145975093Y-78287785D02*
X146022712Y-78430642D01*
X146022712Y-78430642D02*
X146070331Y-78502071D01*
X146070331Y-78502071D02*
X146165569Y-78573500D01*
X146165569Y-78573500D02*
X146356045Y-78573500D01*
X146356045Y-78573500D02*
X146451283Y-78502071D01*
X146451283Y-78502071D02*
X146498902Y-78430642D01*
X146498902Y-78430642D02*
X146546521Y-78287785D01*
X145260807Y-80059928D02*
X145356045Y-80059928D01*
X145356045Y-80059928D02*
X145451283Y-80131357D01*
X145451283Y-80131357D02*
X145498902Y-80202785D01*
X145498902Y-80202785D02*
X145546521Y-80345642D01*
X145546521Y-80345642D02*
X145594140Y-80631357D01*
X145594140Y-80631357D02*
X145594140Y-80988500D01*
X145594140Y-80988500D02*
X145546521Y-81274214D01*
X145546521Y-81274214D02*
X145498902Y-81417071D01*
X145498902Y-81417071D02*
X145451283Y-81488500D01*
X145451283Y-81488500D02*
X145356045Y-81559928D01*
X145356045Y-81559928D02*
X145260807Y-81559928D01*
X145260807Y-81559928D02*
X145165569Y-81488500D01*
X145165569Y-81488500D02*
X145117950Y-81417071D01*
X145117950Y-81417071D02*
X145070331Y-81274214D01*
X145070331Y-81274214D02*
X145022712Y-80988500D01*
X145022712Y-80988500D02*
X145022712Y-80631357D01*
X145022712Y-80631357D02*
X145070331Y-80345642D01*
X145070331Y-80345642D02*
X145117950Y-80202785D01*
X145117950Y-80202785D02*
X145165569Y-80131357D01*
X145165569Y-80131357D02*
X145260807Y-80059928D01*
X146165569Y-80702785D02*
X146070331Y-80631357D01*
X146070331Y-80631357D02*
X146022712Y-80559928D01*
X146022712Y-80559928D02*
X145975093Y-80417071D01*
X145975093Y-80417071D02*
X145975093Y-80345642D01*
X145975093Y-80345642D02*
X146022712Y-80202785D01*
X146022712Y-80202785D02*
X146070331Y-80131357D01*
X146070331Y-80131357D02*
X146165569Y-80059928D01*
X146165569Y-80059928D02*
X146356045Y-80059928D01*
X146356045Y-80059928D02*
X146451283Y-80131357D01*
X146451283Y-80131357D02*
X146498902Y-80202785D01*
X146498902Y-80202785D02*
X146546521Y-80345642D01*
X146546521Y-80345642D02*
X146546521Y-80417071D01*
X146546521Y-80417071D02*
X146498902Y-80559928D01*
X146498902Y-80559928D02*
X146451283Y-80631357D01*
X146451283Y-80631357D02*
X146356045Y-80702785D01*
X146356045Y-80702785D02*
X146165569Y-80702785D01*
X146165569Y-80702785D02*
X146070331Y-80774214D01*
X146070331Y-80774214D02*
X146022712Y-80845642D01*
X146022712Y-80845642D02*
X145975093Y-80988500D01*
X145975093Y-80988500D02*
X145975093Y-81274214D01*
X145975093Y-81274214D02*
X146022712Y-81417071D01*
X146022712Y-81417071D02*
X146070331Y-81488500D01*
X146070331Y-81488500D02*
X146165569Y-81559928D01*
X146165569Y-81559928D02*
X146356045Y-81559928D01*
X146356045Y-81559928D02*
X146451283Y-81488500D01*
X146451283Y-81488500D02*
X146498902Y-81417071D01*
X146498902Y-81417071D02*
X146546521Y-81274214D01*
X146546521Y-81274214D02*
X146546521Y-80988500D01*
X146546521Y-80988500D02*
X146498902Y-80845642D01*
X146498902Y-80845642D02*
X146451283Y-80774214D01*
X146451283Y-80774214D02*
X146356045Y-80702785D01*
D11*
X144024435Y-73736266D02*
X144095863Y-73688647D01*
X144095863Y-73688647D02*
X144238720Y-73641028D01*
X144238720Y-73641028D02*
X144524435Y-73736266D01*
X144524435Y-73736266D02*
X144667292Y-73688647D01*
X144667292Y-73688647D02*
X144738720Y-73641028D01*
D10*
X145522712Y-52806357D02*
X145998902Y-52806357D01*
X145427474Y-53234928D02*
X145760807Y-51734928D01*
X145760807Y-51734928D02*
X146094140Y-53234928D01*
X146903664Y-51734928D02*
X146427474Y-51734928D01*
X146427474Y-51734928D02*
X146379855Y-52449214D01*
X146379855Y-52449214D02*
X146427474Y-52377785D01*
X146427474Y-52377785D02*
X146522712Y-52306357D01*
X146522712Y-52306357D02*
X146760807Y-52306357D01*
X146760807Y-52306357D02*
X146856045Y-52377785D01*
X146856045Y-52377785D02*
X146903664Y-52449214D01*
X146903664Y-52449214D02*
X146951283Y-52592071D01*
X146951283Y-52592071D02*
X146951283Y-52949214D01*
X146951283Y-52949214D02*
X146903664Y-53092071D01*
X146903664Y-53092071D02*
X146856045Y-53163500D01*
X146856045Y-53163500D02*
X146760807Y-53234928D01*
X146760807Y-53234928D02*
X146522712Y-53234928D01*
X146522712Y-53234928D02*
X146427474Y-53163500D01*
X146427474Y-53163500D02*
X146379855Y-53092071D01*
X145522712Y-55221357D02*
X145998902Y-55221357D01*
X145427474Y-55649928D02*
X145760807Y-54149928D01*
X145760807Y-54149928D02*
X146094140Y-55649928D01*
X146856045Y-54649928D02*
X146856045Y-55649928D01*
X146617950Y-54078500D02*
X146379855Y-55149928D01*
X146379855Y-55149928D02*
X146998902Y-55149928D01*
X145522712Y-57636357D02*
X145998902Y-57636357D01*
X145427474Y-58064928D02*
X145760807Y-56564928D01*
X145760807Y-56564928D02*
X146094140Y-58064928D01*
X146332236Y-56564928D02*
X146951283Y-56564928D01*
X146951283Y-56564928D02*
X146617950Y-57136357D01*
X146617950Y-57136357D02*
X146760807Y-57136357D01*
X146760807Y-57136357D02*
X146856045Y-57207785D01*
X146856045Y-57207785D02*
X146903664Y-57279214D01*
X146903664Y-57279214D02*
X146951283Y-57422071D01*
X146951283Y-57422071D02*
X146951283Y-57779214D01*
X146951283Y-57779214D02*
X146903664Y-57922071D01*
X146903664Y-57922071D02*
X146856045Y-57993500D01*
X146856045Y-57993500D02*
X146760807Y-58064928D01*
X146760807Y-58064928D02*
X146475093Y-58064928D01*
X146475093Y-58064928D02*
X146379855Y-57993500D01*
X146379855Y-57993500D02*
X146332236Y-57922071D01*
X145522712Y-60051357D02*
X145998902Y-60051357D01*
X145427474Y-60479928D02*
X145760807Y-58979928D01*
X145760807Y-58979928D02*
X146094140Y-60479928D01*
X146379855Y-59122785D02*
X146427474Y-59051357D01*
X146427474Y-59051357D02*
X146522712Y-58979928D01*
X146522712Y-58979928D02*
X146760807Y-58979928D01*
X146760807Y-58979928D02*
X146856045Y-59051357D01*
X146856045Y-59051357D02*
X146903664Y-59122785D01*
X146903664Y-59122785D02*
X146951283Y-59265642D01*
X146951283Y-59265642D02*
X146951283Y-59408500D01*
X146951283Y-59408500D02*
X146903664Y-59622785D01*
X146903664Y-59622785D02*
X146332236Y-60479928D01*
X146332236Y-60479928D02*
X146951283Y-60479928D01*
X145522712Y-62466357D02*
X145998902Y-62466357D01*
X145427474Y-62894928D02*
X145760807Y-61394928D01*
X145760807Y-61394928D02*
X146094140Y-62894928D01*
X146951283Y-62894928D02*
X146379855Y-62894928D01*
X146665569Y-62894928D02*
X146665569Y-61394928D01*
X146665569Y-61394928D02*
X146570331Y-61609214D01*
X146570331Y-61609214D02*
X146475093Y-61752071D01*
X146475093Y-61752071D02*
X146379855Y-61823500D01*
X145522712Y-64881357D02*
X145998902Y-64881357D01*
X145427474Y-65309928D02*
X145760807Y-63809928D01*
X145760807Y-63809928D02*
X146094140Y-65309928D01*
X146617950Y-63809928D02*
X146713188Y-63809928D01*
X146713188Y-63809928D02*
X146808426Y-63881357D01*
X146808426Y-63881357D02*
X146856045Y-63952785D01*
X146856045Y-63952785D02*
X146903664Y-64095642D01*
X146903664Y-64095642D02*
X146951283Y-64381357D01*
X146951283Y-64381357D02*
X146951283Y-64738500D01*
X146951283Y-64738500D02*
X146903664Y-65024214D01*
X146903664Y-65024214D02*
X146856045Y-65167071D01*
X146856045Y-65167071D02*
X146808426Y-65238500D01*
X146808426Y-65238500D02*
X146713188Y-65309928D01*
X146713188Y-65309928D02*
X146617950Y-65309928D01*
X146617950Y-65309928D02*
X146522712Y-65238500D01*
X146522712Y-65238500D02*
X146475093Y-65167071D01*
X146475093Y-65167071D02*
X146427474Y-65024214D01*
X146427474Y-65024214D02*
X146379855Y-64738500D01*
X146379855Y-64738500D02*
X146379855Y-64381357D01*
X146379855Y-64381357D02*
X146427474Y-64095642D01*
X146427474Y-64095642D02*
X146475093Y-63952785D01*
X146475093Y-63952785D02*
X146522712Y-63881357D01*
X146522712Y-63881357D02*
X146617950Y-63809928D01*
X130379855Y-95682309D02*
X130546521Y-96182309D01*
X130546521Y-96182309D02*
X130713188Y-95682309D01*
X131165568Y-96134690D02*
X131141759Y-96158500D01*
X131141759Y-96158500D02*
X131070330Y-96182309D01*
X131070330Y-96182309D02*
X131022711Y-96182309D01*
X131022711Y-96182309D02*
X130951283Y-96158500D01*
X130951283Y-96158500D02*
X130903664Y-96110880D01*
X130903664Y-96110880D02*
X130879854Y-96063261D01*
X130879854Y-96063261D02*
X130856045Y-95968023D01*
X130856045Y-95968023D02*
X130856045Y-95896595D01*
X130856045Y-95896595D02*
X130879854Y-95801357D01*
X130879854Y-95801357D02*
X130903664Y-95753738D01*
X130903664Y-95753738D02*
X130951283Y-95706119D01*
X130951283Y-95706119D02*
X131022711Y-95682309D01*
X131022711Y-95682309D02*
X131070330Y-95682309D01*
X131070330Y-95682309D02*
X131141759Y-95706119D01*
X131141759Y-95706119D02*
X131165568Y-95729928D01*
X131665568Y-96134690D02*
X131641759Y-96158500D01*
X131641759Y-96158500D02*
X131570330Y-96182309D01*
X131570330Y-96182309D02*
X131522711Y-96182309D01*
X131522711Y-96182309D02*
X131451283Y-96158500D01*
X131451283Y-96158500D02*
X131403664Y-96110880D01*
X131403664Y-96110880D02*
X131379854Y-96063261D01*
X131379854Y-96063261D02*
X131356045Y-95968023D01*
X131356045Y-95968023D02*
X131356045Y-95896595D01*
X131356045Y-95896595D02*
X131379854Y-95801357D01*
X131379854Y-95801357D02*
X131403664Y-95753738D01*
X131403664Y-95753738D02*
X131451283Y-95706119D01*
X131451283Y-95706119D02*
X131522711Y-95682309D01*
X131522711Y-95682309D02*
X131570330Y-95682309D01*
X131570330Y-95682309D02*
X131641759Y-95706119D01*
X131641759Y-95706119D02*
X131665568Y-95729928D01*
X132951282Y-95682309D02*
X133117948Y-96182309D01*
X133117948Y-96182309D02*
X133284615Y-95682309D01*
X133736995Y-96134690D02*
X133713186Y-96158500D01*
X133713186Y-96158500D02*
X133641757Y-96182309D01*
X133641757Y-96182309D02*
X133594138Y-96182309D01*
X133594138Y-96182309D02*
X133522710Y-96158500D01*
X133522710Y-96158500D02*
X133475091Y-96110880D01*
X133475091Y-96110880D02*
X133451281Y-96063261D01*
X133451281Y-96063261D02*
X133427472Y-95968023D01*
X133427472Y-95968023D02*
X133427472Y-95896595D01*
X133427472Y-95896595D02*
X133451281Y-95801357D01*
X133451281Y-95801357D02*
X133475091Y-95753738D01*
X133475091Y-95753738D02*
X133522710Y-95706119D01*
X133522710Y-95706119D02*
X133594138Y-95682309D01*
X133594138Y-95682309D02*
X133641757Y-95682309D01*
X133641757Y-95682309D02*
X133713186Y-95706119D01*
X133713186Y-95706119D02*
X133736995Y-95729928D01*
X134236995Y-96134690D02*
X134213186Y-96158500D01*
X134213186Y-96158500D02*
X134141757Y-96182309D01*
X134141757Y-96182309D02*
X134094138Y-96182309D01*
X134094138Y-96182309D02*
X134022710Y-96158500D01*
X134022710Y-96158500D02*
X133975091Y-96110880D01*
X133975091Y-96110880D02*
X133951281Y-96063261D01*
X133951281Y-96063261D02*
X133927472Y-95968023D01*
X133927472Y-95968023D02*
X133927472Y-95896595D01*
X133927472Y-95896595D02*
X133951281Y-95801357D01*
X133951281Y-95801357D02*
X133975091Y-95753738D01*
X133975091Y-95753738D02*
X134022710Y-95706119D01*
X134022710Y-95706119D02*
X134094138Y-95682309D01*
X134094138Y-95682309D02*
X134141757Y-95682309D01*
X134141757Y-95682309D02*
X134213186Y-95706119D01*
X134213186Y-95706119D02*
X134236995Y-95729928D01*
X136213184Y-95682309D02*
X135975089Y-95682309D01*
X135975089Y-95682309D02*
X135951280Y-95920404D01*
X135951280Y-95920404D02*
X135975089Y-95896595D01*
X135975089Y-95896595D02*
X136022708Y-95872785D01*
X136022708Y-95872785D02*
X136141756Y-95872785D01*
X136141756Y-95872785D02*
X136189375Y-95896595D01*
X136189375Y-95896595D02*
X136213184Y-95920404D01*
X136213184Y-95920404D02*
X136236994Y-95968023D01*
X136236994Y-95968023D02*
X136236994Y-96087071D01*
X136236994Y-96087071D02*
X136213184Y-96134690D01*
X136213184Y-96134690D02*
X136189375Y-96158500D01*
X136189375Y-96158500D02*
X136141756Y-96182309D01*
X136141756Y-96182309D02*
X136022708Y-96182309D01*
X136022708Y-96182309D02*
X135975089Y-96158500D01*
X135975089Y-96158500D02*
X135951280Y-96134690D01*
X136379851Y-95682309D02*
X136546517Y-96182309D01*
X136546517Y-96182309D02*
X136713184Y-95682309D01*
X138641753Y-95682309D02*
X138403658Y-95682309D01*
X138403658Y-95682309D02*
X138379849Y-95920404D01*
X138379849Y-95920404D02*
X138403658Y-95896595D01*
X138403658Y-95896595D02*
X138451277Y-95872785D01*
X138451277Y-95872785D02*
X138570325Y-95872785D01*
X138570325Y-95872785D02*
X138617944Y-95896595D01*
X138617944Y-95896595D02*
X138641753Y-95920404D01*
X138641753Y-95920404D02*
X138665563Y-95968023D01*
X138665563Y-95968023D02*
X138665563Y-96087071D01*
X138665563Y-96087071D02*
X138641753Y-96134690D01*
X138641753Y-96134690D02*
X138617944Y-96158500D01*
X138617944Y-96158500D02*
X138570325Y-96182309D01*
X138570325Y-96182309D02*
X138451277Y-96182309D01*
X138451277Y-96182309D02*
X138403658Y-96158500D01*
X138403658Y-96158500D02*
X138379849Y-96134690D01*
X138808420Y-95682309D02*
X138975086Y-96182309D01*
X138975086Y-96182309D02*
X139141753Y-95682309D01*
X140713180Y-95706119D02*
X140665561Y-95682309D01*
X140665561Y-95682309D02*
X140594132Y-95682309D01*
X140594132Y-95682309D02*
X140522704Y-95706119D01*
X140522704Y-95706119D02*
X140475085Y-95753738D01*
X140475085Y-95753738D02*
X140451275Y-95801357D01*
X140451275Y-95801357D02*
X140427466Y-95896595D01*
X140427466Y-95896595D02*
X140427466Y-95968023D01*
X140427466Y-95968023D02*
X140451275Y-96063261D01*
X140451275Y-96063261D02*
X140475085Y-96110880D01*
X140475085Y-96110880D02*
X140522704Y-96158500D01*
X140522704Y-96158500D02*
X140594132Y-96182309D01*
X140594132Y-96182309D02*
X140641751Y-96182309D01*
X140641751Y-96182309D02*
X140713180Y-96158500D01*
X140713180Y-96158500D02*
X140736989Y-96134690D01*
X140736989Y-96134690D02*
X140736989Y-95968023D01*
X140736989Y-95968023D02*
X140641751Y-95968023D01*
X140951275Y-96182309D02*
X140951275Y-95682309D01*
X140951275Y-95682309D02*
X141236989Y-96182309D01*
X141236989Y-96182309D02*
X141236989Y-95682309D01*
X141475085Y-96182309D02*
X141475085Y-95682309D01*
X141475085Y-95682309D02*
X141594133Y-95682309D01*
X141594133Y-95682309D02*
X141665561Y-95706119D01*
X141665561Y-95706119D02*
X141713180Y-95753738D01*
X141713180Y-95753738D02*
X141736990Y-95801357D01*
X141736990Y-95801357D02*
X141760799Y-95896595D01*
X141760799Y-95896595D02*
X141760799Y-95968023D01*
X141760799Y-95968023D02*
X141736990Y-96063261D01*
X141736990Y-96063261D02*
X141713180Y-96110880D01*
X141713180Y-96110880D02*
X141665561Y-96158500D01*
X141665561Y-96158500D02*
X141594133Y-96182309D01*
X141594133Y-96182309D02*
X141475085Y-96182309D01*
X143379846Y-95706119D02*
X143332227Y-95682309D01*
X143332227Y-95682309D02*
X143260798Y-95682309D01*
X143260798Y-95682309D02*
X143189370Y-95706119D01*
X143189370Y-95706119D02*
X143141751Y-95753738D01*
X143141751Y-95753738D02*
X143117941Y-95801357D01*
X143117941Y-95801357D02*
X143094132Y-95896595D01*
X143094132Y-95896595D02*
X143094132Y-95968023D01*
X143094132Y-95968023D02*
X143117941Y-96063261D01*
X143117941Y-96063261D02*
X143141751Y-96110880D01*
X143141751Y-96110880D02*
X143189370Y-96158500D01*
X143189370Y-96158500D02*
X143260798Y-96182309D01*
X143260798Y-96182309D02*
X143308417Y-96182309D01*
X143308417Y-96182309D02*
X143379846Y-96158500D01*
X143379846Y-96158500D02*
X143403655Y-96134690D01*
X143403655Y-96134690D02*
X143403655Y-95968023D01*
X143403655Y-95968023D02*
X143308417Y-95968023D01*
X143617941Y-96182309D02*
X143617941Y-95682309D01*
X143617941Y-95682309D02*
X143903655Y-96182309D01*
X143903655Y-96182309D02*
X143903655Y-95682309D01*
X144141751Y-96182309D02*
X144141751Y-95682309D01*
X144141751Y-95682309D02*
X144260799Y-95682309D01*
X144260799Y-95682309D02*
X144332227Y-95706119D01*
X144332227Y-95706119D02*
X144379846Y-95753738D01*
X144379846Y-95753738D02*
X144403656Y-95801357D01*
X144403656Y-95801357D02*
X144427465Y-95896595D01*
X144427465Y-95896595D02*
X144427465Y-95968023D01*
X144427465Y-95968023D02*
X144403656Y-96063261D01*
X144403656Y-96063261D02*
X144379846Y-96110880D01*
X144379846Y-96110880D02*
X144332227Y-96158500D01*
X144332227Y-96158500D02*
X144260799Y-96182309D01*
X144260799Y-96182309D02*
X144141751Y-96182309D01*
X114817690Y-71189378D02*
X114817690Y-70951283D01*
X114817690Y-70951283D02*
X115317690Y-70951283D01*
X115079595Y-71356045D02*
X115079595Y-71522712D01*
X114817690Y-71594140D02*
X114817690Y-71356045D01*
X114817690Y-71356045D02*
X115317690Y-71356045D01*
X115317690Y-71356045D02*
X115317690Y-71594140D01*
X114817690Y-71808426D02*
X115317690Y-71808426D01*
X115317690Y-71808426D02*
X115317690Y-71927474D01*
X115317690Y-71927474D02*
X115293880Y-71998902D01*
X115293880Y-71998902D02*
X115246261Y-72046521D01*
X115246261Y-72046521D02*
X115198642Y-72070331D01*
X115198642Y-72070331D02*
X115103404Y-72094140D01*
X115103404Y-72094140D02*
X115031976Y-72094140D01*
X115031976Y-72094140D02*
X114936738Y-72070331D01*
X114936738Y-72070331D02*
X114889119Y-72046521D01*
X114889119Y-72046521D02*
X114841500Y-71998902D01*
X114841500Y-71998902D02*
X114817690Y-71927474D01*
X114817690Y-71927474D02*
X114817690Y-71808426D01*
X115270071Y-72284617D02*
X115293880Y-72308426D01*
X115293880Y-72308426D02*
X115317690Y-72356045D01*
X115317690Y-72356045D02*
X115317690Y-72475093D01*
X115317690Y-72475093D02*
X115293880Y-72522712D01*
X115293880Y-72522712D02*
X115270071Y-72546521D01*
X115270071Y-72546521D02*
X115222452Y-72570331D01*
X115222452Y-72570331D02*
X115174833Y-72570331D01*
X115174833Y-72570331D02*
X115103404Y-72546521D01*
X115103404Y-72546521D02*
X114817690Y-72260807D01*
X114817690Y-72260807D02*
X114817690Y-72570331D01*
X114817690Y-68439378D02*
X114817690Y-68201283D01*
X114817690Y-68201283D02*
X115317690Y-68201283D01*
X115079595Y-68606045D02*
X115079595Y-68772712D01*
X114817690Y-68844140D02*
X114817690Y-68606045D01*
X114817690Y-68606045D02*
X115317690Y-68606045D01*
X115317690Y-68606045D02*
X115317690Y-68844140D01*
X114817690Y-69058426D02*
X115317690Y-69058426D01*
X115317690Y-69058426D02*
X115317690Y-69177474D01*
X115317690Y-69177474D02*
X115293880Y-69248902D01*
X115293880Y-69248902D02*
X115246261Y-69296521D01*
X115246261Y-69296521D02*
X115198642Y-69320331D01*
X115198642Y-69320331D02*
X115103404Y-69344140D01*
X115103404Y-69344140D02*
X115031976Y-69344140D01*
X115031976Y-69344140D02*
X114936738Y-69320331D01*
X114936738Y-69320331D02*
X114889119Y-69296521D01*
X114889119Y-69296521D02*
X114841500Y-69248902D01*
X114841500Y-69248902D02*
X114817690Y-69177474D01*
X114817690Y-69177474D02*
X114817690Y-69058426D01*
X114817690Y-69820331D02*
X114817690Y-69534617D01*
X114817690Y-69677474D02*
X115317690Y-69677474D01*
X115317690Y-69677474D02*
X115246261Y-69629855D01*
X115246261Y-69629855D02*
X115198642Y-69582236D01*
X115198642Y-69582236D02*
X115174833Y-69534617D01*
X114841500Y-65927474D02*
X114817690Y-65998902D01*
X114817690Y-65998902D02*
X114817690Y-66117950D01*
X114817690Y-66117950D02*
X114841500Y-66165569D01*
X114841500Y-66165569D02*
X114865309Y-66189378D01*
X114865309Y-66189378D02*
X114912928Y-66213188D01*
X114912928Y-66213188D02*
X114960547Y-66213188D01*
X114960547Y-66213188D02*
X115008166Y-66189378D01*
X115008166Y-66189378D02*
X115031976Y-66165569D01*
X115031976Y-66165569D02*
X115055785Y-66117950D01*
X115055785Y-66117950D02*
X115079595Y-66022712D01*
X115079595Y-66022712D02*
X115103404Y-65975093D01*
X115103404Y-65975093D02*
X115127214Y-65951283D01*
X115127214Y-65951283D02*
X115174833Y-65927474D01*
X115174833Y-65927474D02*
X115222452Y-65927474D01*
X115222452Y-65927474D02*
X115270071Y-65951283D01*
X115270071Y-65951283D02*
X115293880Y-65975093D01*
X115293880Y-65975093D02*
X115317690Y-66022712D01*
X115317690Y-66022712D02*
X115317690Y-66141759D01*
X115317690Y-66141759D02*
X115293880Y-66213188D01*
X115317690Y-66379854D02*
X114817690Y-66498902D01*
X114817690Y-66498902D02*
X115174833Y-66594140D01*
X115174833Y-66594140D02*
X114817690Y-66689378D01*
X114817690Y-66689378D02*
X115317690Y-66808426D01*
X115317690Y-66951283D02*
X115317690Y-67260807D01*
X115317690Y-67260807D02*
X115127214Y-67094140D01*
X115127214Y-67094140D02*
X115127214Y-67165569D01*
X115127214Y-67165569D02*
X115103404Y-67213188D01*
X115103404Y-67213188D02*
X115079595Y-67236997D01*
X115079595Y-67236997D02*
X115031976Y-67260807D01*
X115031976Y-67260807D02*
X114912928Y-67260807D01*
X114912928Y-67260807D02*
X114865309Y-67236997D01*
X114865309Y-67236997D02*
X114841500Y-67213188D01*
X114841500Y-67213188D02*
X114817690Y-67165569D01*
X114817690Y-67165569D02*
X114817690Y-67022712D01*
X114817690Y-67022712D02*
X114841500Y-66975093D01*
X114841500Y-66975093D02*
X114865309Y-66951283D01*
X114841500Y-63177474D02*
X114817690Y-63248902D01*
X114817690Y-63248902D02*
X114817690Y-63367950D01*
X114817690Y-63367950D02*
X114841500Y-63415569D01*
X114841500Y-63415569D02*
X114865309Y-63439378D01*
X114865309Y-63439378D02*
X114912928Y-63463188D01*
X114912928Y-63463188D02*
X114960547Y-63463188D01*
X114960547Y-63463188D02*
X115008166Y-63439378D01*
X115008166Y-63439378D02*
X115031976Y-63415569D01*
X115031976Y-63415569D02*
X115055785Y-63367950D01*
X115055785Y-63367950D02*
X115079595Y-63272712D01*
X115079595Y-63272712D02*
X115103404Y-63225093D01*
X115103404Y-63225093D02*
X115127214Y-63201283D01*
X115127214Y-63201283D02*
X115174833Y-63177474D01*
X115174833Y-63177474D02*
X115222452Y-63177474D01*
X115222452Y-63177474D02*
X115270071Y-63201283D01*
X115270071Y-63201283D02*
X115293880Y-63225093D01*
X115293880Y-63225093D02*
X115317690Y-63272712D01*
X115317690Y-63272712D02*
X115317690Y-63391759D01*
X115317690Y-63391759D02*
X115293880Y-63463188D01*
X115317690Y-63629854D02*
X114817690Y-63748902D01*
X114817690Y-63748902D02*
X115174833Y-63844140D01*
X115174833Y-63844140D02*
X114817690Y-63939378D01*
X114817690Y-63939378D02*
X115317690Y-64058426D01*
X115270071Y-64225093D02*
X115293880Y-64248902D01*
X115293880Y-64248902D02*
X115317690Y-64296521D01*
X115317690Y-64296521D02*
X115317690Y-64415569D01*
X115317690Y-64415569D02*
X115293880Y-64463188D01*
X115293880Y-64463188D02*
X115270071Y-64486997D01*
X115270071Y-64486997D02*
X115222452Y-64510807D01*
X115222452Y-64510807D02*
X115174833Y-64510807D01*
X115174833Y-64510807D02*
X115103404Y-64486997D01*
X115103404Y-64486997D02*
X114817690Y-64201283D01*
X114817690Y-64201283D02*
X114817690Y-64510807D01*
D12*
X115333333Y-52704819D02*
X115000000Y-52228628D01*
X114761905Y-52704819D02*
X114761905Y-51704819D01*
X114761905Y-51704819D02*
X115142857Y-51704819D01*
X115142857Y-51704819D02*
X115238095Y-51752438D01*
X115238095Y-51752438D02*
X115285714Y-51800057D01*
X115285714Y-51800057D02*
X115333333Y-51895295D01*
X115333333Y-51895295D02*
X115333333Y-52038152D01*
X115333333Y-52038152D02*
X115285714Y-52133390D01*
X115285714Y-52133390D02*
X115238095Y-52181009D01*
X115238095Y-52181009D02*
X115142857Y-52228628D01*
X115142857Y-52228628D02*
X114761905Y-52228628D01*
X116285714Y-52704819D02*
X115714286Y-52704819D01*
X116000000Y-52704819D02*
X116000000Y-51704819D01*
X116000000Y-51704819D02*
X115904762Y-51847676D01*
X115904762Y-51847676D02*
X115809524Y-51942914D01*
X115809524Y-51942914D02*
X115714286Y-51990533D01*
X103666667Y-51157200D02*
X103809524Y-51204819D01*
X103809524Y-51204819D02*
X104047619Y-51204819D01*
X104047619Y-51204819D02*
X104142857Y-51157200D01*
X104142857Y-51157200D02*
X104190476Y-51109580D01*
X104190476Y-51109580D02*
X104238095Y-51014342D01*
X104238095Y-51014342D02*
X104238095Y-50919104D01*
X104238095Y-50919104D02*
X104190476Y-50823866D01*
X104190476Y-50823866D02*
X104142857Y-50776247D01*
X104142857Y-50776247D02*
X104047619Y-50728628D01*
X104047619Y-50728628D02*
X103857143Y-50681009D01*
X103857143Y-50681009D02*
X103761905Y-50633390D01*
X103761905Y-50633390D02*
X103714286Y-50585771D01*
X103714286Y-50585771D02*
X103666667Y-50490533D01*
X103666667Y-50490533D02*
X103666667Y-50395295D01*
X103666667Y-50395295D02*
X103714286Y-50300057D01*
X103714286Y-50300057D02*
X103761905Y-50252438D01*
X103761905Y-50252438D02*
X103857143Y-50204819D01*
X103857143Y-50204819D02*
X104095238Y-50204819D01*
X104095238Y-50204819D02*
X104238095Y-50252438D01*
X104571429Y-50204819D02*
X104809524Y-51204819D01*
X104809524Y-51204819D02*
X105000000Y-50490533D01*
X105000000Y-50490533D02*
X105190476Y-51204819D01*
X105190476Y-51204819D02*
X105428572Y-50204819D01*
X106333333Y-51204819D02*
X105761905Y-51204819D01*
X106047619Y-51204819D02*
X106047619Y-50204819D01*
X106047619Y-50204819D02*
X105952381Y-50347676D01*
X105952381Y-50347676D02*
X105857143Y-50442914D01*
X105857143Y-50442914D02*
X105761905Y-50490533D01*
X103416667Y-77157200D02*
X103559524Y-77204819D01*
X103559524Y-77204819D02*
X103797619Y-77204819D01*
X103797619Y-77204819D02*
X103892857Y-77157200D01*
X103892857Y-77157200D02*
X103940476Y-77109580D01*
X103940476Y-77109580D02*
X103988095Y-77014342D01*
X103988095Y-77014342D02*
X103988095Y-76919104D01*
X103988095Y-76919104D02*
X103940476Y-76823866D01*
X103940476Y-76823866D02*
X103892857Y-76776247D01*
X103892857Y-76776247D02*
X103797619Y-76728628D01*
X103797619Y-76728628D02*
X103607143Y-76681009D01*
X103607143Y-76681009D02*
X103511905Y-76633390D01*
X103511905Y-76633390D02*
X103464286Y-76585771D01*
X103464286Y-76585771D02*
X103416667Y-76490533D01*
X103416667Y-76490533D02*
X103416667Y-76395295D01*
X103416667Y-76395295D02*
X103464286Y-76300057D01*
X103464286Y-76300057D02*
X103511905Y-76252438D01*
X103511905Y-76252438D02*
X103607143Y-76204819D01*
X103607143Y-76204819D02*
X103845238Y-76204819D01*
X103845238Y-76204819D02*
X103988095Y-76252438D01*
X104321429Y-76204819D02*
X104559524Y-77204819D01*
X104559524Y-77204819D02*
X104750000Y-76490533D01*
X104750000Y-76490533D02*
X104940476Y-77204819D01*
X104940476Y-77204819D02*
X105178572Y-76204819D01*
X105464286Y-76204819D02*
X106083333Y-76204819D01*
X106083333Y-76204819D02*
X105750000Y-76585771D01*
X105750000Y-76585771D02*
X105892857Y-76585771D01*
X105892857Y-76585771D02*
X105988095Y-76633390D01*
X105988095Y-76633390D02*
X106035714Y-76681009D01*
X106035714Y-76681009D02*
X106083333Y-76776247D01*
X106083333Y-76776247D02*
X106083333Y-77014342D01*
X106083333Y-77014342D02*
X106035714Y-77109580D01*
X106035714Y-77109580D02*
X105988095Y-77157200D01*
X105988095Y-77157200D02*
X105892857Y-77204819D01*
X105892857Y-77204819D02*
X105607143Y-77204819D01*
X105607143Y-77204819D02*
X105511905Y-77157200D01*
X105511905Y-77157200D02*
X105464286Y-77109580D01*
X103666667Y-67407200D02*
X103809524Y-67454819D01*
X103809524Y-67454819D02*
X104047619Y-67454819D01*
X104047619Y-67454819D02*
X104142857Y-67407200D01*
X104142857Y-67407200D02*
X104190476Y-67359580D01*
X104190476Y-67359580D02*
X104238095Y-67264342D01*
X104238095Y-67264342D02*
X104238095Y-67169104D01*
X104238095Y-67169104D02*
X104190476Y-67073866D01*
X104190476Y-67073866D02*
X104142857Y-67026247D01*
X104142857Y-67026247D02*
X104047619Y-66978628D01*
X104047619Y-66978628D02*
X103857143Y-66931009D01*
X103857143Y-66931009D02*
X103761905Y-66883390D01*
X103761905Y-66883390D02*
X103714286Y-66835771D01*
X103714286Y-66835771D02*
X103666667Y-66740533D01*
X103666667Y-66740533D02*
X103666667Y-66645295D01*
X103666667Y-66645295D02*
X103714286Y-66550057D01*
X103714286Y-66550057D02*
X103761905Y-66502438D01*
X103761905Y-66502438D02*
X103857143Y-66454819D01*
X103857143Y-66454819D02*
X104095238Y-66454819D01*
X104095238Y-66454819D02*
X104238095Y-66502438D01*
X104571429Y-66454819D02*
X104809524Y-67454819D01*
X104809524Y-67454819D02*
X105000000Y-66740533D01*
X105000000Y-66740533D02*
X105190476Y-67454819D01*
X105190476Y-67454819D02*
X105428572Y-66454819D01*
X105761905Y-66550057D02*
X105809524Y-66502438D01*
X105809524Y-66502438D02*
X105904762Y-66454819D01*
X105904762Y-66454819D02*
X106142857Y-66454819D01*
X106142857Y-66454819D02*
X106238095Y-66502438D01*
X106238095Y-66502438D02*
X106285714Y-66550057D01*
X106285714Y-66550057D02*
X106333333Y-66645295D01*
X106333333Y-66645295D02*
X106333333Y-66740533D01*
X106333333Y-66740533D02*
X106285714Y-66883390D01*
X106285714Y-66883390D02*
X105714286Y-67454819D01*
X105714286Y-67454819D02*
X106333333Y-67454819D01*
X126006905Y-61744819D02*
X126006905Y-60744819D01*
X126006905Y-60744819D02*
X126245000Y-60744819D01*
X126245000Y-60744819D02*
X126387857Y-60792438D01*
X126387857Y-60792438D02*
X126483095Y-60887676D01*
X126483095Y-60887676D02*
X126530714Y-60982914D01*
X126530714Y-60982914D02*
X126578333Y-61173390D01*
X126578333Y-61173390D02*
X126578333Y-61316247D01*
X126578333Y-61316247D02*
X126530714Y-61506723D01*
X126530714Y-61506723D02*
X126483095Y-61601961D01*
X126483095Y-61601961D02*
X126387857Y-61697200D01*
X126387857Y-61697200D02*
X126245000Y-61744819D01*
X126245000Y-61744819D02*
X126006905Y-61744819D01*
X126959286Y-60840057D02*
X127006905Y-60792438D01*
X127006905Y-60792438D02*
X127102143Y-60744819D01*
X127102143Y-60744819D02*
X127340238Y-60744819D01*
X127340238Y-60744819D02*
X127435476Y-60792438D01*
X127435476Y-60792438D02*
X127483095Y-60840057D01*
X127483095Y-60840057D02*
X127530714Y-60935295D01*
X127530714Y-60935295D02*
X127530714Y-61030533D01*
X127530714Y-61030533D02*
X127483095Y-61173390D01*
X127483095Y-61173390D02*
X126911667Y-61744819D01*
X126911667Y-61744819D02*
X127530714Y-61744819D01*
X118333333Y-69809580D02*
X118285714Y-69857200D01*
X118285714Y-69857200D02*
X118142857Y-69904819D01*
X118142857Y-69904819D02*
X118047619Y-69904819D01*
X118047619Y-69904819D02*
X117904762Y-69857200D01*
X117904762Y-69857200D02*
X117809524Y-69761961D01*
X117809524Y-69761961D02*
X117761905Y-69666723D01*
X117761905Y-69666723D02*
X117714286Y-69476247D01*
X117714286Y-69476247D02*
X117714286Y-69333390D01*
X117714286Y-69333390D02*
X117761905Y-69142914D01*
X117761905Y-69142914D02*
X117809524Y-69047676D01*
X117809524Y-69047676D02*
X117904762Y-68952438D01*
X117904762Y-68952438D02*
X118047619Y-68904819D01*
X118047619Y-68904819D02*
X118142857Y-68904819D01*
X118142857Y-68904819D02*
X118285714Y-68952438D01*
X118285714Y-68952438D02*
X118333333Y-69000057D01*
X119190476Y-69238152D02*
X119190476Y-69904819D01*
X118952381Y-68857200D02*
X118714286Y-69571485D01*
X118714286Y-69571485D02*
X119333333Y-69571485D01*
X125359580Y-56666666D02*
X125407200Y-56714285D01*
X125407200Y-56714285D02*
X125454819Y-56857142D01*
X125454819Y-56857142D02*
X125454819Y-56952380D01*
X125454819Y-56952380D02*
X125407200Y-57095237D01*
X125407200Y-57095237D02*
X125311961Y-57190475D01*
X125311961Y-57190475D02*
X125216723Y-57238094D01*
X125216723Y-57238094D02*
X125026247Y-57285713D01*
X125026247Y-57285713D02*
X124883390Y-57285713D01*
X124883390Y-57285713D02*
X124692914Y-57238094D01*
X124692914Y-57238094D02*
X124597676Y-57190475D01*
X124597676Y-57190475D02*
X124502438Y-57095237D01*
X124502438Y-57095237D02*
X124454819Y-56952380D01*
X124454819Y-56952380D02*
X124454819Y-56857142D01*
X124454819Y-56857142D02*
X124502438Y-56714285D01*
X124502438Y-56714285D02*
X124550057Y-56666666D01*
X124454819Y-55809523D02*
X124454819Y-55999999D01*
X124454819Y-55999999D02*
X124502438Y-56095237D01*
X124502438Y-56095237D02*
X124550057Y-56142856D01*
X124550057Y-56142856D02*
X124692914Y-56238094D01*
X124692914Y-56238094D02*
X124883390Y-56285713D01*
X124883390Y-56285713D02*
X125264342Y-56285713D01*
X125264342Y-56285713D02*
X125359580Y-56238094D01*
X125359580Y-56238094D02*
X125407200Y-56190475D01*
X125407200Y-56190475D02*
X125454819Y-56095237D01*
X125454819Y-56095237D02*
X125454819Y-55904761D01*
X125454819Y-55904761D02*
X125407200Y-55809523D01*
X125407200Y-55809523D02*
X125359580Y-55761904D01*
X125359580Y-55761904D02*
X125264342Y-55714285D01*
X125264342Y-55714285D02*
X125026247Y-55714285D01*
X125026247Y-55714285D02*
X124931009Y-55761904D01*
X124931009Y-55761904D02*
X124883390Y-55809523D01*
X124883390Y-55809523D02*
X124835771Y-55904761D01*
X124835771Y-55904761D02*
X124835771Y-56095237D01*
X124835771Y-56095237D02*
X124883390Y-56190475D01*
X124883390Y-56190475D02*
X124931009Y-56238094D01*
X124931009Y-56238094D02*
X125026247Y-56285713D01*
X115333333Y-55954819D02*
X115000000Y-55478628D01*
X114761905Y-55954819D02*
X114761905Y-54954819D01*
X114761905Y-54954819D02*
X115142857Y-54954819D01*
X115142857Y-54954819D02*
X115238095Y-55002438D01*
X115238095Y-55002438D02*
X115285714Y-55050057D01*
X115285714Y-55050057D02*
X115333333Y-55145295D01*
X115333333Y-55145295D02*
X115333333Y-55288152D01*
X115333333Y-55288152D02*
X115285714Y-55383390D01*
X115285714Y-55383390D02*
X115238095Y-55431009D01*
X115238095Y-55431009D02*
X115142857Y-55478628D01*
X115142857Y-55478628D02*
X114761905Y-55478628D01*
X115714286Y-55050057D02*
X115761905Y-55002438D01*
X115761905Y-55002438D02*
X115857143Y-54954819D01*
X115857143Y-54954819D02*
X116095238Y-54954819D01*
X116095238Y-54954819D02*
X116190476Y-55002438D01*
X116190476Y-55002438D02*
X116238095Y-55050057D01*
X116238095Y-55050057D02*
X116285714Y-55145295D01*
X116285714Y-55145295D02*
X116285714Y-55240533D01*
X116285714Y-55240533D02*
X116238095Y-55383390D01*
X116238095Y-55383390D02*
X115666667Y-55954819D01*
X115666667Y-55954819D02*
X116285714Y-55954819D01*
X101466666Y-98497319D02*
X101466666Y-99211604D01*
X101466666Y-99211604D02*
X101419047Y-99354461D01*
X101419047Y-99354461D02*
X101323809Y-99449700D01*
X101323809Y-99449700D02*
X101180952Y-99497319D01*
X101180952Y-99497319D02*
X101085714Y-99497319D01*
X102371428Y-98830652D02*
X102371428Y-99497319D01*
X102133333Y-98449700D02*
X101895238Y-99163985D01*
X101895238Y-99163985D02*
X102514285Y-99163985D01*
X116900954Y-82959580D02*
X116853335Y-83007200D01*
X116853335Y-83007200D02*
X116710478Y-83054819D01*
X116710478Y-83054819D02*
X116615240Y-83054819D01*
X116615240Y-83054819D02*
X116472383Y-83007200D01*
X116472383Y-83007200D02*
X116377145Y-82911961D01*
X116377145Y-82911961D02*
X116329526Y-82816723D01*
X116329526Y-82816723D02*
X116281907Y-82626247D01*
X116281907Y-82626247D02*
X116281907Y-82483390D01*
X116281907Y-82483390D02*
X116329526Y-82292914D01*
X116329526Y-82292914D02*
X116377145Y-82197676D01*
X116377145Y-82197676D02*
X116472383Y-82102438D01*
X116472383Y-82102438D02*
X116615240Y-82054819D01*
X116615240Y-82054819D02*
X116710478Y-82054819D01*
X116710478Y-82054819D02*
X116853335Y-82102438D01*
X116853335Y-82102438D02*
X116900954Y-82150057D01*
X117853335Y-83054819D02*
X117281907Y-83054819D01*
X117567621Y-83054819D02*
X117567621Y-82054819D01*
X117567621Y-82054819D02*
X117472383Y-82197676D01*
X117472383Y-82197676D02*
X117377145Y-82292914D01*
X117377145Y-82292914D02*
X117281907Y-82340533D01*
X125083333Y-82959580D02*
X125035714Y-83007200D01*
X125035714Y-83007200D02*
X124892857Y-83054819D01*
X124892857Y-83054819D02*
X124797619Y-83054819D01*
X124797619Y-83054819D02*
X124654762Y-83007200D01*
X124654762Y-83007200D02*
X124559524Y-82911961D01*
X124559524Y-82911961D02*
X124511905Y-82816723D01*
X124511905Y-82816723D02*
X124464286Y-82626247D01*
X124464286Y-82626247D02*
X124464286Y-82483390D01*
X124464286Y-82483390D02*
X124511905Y-82292914D01*
X124511905Y-82292914D02*
X124559524Y-82197676D01*
X124559524Y-82197676D02*
X124654762Y-82102438D01*
X124654762Y-82102438D02*
X124797619Y-82054819D01*
X124797619Y-82054819D02*
X124892857Y-82054819D01*
X124892857Y-82054819D02*
X125035714Y-82102438D01*
X125035714Y-82102438D02*
X125083333Y-82150057D01*
X125464286Y-82150057D02*
X125511905Y-82102438D01*
X125511905Y-82102438D02*
X125607143Y-82054819D01*
X125607143Y-82054819D02*
X125845238Y-82054819D01*
X125845238Y-82054819D02*
X125940476Y-82102438D01*
X125940476Y-82102438D02*
X125988095Y-82150057D01*
X125988095Y-82150057D02*
X126035714Y-82245295D01*
X126035714Y-82245295D02*
X126035714Y-82340533D01*
X126035714Y-82340533D02*
X125988095Y-82483390D01*
X125988095Y-82483390D02*
X125416667Y-83054819D01*
X125416667Y-83054819D02*
X126035714Y-83054819D01*
X124333333Y-69809580D02*
X124285714Y-69857200D01*
X124285714Y-69857200D02*
X124142857Y-69904819D01*
X124142857Y-69904819D02*
X124047619Y-69904819D01*
X124047619Y-69904819D02*
X123904762Y-69857200D01*
X123904762Y-69857200D02*
X123809524Y-69761961D01*
X123809524Y-69761961D02*
X123761905Y-69666723D01*
X123761905Y-69666723D02*
X123714286Y-69476247D01*
X123714286Y-69476247D02*
X123714286Y-69333390D01*
X123714286Y-69333390D02*
X123761905Y-69142914D01*
X123761905Y-69142914D02*
X123809524Y-69047676D01*
X123809524Y-69047676D02*
X123904762Y-68952438D01*
X123904762Y-68952438D02*
X124047619Y-68904819D01*
X124047619Y-68904819D02*
X124142857Y-68904819D01*
X124142857Y-68904819D02*
X124285714Y-68952438D01*
X124285714Y-68952438D02*
X124333333Y-69000057D01*
X125238095Y-68904819D02*
X124761905Y-68904819D01*
X124761905Y-68904819D02*
X124714286Y-69381009D01*
X124714286Y-69381009D02*
X124761905Y-69333390D01*
X124761905Y-69333390D02*
X124857143Y-69285771D01*
X124857143Y-69285771D02*
X125095238Y-69285771D01*
X125095238Y-69285771D02*
X125190476Y-69333390D01*
X125190476Y-69333390D02*
X125238095Y-69381009D01*
X125238095Y-69381009D02*
X125285714Y-69476247D01*
X125285714Y-69476247D02*
X125285714Y-69714342D01*
X125285714Y-69714342D02*
X125238095Y-69809580D01*
X125238095Y-69809580D02*
X125190476Y-69857200D01*
X125190476Y-69857200D02*
X125095238Y-69904819D01*
X125095238Y-69904819D02*
X124857143Y-69904819D01*
X124857143Y-69904819D02*
X124761905Y-69857200D01*
X124761905Y-69857200D02*
X124714286Y-69809580D01*
X115333333Y-59954819D02*
X115000000Y-59478628D01*
X114761905Y-59954819D02*
X114761905Y-58954819D01*
X114761905Y-58954819D02*
X115142857Y-58954819D01*
X115142857Y-58954819D02*
X115238095Y-59002438D01*
X115238095Y-59002438D02*
X115285714Y-59050057D01*
X115285714Y-59050057D02*
X115333333Y-59145295D01*
X115333333Y-59145295D02*
X115333333Y-59288152D01*
X115333333Y-59288152D02*
X115285714Y-59383390D01*
X115285714Y-59383390D02*
X115238095Y-59431009D01*
X115238095Y-59431009D02*
X115142857Y-59478628D01*
X115142857Y-59478628D02*
X114761905Y-59478628D01*
X115666667Y-58954819D02*
X116285714Y-58954819D01*
X116285714Y-58954819D02*
X115952381Y-59335771D01*
X115952381Y-59335771D02*
X116095238Y-59335771D01*
X116095238Y-59335771D02*
X116190476Y-59383390D01*
X116190476Y-59383390D02*
X116238095Y-59431009D01*
X116238095Y-59431009D02*
X116285714Y-59526247D01*
X116285714Y-59526247D02*
X116285714Y-59764342D01*
X116285714Y-59764342D02*
X116238095Y-59859580D01*
X116238095Y-59859580D02*
X116190476Y-59907200D01*
X116190476Y-59907200D02*
X116095238Y-59954819D01*
X116095238Y-59954819D02*
X115809524Y-59954819D01*
X115809524Y-59954819D02*
X115714286Y-59907200D01*
X115714286Y-59907200D02*
X115666667Y-59859580D01*
X121013809Y-74453628D02*
X121013809Y-74929819D01*
X120680476Y-73929819D02*
X121013809Y-74453628D01*
X121013809Y-74453628D02*
X121347142Y-73929819D01*
X122204285Y-74929819D02*
X121632857Y-74929819D01*
X121918571Y-74929819D02*
X121918571Y-73929819D01*
X121918571Y-73929819D02*
X121823333Y-74072676D01*
X121823333Y-74072676D02*
X121728095Y-74167914D01*
X121728095Y-74167914D02*
X121632857Y-74215533D01*
X118531905Y-61744819D02*
X118531905Y-60744819D01*
X118531905Y-60744819D02*
X118770000Y-60744819D01*
X118770000Y-60744819D02*
X118912857Y-60792438D01*
X118912857Y-60792438D02*
X119008095Y-60887676D01*
X119008095Y-60887676D02*
X119055714Y-60982914D01*
X119055714Y-60982914D02*
X119103333Y-61173390D01*
X119103333Y-61173390D02*
X119103333Y-61316247D01*
X119103333Y-61316247D02*
X119055714Y-61506723D01*
X119055714Y-61506723D02*
X119008095Y-61601961D01*
X119008095Y-61601961D02*
X118912857Y-61697200D01*
X118912857Y-61697200D02*
X118770000Y-61744819D01*
X118770000Y-61744819D02*
X118531905Y-61744819D01*
X120055714Y-61744819D02*
X119484286Y-61744819D01*
X119770000Y-61744819D02*
X119770000Y-60744819D01*
X119770000Y-60744819D02*
X119674762Y-60887676D01*
X119674762Y-60887676D02*
X119579524Y-60982914D01*
X119579524Y-60982914D02*
X119484286Y-61030533D01*
X129859580Y-56416666D02*
X129907200Y-56464285D01*
X129907200Y-56464285D02*
X129954819Y-56607142D01*
X129954819Y-56607142D02*
X129954819Y-56702380D01*
X129954819Y-56702380D02*
X129907200Y-56845237D01*
X129907200Y-56845237D02*
X129811961Y-56940475D01*
X129811961Y-56940475D02*
X129716723Y-56988094D01*
X129716723Y-56988094D02*
X129526247Y-57035713D01*
X129526247Y-57035713D02*
X129383390Y-57035713D01*
X129383390Y-57035713D02*
X129192914Y-56988094D01*
X129192914Y-56988094D02*
X129097676Y-56940475D01*
X129097676Y-56940475D02*
X129002438Y-56845237D01*
X129002438Y-56845237D02*
X128954819Y-56702380D01*
X128954819Y-56702380D02*
X128954819Y-56607142D01*
X128954819Y-56607142D02*
X129002438Y-56464285D01*
X129002438Y-56464285D02*
X129050057Y-56416666D01*
X128954819Y-56083332D02*
X128954819Y-55464285D01*
X128954819Y-55464285D02*
X129335771Y-55797618D01*
X129335771Y-55797618D02*
X129335771Y-55654761D01*
X129335771Y-55654761D02*
X129383390Y-55559523D01*
X129383390Y-55559523D02*
X129431009Y-55511904D01*
X129431009Y-55511904D02*
X129526247Y-55464285D01*
X129526247Y-55464285D02*
X129764342Y-55464285D01*
X129764342Y-55464285D02*
X129859580Y-55511904D01*
X129859580Y-55511904D02*
X129907200Y-55559523D01*
X129907200Y-55559523D02*
X129954819Y-55654761D01*
X129954819Y-55654761D02*
X129954819Y-55940475D01*
X129954819Y-55940475D02*
X129907200Y-56035713D01*
X129907200Y-56035713D02*
X129859580Y-56083332D01*
D13*
%TO.C,R1*%
X118770000Y-53370000D02*
X118770000Y-53040000D01*
X118770000Y-50630000D02*
X118770000Y-50960000D01*
X112230000Y-53370000D02*
X118770000Y-53370000D01*
X112230000Y-53040000D02*
X112230000Y-53370000D01*
X112230000Y-50960000D02*
X112230000Y-50630000D01*
X112230000Y-50630000D02*
X118770000Y-50630000D01*
%TO.C,SW1*%
X108500000Y-54750000D02*
X108500000Y-53250000D01*
X107250000Y-50750000D02*
X102750000Y-50750000D01*
X102750000Y-57250000D02*
X107250000Y-57250000D01*
X101500000Y-53250000D02*
X101500000Y-54750000D01*
%TO.C,SW3*%
X101000000Y-71500000D02*
X101000000Y-73000000D01*
X102250000Y-75500000D02*
X106750000Y-75500000D01*
X106750000Y-69000000D02*
X102250000Y-69000000D01*
X108000000Y-73000000D02*
X108000000Y-71500000D01*
%TO.C,SW2*%
X108500000Y-63750000D02*
X108500000Y-62250000D01*
X107250000Y-59750000D02*
X102750000Y-59750000D01*
X102750000Y-66250000D02*
X107250000Y-66250000D01*
X101500000Y-62250000D02*
X101500000Y-63750000D01*
%TO.C,D2*%
X124185000Y-63705000D02*
X124185000Y-66795000D01*
X129734999Y-65250462D02*
G75*
G03*
X124185001Y-63705170I-2989999J462D01*
G01*
X124185000Y-66794830D02*
G75*
G03*
X129735000Y-65249538I2560000J1544830D01*
G01*
X129245000Y-65250000D02*
G75*
G03*
X129245000Y-65250000I-2500000J0D01*
G01*
%TO.C,C4*%
X116680000Y-70580000D02*
X116680000Y-70825000D01*
X116680000Y-70580000D02*
X120320000Y-70580000D01*
X116680000Y-72675000D02*
X116680000Y-72920000D01*
X116680000Y-72920000D02*
X120320000Y-72920000D01*
X120320000Y-70580000D02*
X120320000Y-70825000D01*
X120320000Y-72675000D02*
X120320000Y-72920000D01*
%TO.C,C6*%
X124120000Y-54030000D02*
X123805000Y-54030000D01*
X124120000Y-54030000D02*
X124120000Y-58970000D01*
X121695000Y-54030000D02*
X121380000Y-54030000D01*
X121380000Y-54030000D02*
X121380000Y-58970000D01*
X124120000Y-58970000D02*
X123805000Y-58970000D01*
X121695000Y-58970000D02*
X121380000Y-58970000D01*
%TO.C,J6*%
X132270000Y-99330000D02*
X145030000Y-99330000D01*
X132270000Y-99330000D02*
X132270000Y-96670000D01*
X145030000Y-99330000D02*
X145030000Y-96670000D01*
X129670000Y-98000000D02*
X129670000Y-96670000D01*
X129670000Y-96670000D02*
X131000000Y-96670000D01*
X132270000Y-96670000D02*
X145030000Y-96670000D01*
%TO.C,R2*%
X118770000Y-56870000D02*
X118770000Y-56540000D01*
X118770000Y-54130000D02*
X118770000Y-54460000D01*
X112230000Y-56870000D02*
X118770000Y-56870000D01*
X112230000Y-56540000D02*
X112230000Y-56870000D01*
X112230000Y-54460000D02*
X112230000Y-54130000D01*
X112230000Y-54130000D02*
X118770000Y-54130000D01*
%TO.C,J3*%
X149330000Y-96520000D02*
X149330000Y-83760000D01*
X149330000Y-96520000D02*
X146670000Y-96520000D01*
X149330000Y-83760000D02*
X146670000Y-83760000D01*
X148000000Y-99120000D02*
X146670000Y-99120000D01*
X146670000Y-99120000D02*
X146670000Y-97790000D01*
X146670000Y-96520000D02*
X146670000Y-83760000D01*
%TO.C,J4*%
X96450000Y-88692500D02*
X111150000Y-88692500D01*
X96450000Y-97892500D02*
X96450000Y-88692500D01*
X105250000Y-97892500D02*
X96450000Y-97892500D01*
X110300000Y-88492500D02*
X111350000Y-88492500D01*
X111150000Y-88692500D02*
X111150000Y-91292500D01*
X111150000Y-95192500D02*
X111150000Y-97892500D01*
X111150000Y-97892500D02*
X109250000Y-97892500D01*
X111350000Y-89542500D02*
X111350000Y-88492500D01*
%TO.C,J5*%
X133020000Y-53330000D02*
X145780000Y-53330000D01*
X133020000Y-53330000D02*
X133020000Y-50670000D01*
X145780000Y-53330000D02*
X145780000Y-50670000D01*
X130420000Y-52000000D02*
X130420000Y-50670000D01*
X130420000Y-50670000D02*
X131750000Y-50670000D01*
X133020000Y-50670000D02*
X145780000Y-50670000D01*
%TO.C,J2*%
X149330000Y-63350000D02*
X149330000Y-50590000D01*
X149330000Y-63350000D02*
X146670000Y-63350000D01*
X149330000Y-50590000D02*
X146670000Y-50590000D01*
X148000000Y-65950000D02*
X146670000Y-65950000D01*
X146670000Y-65950000D02*
X146670000Y-64620000D01*
X146670000Y-63350000D02*
X146670000Y-50590000D01*
%TO.C,C1*%
X113567380Y-85161000D02*
X114197380Y-85161000D01*
X113882380Y-84846000D02*
X113882380Y-85476000D01*
X117067621Y-83770000D02*
X117067621Y-90230000D01*
X117107621Y-83770000D02*
X117107621Y-90230000D01*
X117147621Y-83770000D02*
X117147621Y-90230000D01*
X117187621Y-83772000D02*
X117187621Y-90228000D01*
X117227621Y-83773000D02*
X117227621Y-90227000D01*
X117267621Y-83776000D02*
X117267621Y-90224000D01*
X117307621Y-83778000D02*
X117307621Y-85960000D01*
X117307621Y-88040000D02*
X117307621Y-90222000D01*
X117347621Y-83782000D02*
X117347621Y-85960000D01*
X117347621Y-88040000D02*
X117347621Y-90218000D01*
X117387621Y-83785000D02*
X117387621Y-85960000D01*
X117387621Y-88040000D02*
X117387621Y-90215000D01*
X117427621Y-83789000D02*
X117427621Y-85960000D01*
X117427621Y-88040000D02*
X117427621Y-90211000D01*
X117467621Y-83794000D02*
X117467621Y-85960000D01*
X117467621Y-88040000D02*
X117467621Y-90206000D01*
X117507621Y-83799000D02*
X117507621Y-85960000D01*
X117507621Y-88040000D02*
X117507621Y-90201000D01*
X117547621Y-83805000D02*
X117547621Y-85960000D01*
X117547621Y-88040000D02*
X117547621Y-90195000D01*
X117587621Y-83811000D02*
X117587621Y-85960000D01*
X117587621Y-88040000D02*
X117587621Y-90189000D01*
X117627621Y-83818000D02*
X117627621Y-85960000D01*
X117627621Y-88040000D02*
X117627621Y-90182000D01*
X117667621Y-83825000D02*
X117667621Y-85960000D01*
X117667621Y-88040000D02*
X117667621Y-90175000D01*
X117707621Y-83833000D02*
X117707621Y-85960000D01*
X117707621Y-88040000D02*
X117707621Y-90167000D01*
X117747621Y-83841000D02*
X117747621Y-85960000D01*
X117747621Y-88040000D02*
X117747621Y-90159000D01*
X117788621Y-83850000D02*
X117788621Y-85960000D01*
X117788621Y-88040000D02*
X117788621Y-90150000D01*
X117828621Y-83859000D02*
X117828621Y-85960000D01*
X117828621Y-88040000D02*
X117828621Y-90141000D01*
X117868621Y-83869000D02*
X117868621Y-85960000D01*
X117868621Y-88040000D02*
X117868621Y-90131000D01*
X117908621Y-83879000D02*
X117908621Y-85960000D01*
X117908621Y-88040000D02*
X117908621Y-90121000D01*
X117948621Y-83890000D02*
X117948621Y-85960000D01*
X117948621Y-88040000D02*
X117948621Y-90110000D01*
X117988621Y-83902000D02*
X117988621Y-85960000D01*
X117988621Y-88040000D02*
X117988621Y-90098000D01*
X118028621Y-83914000D02*
X118028621Y-85960000D01*
X118028621Y-88040000D02*
X118028621Y-90086000D01*
X118068621Y-83926000D02*
X118068621Y-85960000D01*
X118068621Y-88040000D02*
X118068621Y-90074000D01*
X118108621Y-83939000D02*
X118108621Y-85960000D01*
X118108621Y-88040000D02*
X118108621Y-90061000D01*
X118148621Y-83953000D02*
X118148621Y-85960000D01*
X118148621Y-88040000D02*
X118148621Y-90047000D01*
X118188621Y-83967000D02*
X118188621Y-85960000D01*
X118188621Y-88040000D02*
X118188621Y-90033000D01*
X118228621Y-83982000D02*
X118228621Y-85960000D01*
X118228621Y-88040000D02*
X118228621Y-90018000D01*
X118268621Y-83998000D02*
X118268621Y-85960000D01*
X118268621Y-88040000D02*
X118268621Y-90002000D01*
X118308621Y-84014000D02*
X118308621Y-85960000D01*
X118308621Y-88040000D02*
X118308621Y-89986000D01*
X118348621Y-84030000D02*
X118348621Y-85960000D01*
X118348621Y-88040000D02*
X118348621Y-89970000D01*
X118388621Y-84048000D02*
X118388621Y-85960000D01*
X118388621Y-88040000D02*
X118388621Y-89952000D01*
X118428621Y-84066000D02*
X118428621Y-85960000D01*
X118428621Y-88040000D02*
X118428621Y-89934000D01*
X118468621Y-84084000D02*
X118468621Y-85960000D01*
X118468621Y-88040000D02*
X118468621Y-89916000D01*
X118508621Y-84104000D02*
X118508621Y-85960000D01*
X118508621Y-88040000D02*
X118508621Y-89896000D01*
X118548621Y-84124000D02*
X118548621Y-85960000D01*
X118548621Y-88040000D02*
X118548621Y-89876000D01*
X118588621Y-84144000D02*
X118588621Y-85960000D01*
X118588621Y-88040000D02*
X118588621Y-89856000D01*
X118628621Y-84166000D02*
X118628621Y-85960000D01*
X118628621Y-88040000D02*
X118628621Y-89834000D01*
X118668621Y-84188000D02*
X118668621Y-85960000D01*
X118668621Y-88040000D02*
X118668621Y-89812000D01*
X118708621Y-84210000D02*
X118708621Y-85960000D01*
X118708621Y-88040000D02*
X118708621Y-89790000D01*
X118748621Y-84234000D02*
X118748621Y-85960000D01*
X118748621Y-88040000D02*
X118748621Y-89766000D01*
X118788621Y-84258000D02*
X118788621Y-85960000D01*
X118788621Y-88040000D02*
X118788621Y-89742000D01*
X118828621Y-84284000D02*
X118828621Y-85960000D01*
X118828621Y-88040000D02*
X118828621Y-89716000D01*
X118868621Y-84310000D02*
X118868621Y-85960000D01*
X118868621Y-88040000D02*
X118868621Y-89690000D01*
X118908621Y-84336000D02*
X118908621Y-85960000D01*
X118908621Y-88040000D02*
X118908621Y-89664000D01*
X118948621Y-84364000D02*
X118948621Y-85960000D01*
X118948621Y-88040000D02*
X118948621Y-89636000D01*
X118988621Y-84393000D02*
X118988621Y-85960000D01*
X118988621Y-88040000D02*
X118988621Y-89607000D01*
X119028621Y-84422000D02*
X119028621Y-85960000D01*
X119028621Y-88040000D02*
X119028621Y-89578000D01*
X119068621Y-84452000D02*
X119068621Y-85960000D01*
X119068621Y-88040000D02*
X119068621Y-89548000D01*
X119108621Y-84484000D02*
X119108621Y-85960000D01*
X119108621Y-88040000D02*
X119108621Y-89516000D01*
X119148621Y-84516000D02*
X119148621Y-85960000D01*
X119148621Y-88040000D02*
X119148621Y-89484000D01*
X119188621Y-84550000D02*
X119188621Y-85960000D01*
X119188621Y-88040000D02*
X119188621Y-89450000D01*
X119228621Y-84584000D02*
X119228621Y-85960000D01*
X119228621Y-88040000D02*
X119228621Y-89416000D01*
X119268621Y-84620000D02*
X119268621Y-85960000D01*
X119268621Y-88040000D02*
X119268621Y-89380000D01*
X119308621Y-84657000D02*
X119308621Y-85960000D01*
X119308621Y-88040000D02*
X119308621Y-89343000D01*
X119348621Y-84695000D02*
X119348621Y-85960000D01*
X119348621Y-88040000D02*
X119348621Y-89305000D01*
X119388621Y-84735000D02*
X119388621Y-89265000D01*
X119428621Y-84776000D02*
X119428621Y-89224000D01*
X119468621Y-84818000D02*
X119468621Y-89182000D01*
X119508621Y-84863000D02*
X119508621Y-89137000D01*
X119548621Y-84908000D02*
X119548621Y-89092000D01*
X119588621Y-84956000D02*
X119588621Y-89044000D01*
X119628621Y-85005000D02*
X119628621Y-88995000D01*
X119668621Y-85056000D02*
X119668621Y-88944000D01*
X119708621Y-85110000D02*
X119708621Y-88890000D01*
X119748621Y-85166000D02*
X119748621Y-88834000D01*
X119788621Y-85224000D02*
X119788621Y-88776000D01*
X119828621Y-85286000D02*
X119828621Y-88714000D01*
X119868621Y-85350000D02*
X119868621Y-88650000D01*
X119908621Y-85419000D02*
X119908621Y-88581000D01*
X119948621Y-85491000D02*
X119948621Y-88509000D01*
X119988621Y-85568000D02*
X119988621Y-88432000D01*
X120028621Y-85650000D02*
X120028621Y-88350000D01*
X120068621Y-85738000D02*
X120068621Y-88262000D01*
X120108621Y-85835000D02*
X120108621Y-88165000D01*
X120148621Y-85941000D02*
X120148621Y-88059000D01*
X120188621Y-86060000D02*
X120188621Y-87940000D01*
X120228621Y-86198000D02*
X120228621Y-87802000D01*
X120268621Y-86367000D02*
X120268621Y-87633000D01*
X120308621Y-86598000D02*
X120308621Y-87402000D01*
X120337621Y-87000000D02*
G75*
G03*
X120337621Y-87000000I-3270000J0D01*
G01*
%TO.C,Je1*%
X114355000Y-65220000D02*
X114355000Y-72900000D01*
X114355000Y-62620000D02*
X114355000Y-63950000D01*
X113025000Y-62620000D02*
X114355000Y-62620000D01*
X111695000Y-72900000D02*
X114355000Y-72900000D01*
X111695000Y-65220000D02*
X114355000Y-65220000D01*
X111695000Y-65220000D02*
X111695000Y-72900000D01*
%TO.C,C2*%
X121749759Y-85161000D02*
X122379759Y-85161000D01*
X122064759Y-84846000D02*
X122064759Y-85476000D01*
X125250000Y-83770000D02*
X125250000Y-90230000D01*
X125290000Y-83770000D02*
X125290000Y-90230000D01*
X125330000Y-83770000D02*
X125330000Y-90230000D01*
X125370000Y-83772000D02*
X125370000Y-90228000D01*
X125410000Y-83773000D02*
X125410000Y-90227000D01*
X125450000Y-83776000D02*
X125450000Y-90224000D01*
X125490000Y-83778000D02*
X125490000Y-85960000D01*
X125490000Y-88040000D02*
X125490000Y-90222000D01*
X125530000Y-83782000D02*
X125530000Y-85960000D01*
X125530000Y-88040000D02*
X125530000Y-90218000D01*
X125570000Y-83785000D02*
X125570000Y-85960000D01*
X125570000Y-88040000D02*
X125570000Y-90215000D01*
X125610000Y-83789000D02*
X125610000Y-85960000D01*
X125610000Y-88040000D02*
X125610000Y-90211000D01*
X125650000Y-83794000D02*
X125650000Y-85960000D01*
X125650000Y-88040000D02*
X125650000Y-90206000D01*
X125690000Y-83799000D02*
X125690000Y-85960000D01*
X125690000Y-88040000D02*
X125690000Y-90201000D01*
X125730000Y-83805000D02*
X125730000Y-85960000D01*
X125730000Y-88040000D02*
X125730000Y-90195000D01*
X125770000Y-83811000D02*
X125770000Y-85960000D01*
X125770000Y-88040000D02*
X125770000Y-90189000D01*
X125810000Y-83818000D02*
X125810000Y-85960000D01*
X125810000Y-88040000D02*
X125810000Y-90182000D01*
X125850000Y-83825000D02*
X125850000Y-85960000D01*
X125850000Y-88040000D02*
X125850000Y-90175000D01*
X125890000Y-83833000D02*
X125890000Y-85960000D01*
X125890000Y-88040000D02*
X125890000Y-90167000D01*
X125930000Y-83841000D02*
X125930000Y-85960000D01*
X125930000Y-88040000D02*
X125930000Y-90159000D01*
X125971000Y-83850000D02*
X125971000Y-85960000D01*
X125971000Y-88040000D02*
X125971000Y-90150000D01*
X126011000Y-83859000D02*
X126011000Y-85960000D01*
X126011000Y-88040000D02*
X126011000Y-90141000D01*
X126051000Y-83869000D02*
X126051000Y-85960000D01*
X126051000Y-88040000D02*
X126051000Y-90131000D01*
X126091000Y-83879000D02*
X126091000Y-85960000D01*
X126091000Y-88040000D02*
X126091000Y-90121000D01*
X126131000Y-83890000D02*
X126131000Y-85960000D01*
X126131000Y-88040000D02*
X126131000Y-90110000D01*
X126171000Y-83902000D02*
X126171000Y-85960000D01*
X126171000Y-88040000D02*
X126171000Y-90098000D01*
X126211000Y-83914000D02*
X126211000Y-85960000D01*
X126211000Y-88040000D02*
X126211000Y-90086000D01*
X126251000Y-83926000D02*
X126251000Y-85960000D01*
X126251000Y-88040000D02*
X126251000Y-90074000D01*
X126291000Y-83939000D02*
X126291000Y-85960000D01*
X126291000Y-88040000D02*
X126291000Y-90061000D01*
X126331000Y-83953000D02*
X126331000Y-85960000D01*
X126331000Y-88040000D02*
X126331000Y-90047000D01*
X126371000Y-83967000D02*
X126371000Y-85960000D01*
X126371000Y-88040000D02*
X126371000Y-90033000D01*
X126411000Y-83982000D02*
X126411000Y-85960000D01*
X126411000Y-88040000D02*
X126411000Y-90018000D01*
X126451000Y-83998000D02*
X126451000Y-85960000D01*
X126451000Y-88040000D02*
X126451000Y-90002000D01*
X126491000Y-84014000D02*
X126491000Y-85960000D01*
X126491000Y-88040000D02*
X126491000Y-89986000D01*
X126531000Y-84030000D02*
X126531000Y-85960000D01*
X126531000Y-88040000D02*
X126531000Y-89970000D01*
X126571000Y-84048000D02*
X126571000Y-85960000D01*
X126571000Y-88040000D02*
X126571000Y-89952000D01*
X126611000Y-84066000D02*
X126611000Y-85960000D01*
X126611000Y-88040000D02*
X126611000Y-89934000D01*
X126651000Y-84084000D02*
X126651000Y-85960000D01*
X126651000Y-88040000D02*
X126651000Y-89916000D01*
X126691000Y-84104000D02*
X126691000Y-85960000D01*
X126691000Y-88040000D02*
X126691000Y-89896000D01*
X126731000Y-84124000D02*
X126731000Y-85960000D01*
X126731000Y-88040000D02*
X126731000Y-89876000D01*
X126771000Y-84144000D02*
X126771000Y-85960000D01*
X126771000Y-88040000D02*
X126771000Y-89856000D01*
X126811000Y-84166000D02*
X126811000Y-85960000D01*
X126811000Y-88040000D02*
X126811000Y-89834000D01*
X126851000Y-84188000D02*
X126851000Y-85960000D01*
X126851000Y-88040000D02*
X126851000Y-89812000D01*
X126891000Y-84210000D02*
X126891000Y-85960000D01*
X126891000Y-88040000D02*
X126891000Y-89790000D01*
X126931000Y-84234000D02*
X126931000Y-85960000D01*
X126931000Y-88040000D02*
X126931000Y-89766000D01*
X126971000Y-84258000D02*
X126971000Y-85960000D01*
X126971000Y-88040000D02*
X126971000Y-89742000D01*
X127011000Y-84284000D02*
X127011000Y-85960000D01*
X127011000Y-88040000D02*
X127011000Y-89716000D01*
X127051000Y-84310000D02*
X127051000Y-85960000D01*
X127051000Y-88040000D02*
X127051000Y-89690000D01*
X127091000Y-84336000D02*
X127091000Y-85960000D01*
X127091000Y-88040000D02*
X127091000Y-89664000D01*
X127131000Y-84364000D02*
X127131000Y-85960000D01*
X127131000Y-88040000D02*
X127131000Y-89636000D01*
X127171000Y-84393000D02*
X127171000Y-85960000D01*
X127171000Y-88040000D02*
X127171000Y-89607000D01*
X127211000Y-84422000D02*
X127211000Y-85960000D01*
X127211000Y-88040000D02*
X127211000Y-89578000D01*
X127251000Y-84452000D02*
X127251000Y-85960000D01*
X127251000Y-88040000D02*
X127251000Y-89548000D01*
X127291000Y-84484000D02*
X127291000Y-85960000D01*
X127291000Y-88040000D02*
X127291000Y-89516000D01*
X127331000Y-84516000D02*
X127331000Y-85960000D01*
X127331000Y-88040000D02*
X127331000Y-89484000D01*
X127371000Y-84550000D02*
X127371000Y-85960000D01*
X127371000Y-88040000D02*
X127371000Y-89450000D01*
X127411000Y-84584000D02*
X127411000Y-85960000D01*
X127411000Y-88040000D02*
X127411000Y-89416000D01*
X127451000Y-84620000D02*
X127451000Y-85960000D01*
X127451000Y-88040000D02*
X127451000Y-89380000D01*
X127491000Y-84657000D02*
X127491000Y-85960000D01*
X127491000Y-88040000D02*
X127491000Y-89343000D01*
X127531000Y-84695000D02*
X127531000Y-85960000D01*
X127531000Y-88040000D02*
X127531000Y-89305000D01*
X127571000Y-84735000D02*
X127571000Y-89265000D01*
X127611000Y-84776000D02*
X127611000Y-89224000D01*
X127651000Y-84818000D02*
X127651000Y-89182000D01*
X127691000Y-84863000D02*
X127691000Y-89137000D01*
X127731000Y-84908000D02*
X127731000Y-89092000D01*
X127771000Y-84956000D02*
X127771000Y-89044000D01*
X127811000Y-85005000D02*
X127811000Y-88995000D01*
X127851000Y-85056000D02*
X127851000Y-88944000D01*
X127891000Y-85110000D02*
X127891000Y-88890000D01*
X127931000Y-85166000D02*
X127931000Y-88834000D01*
X127971000Y-85224000D02*
X127971000Y-88776000D01*
X128011000Y-85286000D02*
X128011000Y-88714000D01*
X128051000Y-85350000D02*
X128051000Y-88650000D01*
X128091000Y-85419000D02*
X128091000Y-88581000D01*
X128131000Y-85491000D02*
X128131000Y-88509000D01*
X128171000Y-85568000D02*
X128171000Y-88432000D01*
X128211000Y-85650000D02*
X128211000Y-88350000D01*
X128251000Y-85738000D02*
X128251000Y-88262000D01*
X128291000Y-85835000D02*
X128291000Y-88165000D01*
X128331000Y-85941000D02*
X128331000Y-88059000D01*
X128371000Y-86060000D02*
X128371000Y-87940000D01*
X128411000Y-86198000D02*
X128411000Y-87802000D01*
X128451000Y-86367000D02*
X128451000Y-87633000D01*
X128491000Y-86598000D02*
X128491000Y-87402000D01*
X128520000Y-87000000D02*
G75*
G03*
X128520000Y-87000000I-3270000J0D01*
G01*
%TO.C,C5*%
X122680000Y-70580000D02*
X122680000Y-70825000D01*
X122680000Y-70580000D02*
X126320000Y-70580000D01*
X122680000Y-72675000D02*
X122680000Y-72920000D01*
X122680000Y-72920000D02*
X126320000Y-72920000D01*
X126320000Y-70580000D02*
X126320000Y-70825000D01*
X126320000Y-72675000D02*
X126320000Y-72920000D01*
%TO.C,U1*%
X134360000Y-55810000D02*
X134360000Y-91490000D01*
X134360000Y-91490000D02*
X139660000Y-91490000D01*
X136010000Y-55810000D02*
X134360000Y-55810000D01*
X139660000Y-55810000D02*
X138010000Y-55810000D01*
X139660000Y-91490000D02*
X139660000Y-55810000D01*
X136010000Y-55810000D02*
G75*
G03*
X138010000Y-55810000I1000000J0D01*
G01*
%TO.C,R3*%
X118770000Y-60620000D02*
X118770000Y-60290000D01*
X118770000Y-57880000D02*
X118770000Y-58210000D01*
X112230000Y-60620000D02*
X118770000Y-60620000D01*
X112230000Y-60290000D02*
X112230000Y-60620000D01*
X112230000Y-58210000D02*
X112230000Y-57880000D01*
X112230000Y-57880000D02*
X118770000Y-57880000D01*
%TO.C,Y1*%
X124690000Y-80525000D02*
G75*
G03*
X124690000Y-75475000I0J2525000D01*
G01*
X118290000Y-75475000D02*
G75*
G03*
X118290000Y-80525000I0J-2525000D01*
G01*
X118290000Y-80525000D02*
X124690000Y-80525000D01*
X118290000Y-75475000D02*
X124690000Y-75475000D01*
%TO.C,J1*%
X149305000Y-79805000D02*
X149305000Y-67045000D01*
X149305000Y-79805000D02*
X146645000Y-79805000D01*
X149305000Y-67045000D02*
X146645000Y-67045000D01*
X147975000Y-82405000D02*
X146645000Y-82405000D01*
X146645000Y-82405000D02*
X146645000Y-81075000D01*
X146645000Y-79805000D02*
X146645000Y-67045000D01*
%TO.C,D1*%
X116710000Y-63705000D02*
X116710000Y-66795000D01*
X122259999Y-65250462D02*
G75*
G03*
X116710001Y-63705170I-2989999J462D01*
G01*
X116710000Y-66794830D02*
G75*
G03*
X122260000Y-65249538I2560000J1544830D01*
G01*
X121770000Y-65250000D02*
G75*
G03*
X121770000Y-65250000I-2500000J0D01*
G01*
%TO.C,C3*%
X125880000Y-58970000D02*
X126195000Y-58970000D01*
X125880000Y-58970000D02*
X125880000Y-54030000D01*
X128305000Y-58970000D02*
X128620000Y-58970000D01*
X128620000Y-58970000D02*
X128620000Y-54030000D01*
X125880000Y-54030000D02*
X126195000Y-54030000D01*
X128305000Y-54030000D02*
X128620000Y-54030000D01*
%TO.C,U2*%
X124580000Y-99020000D02*
X124580000Y-94379000D01*
X124580000Y-99020000D02*
X114340000Y-99020000D01*
X124580000Y-97510000D02*
X114340000Y-97510000D01*
X124580000Y-94379000D02*
X114340000Y-94379000D01*
X121310000Y-99020000D02*
X121310000Y-97510000D01*
X117609000Y-99020000D02*
X117609000Y-97510000D01*
X114340000Y-99020000D02*
X114340000Y-94379000D01*
%TD*%
M02*
